<?xml version="1.0" encoding="iso-8859-1"?>
<!-- Generator: Adobe Illustrator 17.1.0, SVG Export Plug-In . SVG Version: 6.00 Build 0)  -->
<!DOCTYPE svg PUBLIC "-//W3C//DTD SVG 1.1//EN" "http://www.w3.org/Graphics/SVG/1.1/DTD/svg11.dtd">
<svg version="1.1" id="Capa_1" xmlns="http://www.w3.org/2000/svg" xmlns:xlink="http://www.w3.org/1999/xlink" x="0px" y="0px"
	 viewBox="0 0 465.999 465.999" style="enable-background:new 0 0 465.999 465.999;" xml:space="preserve">
<path d="M465.896,313.897c-1.243-31.798-13.336-60.803-35.015-84.11v-34.221c0-2.208-0.912-4.317-2.521-5.829
	c-1.607-1.512-3.766-2.307-5.974-2.155l-62.676,3.887c-11.635-56.431-58.198-101.034-116.709-111.783l4.174-67.315
	c0.137-2.203-0.644-4.365-2.155-5.975c-1.512-1.608-3.621-2.521-5.829-2.521H191.69c-2.208,0-4.317,0.912-5.829,2.521
	c-1.513,1.608-2.292,3.771-2.155,5.974l4.175,67.317c-58.513,10.75-105.074,55.348-116.71,111.781l-62.676-3.887
	c-2.21-0.152-4.366,0.644-5.974,2.155C0.912,191.248,0,193.358,0,195.566v47.502c0,2.208,0.912,4.317,2.521,5.829
	c1.487,1.398,3.448,2.171,5.479,2.171c0.164,0,0.33-0.005,0.495-0.016l60.425-3.748c3.172,34.911,15.712,69.485,36.521,100.471
	c24.246,36.105,59.201,66.034,101.087,86.55c7.363,3.606,14.702,6.854,22.001,9.767c0.191,0.076,0.378,0.162,0.575,0.224
	c29.745,11.793,58.817,17.81,86.066,17.809c4.088,0,8.135-0.139,12.137-0.409c0.013,0,0.025,0.002,0.038,0.002
	c0.066,0,0.131-0.014,0.197-0.016c6.901-0.476,13.668-1.354,20.281-2.641c37.316-7.262,69.708-27.633,91.208-57.36
	C457.568,376.069,467.109,344.886,465.896,313.897z M414.882,231.537c-0.148,0.885-0.151,1.79,0,2.675v0.344l-3.474-0.215
	c-0.075-0.004-0.149-0.012-0.224-0.014l-95.437-5.918c0.269-2.997,0.415-6.028,0.415-9.093c0-3.064-0.146-6.095-0.415-9.091
	l99.135-6.147V231.537z M130.72,219.316c0-46.714,38.007-84.719,84.724-84.719c46.714,0,84.719,38.005,84.719,84.719
	c0,46.716-38.005,84.722-84.719,84.722C168.727,304.037,130.72,266.031,130.72,219.316z M343.543,192.471l-30.511,1.893
	c-9.088-35.524-37.113-63.549-72.637-72.637l1.608-25.925C292.474,105.825,332.6,144.046,343.543,192.471z M230.68,19.875
	l-4.099,66.102c-0.006,0.095-0.015,0.189-0.018,0.284l-2.031,32.751c-2.995-0.269-6.026-0.415-9.089-0.415
	c-3.065,0-6.097,0.146-9.094,0.415l-1.996-32.19c0.022-0.472,0.01-0.951-0.054-1.435c-0.013-0.098-0.037-0.191-0.053-0.288
	l-4.045-65.224H230.68z M188.88,95.803l1.608,25.924c-35.525,9.089-63.55,37.112-72.638,72.636l-30.511-1.893
	C98.283,144.043,138.407,105.828,188.88,95.803z M16,204.077l99.135,6.147c-0.269,2.996-0.415,6.026-0.415,9.091
	c0,3.065,0.146,6.097,0.415,9.093L16,234.556V204.077z M314.701,446.203c-18.517-0.001-38.822-3.057-60.803-9.969
	c20.174-9.261,38.845-21.407,55.698-36.271c22.103-19.493,39.999-42.685,53.19-68.931c1.984-3.947,0.393-8.757-3.555-10.74
	c-3.946-1.987-8.757-0.395-10.74,3.555c-24.116,47.979-66.609,85.827-116.88,104.262c-5.909-2.444-11.924-5.154-18.046-8.153
	c-86.875-42.552-123.11-116.09-128.66-173.643l32.944-2.043c11.131,43.507,50.665,75.768,97.593,75.768
	c46.926,0,86.458-32.26,97.588-75.768l57.103,3.542c-1.443,16.061-4.695,31.88-9.706,47.132c-1.379,4.197,0.906,8.718,5.104,10.098
	c0.829,0.272,1.671,0.401,2.498,0.401c3.362,0,6.493-2.137,7.6-5.505c5.436-16.547,8.951-33.712,10.482-51.135l17.856,1.107
	c1.273,9.459,1.928,19.072,1.928,28.663c0,65.903-29.717,126.754-81.592,167.352C321.158,446.109,317.958,446.203,314.701,446.203z
	 M426.066,392.323c-15.811,21.863-40.203,40.456-72.307,48.945c17.684-17.455,32.578-37.765,43.733-59.854
	c16.193-32.067,24.404-66.669,24.404-102.842c0-9.243-0.562-18.506-1.665-27.654l2.155,0.134c0.165,0.011,0.331,0.016,0.495,0.016
	c1.419,0,2.8-0.385,4.013-1.089C457.465,290.874,457.792,348.455,426.066,392.323z"/>
<g>
</g>
<g>
</g>
<g>
</g>
<g>
</g>
<g>
</g>
<g>
</g>
<g>
</g>
<g>
</g>
<g>
</g>
<g>
</g>
<g>
</g>
<g>
</g>
<g>
</g>
<g>
</g>
<g>
</g>
</svg>
