<?xml version="1.0" encoding="iso-8859-1"?>
<!-- Generator: Adobe Illustrator 19.0.0, SVG Export Plug-In . SVG Version: 6.00 Build 0)  -->
<svg version="1.1" id="Capa_1" xmlns="http://www.w3.org/2000/svg" xmlns:xlink="http://www.w3.org/1999/xlink" x="0px" y="0px"
	 viewBox="0 0 60 60" style="enable-background:new 0 0 60 60;" xml:space="preserve">
<g>
	<path d="M15.449,25.835c0.281,0.186,0.638,0.217,0.944,0.084L22,23.516V41c0,0.347,0.18,0.669,0.476,0.852
		C22.636,41.95,22.817,42,23,42c0.154,0,0.309-0.036,0.45-0.107l5.951-3c0.336-0.169,0.549-0.514,0.55-0.89l0.047-17.343
		l6.396-2.741C36.762,17.762,37,17.4,37,17v-6c0-0.336-0.169-0.65-0.449-0.835c-0.281-0.185-0.637-0.216-0.944-0.084L30,12.483V7
		c0-0.347-0.18-0.668-0.475-0.851c-0.296-0.183-0.663-0.198-0.973-0.044l-6,3C22.214,9.275,22,9.621,22,10v5.341l-6.394,2.74
		C15.238,18.238,15,18.6,15,19v6C15,25.336,15.169,25.65,15.449,25.835z M17,19.659l6.394-2.74C23.762,16.762,24,16.4,24,16v-5.382
		l4-2V14c0,0.336,0.169,0.65,0.449,0.835c0.282,0.185,0.638,0.216,0.944,0.084L35,12.516v3.824l-6.394,2.74
		c-0.367,0.157-0.605,0.517-0.606,0.916l-0.047,17.386L24,39.376V22c0-0.336-0.169-0.65-0.449-0.835C23.385,21.055,23.192,21,23,21
		c-0.134,0-0.268,0.027-0.394,0.081L17,23.483V19.659z"/>
	<path d="M50.6,49.8c0.022-0.017,0.036-0.04,0.056-0.058c0.033-0.03,0.062-0.061,0.092-0.094c0.052-0.06,0.094-0.123,0.13-0.193
		c0.019-0.036,0.038-0.068,0.052-0.106c0.04-0.106,0.065-0.216,0.067-0.33C50.996,49.012,51,49.006,51,49V6c0-0.552-0.447-1-1-1h-8
		V1c0-0.293-0.129-0.571-0.352-0.761c-0.224-0.19-0.519-0.272-0.808-0.226l-31,5C9.356,5.091,9,5.509,9,6v43v2
		c0,0.121,0.025,0.237,0.066,0.347C9.03,51.56,9,51.776,9,52c0,2.206,1.794,4,4,4h3v3c0,0.404,0.243,0.769,0.617,0.924
		c0.375,0.154,0.804,0.07,1.09-0.217l3.038-3.038c0.141-0.141,0.369-0.141,0.51,0l3.038,3.038C24.484,59.898,24.74,60,25,60
		c0.129,0,0.259-0.025,0.383-0.076C25.757,59.769,26,59.404,26,59v-3h24c0.431,0,0.813-0.275,0.948-0.684
		c0.137-0.409-0.004-0.858-0.349-1.116c-0.698-0.524-1.1-1.326-1.1-2.2S49.901,50.324,50.6,49.8z M49,7v41H25h-6.03l22.251-5.024
		C41.676,42.872,42,42.467,42,42V7H49z M40,2.174V6V41.2l-29,6.548V6.851L40,2.174z M13,54c-1.103,0-2-0.897-2-2
		c0-0.525,0.208-1,0.54-1.357c0.054-0.053,0.107-0.106,0.166-0.155c0.006-0.005,0.012-0.01,0.019-0.015
		c0.081-0.067,0.167-0.129,0.258-0.185c0.001-0.001,0.002-0.001,0.003-0.002c0.09-0.055,0.187-0.103,0.287-0.144
		c0.05-0.019,0.102-0.032,0.153-0.048c0.061-0.019,0.12-0.042,0.185-0.055C12.737,50.014,12.867,50,13,50h3v4H13z M24,56.586
		l-1.331-1.331c-0.46-0.46-1.064-0.69-1.669-0.69s-1.209,0.23-1.669,0.69L18,56.586V55v-5h6v5V56.586z M26,54v-4h21.937
		c-0.147,0.318-0.255,0.653-0.329,1H39c-0.553,0-1,0.448-1,1s0.447,1,1,1h8.608c0.073,0.347,0.182,0.682,0.329,1H26z"/>
</g>
<g>
</g>
<g>
</g>
<g>
</g>
<g>
</g>
<g>
</g>
<g>
</g>
<g>
</g>
<g>
</g>
<g>
</g>
<g>
</g>
<g>
</g>
<g>
</g>
<g>
</g>
<g>
</g>
<g>
</g>
</svg>
