<?xml version="1.0" encoding="iso-8859-1"?>
<!-- Generator: Adobe Illustrator 17.1.0, SVG Export Plug-In . SVG Version: 6.00 Build 0)  -->
<!DOCTYPE svg PUBLIC "-//W3C//DTD SVG 1.1//EN" "http://www.w3.org/Graphics/SVG/1.1/DTD/svg11.dtd">
<svg version="1.1" id="Capa_1" xmlns="http://www.w3.org/2000/svg" xmlns:xlink="http://www.w3.org/1999/xlink" x="0px" y="0px"
	 viewBox="0 0 466 466" style="enable-background:new 0 0 466 466;" xml:space="preserve">
<path d="M407.607,223.648c0-0.079,0.007-0.155,0.005-0.234c-0.017-0.568-0.095-1.12-0.223-1.65
	c-3.387-29.241-10.389-57.864-20.579-84.369c-0.165-0.666-0.405-1.302-0.725-1.891c-7.944-20.284-17.758-39.298-29.251-56.355
	C322.942,28.849,277.802,0,232.987,0c-44.814,0-89.949,28.849-123.833,79.148c-11.489,17.056-21.301,36.069-29.243,56.353
	c-0.322,0.591-0.563,1.23-0.728,1.899c-10.189,26.512-17.19,55.142-20.575,84.391c-0.125,0.523-0.2,1.065-0.217,1.623
	c-0.002,0.071,0.004,0.141,0.004,0.212c-1.404,12.708-2.131,25.525-2.131,38.33c0,53.067,18.513,103.814,52.128,142.892
	c16.349,19.006,35.253,33.989,56.19,44.535c21.89,11.026,44.9,16.617,68.392,16.617c23.492,0,46.505-5.59,68.399-16.615
	c20.942-10.545,39.853-25.527,56.208-44.53c33.632-39.08,52.155-89.829,52.155-142.898
	C409.736,249.159,409.009,236.349,407.607,223.648z M393.736,261.956c0,19.666-2.751,38.738-7.8,56.722H80.062
	c-5.048-17.983-7.797-37.056-7.797-56.722c0-9.819,0.443-19.642,1.309-29.41c5.91,1.327,9.894,3.974,14.591,7.108
	c7.525,5.022,16.055,10.714,32.517,10.714c16.463,0,24.992-5.692,32.518-10.714c6.717-4.482,12.022-8.022,23.637-8.022
	c11.615,0,16.921,3.54,23.638,8.022c7.526,5.022,16.056,10.714,32.519,10.714s24.993-5.691,32.518-10.714
	c6.717-4.482,12.022-8.022,23.637-8.022c11.617,0,16.923,3.54,23.642,8.022c7.526,5.022,16.057,10.714,32.521,10.714
	c16.464,0,24.995-5.691,32.521-10.713c4.698-3.135,8.684-5.782,14.596-7.109C393.293,242.314,393.736,252.137,393.736,261.956z
	 M92.515,147.322h280.964c8.072,21.929,13.868,45.328,17.141,69.271c-9.764,1.83-16.021,5.983-21.669,9.752
	c-6.718,4.482-12.024,8.022-23.641,8.022s-16.923-3.54-23.642-8.022c-7.526-5.022-16.057-10.714-32.521-10.714
	c-16.463,0-24.993,5.691-32.518,10.714c-6.717,4.482-12.022,8.022-23.637,8.022s-16.92-3.54-23.638-8.022
	c-7.526-5.022-16.056-10.714-32.519-10.714c-16.463,0-24.992,5.692-32.518,10.714c-6.717,4.482-12.022,8.022-23.637,8.022
	s-16.919-3.54-23.636-8.022c-5.647-3.769-11.903-7.922-21.665-9.752C78.651,192.65,84.445,169.251,92.515,147.322z M122.425,88.088
	C153.286,42.275,193.584,16,232.987,16c39.405,0,79.708,26.275,110.576,72.089c8.94,13.269,16.81,27.8,23.509,43.233H98.921
	C105.618,115.888,113.487,101.356,122.425,88.088z M232.974,450c-65.225,0-122.869-48.277-147.721-115.322h295.489
	C355.883,401.723,298.221,450,232.974,450z"/>
<g>
</g>
<g>
</g>
<g>
</g>
<g>
</g>
<g>
</g>
<g>
</g>
<g>
</g>
<g>
</g>
<g>
</g>
<g>
</g>
<g>
</g>
<g>
</g>
<g>
</g>
<g>
</g>
<g>
</g>
</svg>
