<?xml version="1.0" encoding="iso-8859-1"?>
<!-- Generator: Adobe Illustrator 17.1.0, SVG Export Plug-In . SVG Version: 6.00 Build 0)  -->
<!DOCTYPE svg PUBLIC "-//W3C//DTD SVG 1.1//EN" "http://www.w3.org/Graphics/SVG/1.1/DTD/svg11.dtd">
<svg version="1.1" id="Capa_1" xmlns="http://www.w3.org/2000/svg" xmlns:xlink="http://www.w3.org/1999/xlink" x="0px" y="0px"
	 viewBox="0 0 466 466" style="enable-background:new 0 0 466 466;" xml:space="preserve">
<path d="M418.604,161.909c0-37.064-30.153-67.218-67.218-67.218c-25.559,0-47.828,14.342-59.193,35.398
	c-10.164-18.833-29.055-32.275-51.218-34.909V72.859c13.094,7.115,27.949,10.956,42.971,10.957c0.002,0,0.003,0,0.004,0
	c8.1,0,16.209-1.096,24.104-3.257c27.458-7.519,49.271-26.8,59.843-52.899c1.354-3.344,0.304-7.179-2.564-9.365
	C349.857,6.497,330.56,0,310.991,0c-8.102,0-16.212,1.096-24.104,3.257c-18.404,5.04-34.265,15.37-45.912,29.49V18.098
	c0-4.418-3.582-8-8-8c-4.418,0-8,3.582-8,8v77.089c-22.141,2.648-41.011,16.084-51.167,34.902
	c-11.365-21.056-33.633-35.397-59.192-35.397c-37.064,0-67.218,30.153-67.218,67.218s30.154,67.219,67.218,67.219
	c6.703,0,13.175-0.999,19.289-2.834c-16.557,12.255-27.314,31.918-27.314,54.052c0,37.064,30.154,67.218,67.218,67.218
	c6.704,0,13.176-0.999,19.29-2.834c-16.557,12.255-27.315,31.919-27.315,54.053C165.782,435.847,195.936,466,233,466
	s67.218-30.153,67.218-67.218c0-22.134-10.758-41.798-27.315-54.053c6.114,1.835,12.586,2.834,19.289,2.834
	c37.064,0,67.219-30.153,67.219-67.218c0-22.134-10.758-41.797-27.315-54.052c6.114,1.835,12.586,2.834,19.29,2.834
	C388.45,229.128,418.604,198.974,418.604,161.909z M291.111,18.688c6.517-1.784,13.205-2.688,19.88-2.688
	c13.961,0,27.748,4.019,39.452,11.413c-9.396,18.507-26.084,32.093-46.616,37.715c-6.518,1.784-13.205,2.688-19.878,2.688
	c-0.001,0-0.002,0-0.003,0c-13.961,0-27.749-4.02-39.45-11.412C253.893,37.896,270.58,24.311,291.111,18.688z M351.386,110.691
	c28.241,0,51.218,22.977,51.218,51.218c0,28.242-22.977,51.219-51.218,51.219c-27.907,0-50.656-22.438-51.193-50.218
	c0.005-0.334,0.025-0.665,0.025-1s-0.021-0.666-0.025-1C300.729,133.129,323.479,110.691,351.386,110.691z M233,110.691
	c27.906,0,50.655,22.438,51.192,50.217c-0.005,0.334-0.025,0.665-0.025,1s0.021,0.666,0.025,1
	c-0.537,27.781-23.287,50.218-51.192,50.218c-27.906,0-50.656-22.438-51.193-50.218c0.005-0.334,0.025-0.665,0.025-1
	s-0.021-0.666-0.025-1C182.344,133.129,205.094,110.691,233,110.691z M252.289,226.294c-7.95,5.885-14.563,13.476-19.289,22.231
	c-4.726-8.756-11.339-16.347-19.289-22.231c6.114,1.835,12.586,2.834,19.289,2.834C239.703,229.128,246.175,228.129,252.289,226.294
	z M63.396,161.909c0-28.241,22.977-51.218,51.218-51.218c27.906,0,50.655,22.438,51.192,50.217c-0.005,0.334-0.025,0.665-0.025,1
	s0.021,0.666,0.025,1c-0.537,27.781-23.286,50.218-51.192,50.218C86.373,213.128,63.396,190.151,63.396,161.909z M173.807,193.729
	c4.726,8.756,11.339,16.348,19.29,22.233c-6.114-1.835-12.586-2.834-19.29-2.834s-13.176,0.999-19.29,2.834
	C162.468,210.077,169.081,202.486,173.807,193.729z M122.589,280.346c0-28.241,22.976-51.218,51.218-51.218
	c27.906,0,50.656,22.438,51.193,50.217c-0.005,0.334-0.025,0.665-0.025,1s0.021,0.666,0.025,1
	c-0.537,27.78-23.287,50.217-51.193,50.217C145.565,331.563,122.589,308.587,122.589,280.346z M284.218,398.782
	C284.218,427.023,261.241,450,233,450c-28.242,0-51.218-22.977-51.218-51.218c0-28.242,22.977-51.219,51.218-51.219
	C261.241,347.563,284.218,370.54,284.218,398.782z M233,331.563c-6.703,0-13.175,0.999-19.289,2.834
	c7.95-5.885,14.563-13.476,19.289-22.231c4.726,8.756,11.338,16.347,19.289,22.231C246.175,332.563,239.703,331.563,233,331.563z
	 M343.411,280.346c0,28.241-22.977,51.218-51.219,51.218c-27.906,0-50.655-22.438-51.192-50.217c0.005-0.334,0.025-0.665,0.025-1
	s-0.021-0.666-0.025-1c0.537-27.78,23.287-50.217,51.192-50.217C320.435,229.128,343.411,252.104,343.411,280.346z M292.192,213.128
	c-6.703,0-13.176,0.999-19.289,2.834c7.951-5.885,14.563-13.477,19.289-22.233c4.726,8.756,11.339,16.348,19.29,22.233
	C305.369,214.127,298.896,213.128,292.192,213.128z"/>
<g>
</g>
<g>
</g>
<g>
</g>
<g>
</g>
<g>
</g>
<g>
</g>
<g>
</g>
<g>
</g>
<g>
</g>
<g>
</g>
<g>
</g>
<g>
</g>
<g>
</g>
<g>
</g>
<g>
</g>
</svg>
