<?xml version="1.0" encoding="iso-8859-1"?>
<!-- Generator: Adobe Illustrator 17.1.0, SVG Export Plug-In . SVG Version: 6.00 Build 0)  -->
<!DOCTYPE svg PUBLIC "-//W3C//DTD SVG 1.1//EN" "http://www.w3.org/Graphics/SVG/1.1/DTD/svg11.dtd">
<svg version="1.1" id="Capa_1" xmlns="http://www.w3.org/2000/svg" xmlns:xlink="http://www.w3.org/1999/xlink" x="0px" y="0px"
	 viewBox="0 0 466 466" style="enable-background:new 0 0 466 466;" xml:space="preserve">
<path d="M381.06,107.417H269.139V88.209h46.921c4.418,0,8-3.582,8-8v-37c0-4.418-3.582-8-8-8h-46.921V8c0-4.418-3.582-8-8-8h-56.277
	c-4.418,0-8,3.582-8,8v27.209H149.94c-4.418,0-8,3.582-8,8v37c0,4.418,3.582,8,8,8h46.921v19.208H84.94c-4.418,0-8,3.582-8,8v56.278
	c0,4.418,3.582,8,8,8h111.921v162.888H149.94c-4.418,0-8,3.582-8,8v37c0,4.418,3.582,8,8,8h46.921V458c0,4.418,3.582,8,8,8h56.277
	c4.418,0,8-3.582,8-8v-62.417h46.921c4.418,0,8-3.582,8-8v-37c0-4.418-3.582-8-8-8h-46.921V179.695H381.06c4.418,0,8-3.582,8-8
	v-56.278C389.06,110.999,385.478,107.417,381.06,107.417z M373.06,163.695H261.139c-4.418,0-8,3.582-8,8v178.888
	c0,4.418,3.582,8,8,8h46.921v21h-46.921c-4.418,0-8,3.582-8,8V450h-40.277v-62.417c0-4.418-3.582-8-8-8H157.94v-21h46.921
	c4.418,0,8-3.582,8-8V171.695c0-4.418-3.582-8-8-8H92.94v-40.278h111.921c4.418,0,8-3.582,8-8V80.209c0-4.418-3.582-8-8-8H157.94
	v-21h46.921c4.418,0,8-3.582,8-8V16h40.277v27.209c0,4.418,3.582,8,8,8h46.921v21h-46.921c-4.418,0-8,3.582-8,8v35.208
	c0,4.418,3.582,8,8,8H373.06V163.695z"/>
<g>
</g>
<g>
</g>
<g>
</g>
<g>
</g>
<g>
</g>
<g>
</g>
<g>
</g>
<g>
</g>
<g>
</g>
<g>
</g>
<g>
</g>
<g>
</g>
<g>
</g>
<g>
</g>
<g>
</g>
</svg>
