<?xml version="1.0" encoding="iso-8859-1"?>
<!-- Generator: Adobe Illustrator 17.1.0, SVG Export Plug-In . SVG Version: 6.00 Build 0)  -->
<!DOCTYPE svg PUBLIC "-//W3C//DTD SVG 1.1//EN" "http://www.w3.org/Graphics/SVG/1.1/DTD/svg11.dtd">
<svg version="1.1" id="Capa_1" xmlns="http://www.w3.org/2000/svg" xmlns:xlink="http://www.w3.org/1999/xlink" x="0px" y="0px"
	 viewBox="0 0 466.004 466.004" style="enable-background:new 0 0 466.004 466.004;" xml:space="preserve">
<g>
	<path d="M308.467,136.379c-0.005-0.017-0.008-0.034-0.014-0.051c-0.058-0.185-0.129-0.368-0.202-0.551
		c-0.027-0.068-0.049-0.137-0.078-0.204c-0.011-0.027-0.019-0.054-0.031-0.081c-13.095-29.809-42.589-49.069-75.141-49.069
		s-62.047,19.261-75.142,49.071c-0.012,0.028-0.02,0.056-0.032,0.084c-0.024,0.056-0.042,0.114-0.065,0.17
		c-0.396,0.99-0.583,2.014-0.574,3.024v59.404c0,0.076-0.002,0.152,0,0.228v96.333c0,0.018,0,0.035,0,0.053v84.843
		c0,0.031,0,0.062,0,0.093v46.855c0,4.418,3.582,8,8,8s8-3.582,8-8V390.38c19.428,5.183,39.499,7.815,59.816,7.815
		c20.314,0,40.382-2.632,59.809-7.813v36.197c0,4.418,3.582,8,8,8s8-3.582,8-8v-46.81c0-0.056,0.001-0.112,0-0.168V294.86
		c0-0.051,0.001-0.101,0-0.152v-96.339c0.001-0.035,0-0.07,0-0.106v-59.521C308.818,137.956,308.706,137.161,308.467,136.379z
		 M292.815,282.404c-18.853-7.803-39.29-11.898-59.812-11.898c-20.523,0-40.96,4.095-59.813,11.898V224.6
		c15.247,16.226,36.759,25.895,59.813,25.895c23.052,0,44.565-9.669,59.812-25.895V282.404z M292.815,196.464
		c-10.856,23.154-34.151,38.032-59.812,38.032c-25.663,0-48.958-14.877-59.813-38.032v-49.751h119.625V196.464z M233.002,102.423
		c21.854,0,41.989,10.79,54.19,28.29H178.812C191.013,113.213,211.148,102.423,233.002,102.423z M233.006,382.196
		c-20.365,0-40.456-2.836-59.816-8.418v-73.89c18.729-8.877,38.825-13.38,59.813-13.38c20.987,0,41.083,4.504,59.812,13.38v73.893
		C273.457,379.36,253.367,382.196,233.006,382.196z"/>
	<path d="M465.697,424.393c-0.682-2.399-68.88-241.41-132.953-373.463c-0.965-1.989-2.71-3.49-4.82-4.146
		c-2.016-0.627-49.885-15.361-94.922-15.361s-92.906,14.734-94.922,15.361c-2.11,0.657-3.855,2.158-4.82,4.146
		C69.187,182.983,0.988,421.995,0.307,424.393c-1.208,4.25,1.259,8.674,5.51,9.881c4.248,1.206,8.674-1.259,9.881-5.509
		c0.673-2.366,67.41-236.249,130.423-367.668c11.451-3.264,50.814-13.674,86.882-13.674s75.431,10.411,86.882,13.674
		c63.013,131.419,129.75,365.302,130.423,367.668c1,3.52,4.205,5.816,7.691,5.816c0.724,0,1.459-0.099,2.189-0.307
		C464.439,433.068,466.905,428.643,465.697,424.393z"/>
</g>
<g>
</g>
<g>
</g>
<g>
</g>
<g>
</g>
<g>
</g>
<g>
</g>
<g>
</g>
<g>
</g>
<g>
</g>
<g>
</g>
<g>
</g>
<g>
</g>
<g>
</g>
<g>
</g>
<g>
</g>
</svg>
