<?xml version="1.0" encoding="iso-8859-1"?>
<!-- Generator: Adobe Illustrator 17.1.0, SVG Export Plug-In . SVG Version: 6.00 Build 0)  -->
<!DOCTYPE svg PUBLIC "-//W3C//DTD SVG 1.1//EN" "http://www.w3.org/Graphics/SVG/1.1/DTD/svg11.dtd">
<svg version="1.1" id="Capa_1" xmlns="http://www.w3.org/2000/svg" xmlns:xlink="http://www.w3.org/1999/xlink" x="0px" y="0px"
	 viewBox="0 0 466 466" style="enable-background:new 0 0 466 466;" xml:space="preserve">
<g>
	<path d="M348.143,352.754c-0.41-0.573-0.889-1.092-1.432-1.538c-15.942-16.966-35.624-30.373-57.719-38.894
		c-0.394-0.188-0.804-0.347-1.231-0.469c-17.048-6.409-35.501-9.925-54.761-9.925s-37.713,3.516-54.761,9.925
		c-0.427,0.122-0.836,0.281-1.231,0.469c-22.095,8.521-41.777,21.928-57.719,38.894c-0.544,0.446-1.022,0.966-1.432,1.538
		C92.451,380.526,76.927,417.483,76.927,458c0,4.418,3.582,8,8,8s8-3.582,8-8c0-28.624,8.637-55.265,23.432-77.468V458
		c0,4.418,3.582,8,8,8s8-3.582,8-8v-97.319c11.485-11.873,25.04-21.731,40.085-28.974V458c0,4.418,3.582,8,8,8s8-3.582,8-8V325.195
		c14.003-4.71,28.986-7.267,44.556-7.267s30.553,2.557,44.556,7.267V458c0,4.418,3.582,8,8,8s8-3.582,8-8V331.707
		c15.045,7.243,28.6,17.101,40.085,28.974V458c0,4.418,3.582,8,8,8s8-3.582,8-8v-77.468c14.795,22.203,23.432,48.844,23.432,77.468
		c0,4.418,3.582,8,8,8s8-3.582,8-8C389.073,417.483,373.55,380.526,348.143,352.754z"/>
	<path d="M159.712,163.008c-5.727,11.379-8.748,24.046-8.748,36.871c0,45.235,36.801,82.037,82.036,82.037
		s82.036-36.801,82.036-82.037c0-12.825-3.021-25.492-8.748-36.872l27.267-78.379c0.917-2.637,0.394-5.562-1.382-7.716
		c-1.869-2.268-46.346-55.781-96.124-76.308c-1.953-0.806-4.146-0.806-6.1,0c-49.778,20.527-94.255,74.041-96.124,76.308
		c-1.775,2.155-2.299,5.08-1.382,7.716L159.712,163.008z M233,265.916c-36.413,0-66.036-29.624-66.036-66.037
		c0-9.779,2.176-19.439,6.316-28.208h119.44c4.14,8.768,6.316,18.428,6.316,28.208C299.036,236.292,269.413,265.916,233,265.916z
		 M259.914,32.12c26.94,18.59,49.289,42.815,57.016,51.603l-11.87,34.12h-45.146V32.12z M222.086,125.844V22.154
		c3.602-1.986,7.246-3.82,10.915-5.451c3.668,1.631,7.312,3.465,10.914,5.453v103.687c0,4.418,3.582,8,8,8h47.58l-7.594,21.829
		H174.1l-7.594-21.829h47.58C218.504,133.844,222.086,130.262,222.086,125.844z M206.086,32.113v85.731H160.94l-11.871-34.123
		C156.79,74.931,179.122,50.709,206.086,32.113z"/>
</g>
<g>
</g>
<g>
</g>
<g>
</g>
<g>
</g>
<g>
</g>
<g>
</g>
<g>
</g>
<g>
</g>
<g>
</g>
<g>
</g>
<g>
</g>
<g>
</g>
<g>
</g>
<g>
</g>
<g>
</g>
</svg>
