<?xml version="1.0" encoding="iso-8859-1"?>
<!-- Generator: Adobe Illustrator 17.1.0, SVG Export Plug-In . SVG Version: 6.00 Build 0)  -->
<!DOCTYPE svg PUBLIC "-//W3C//DTD SVG 1.1//EN" "http://www.w3.org/Graphics/SVG/1.1/DTD/svg11.dtd">
<svg version="1.1" id="Capa_1" xmlns="http://www.w3.org/2000/svg" xmlns:xlink="http://www.w3.org/1999/xlink" x="0px" y="0px"
	 viewBox="0 0 466 466" style="enable-background:new 0 0 466 466;" xml:space="preserve">
<g>
	<path d="M139.758,83.574c0.304,4.211,3.814,7.424,7.971,7.424c0.193,0,0.389-0.007,0.584-0.021
		c4.407-0.318,7.721-4.149,7.403-8.556c-1.065-14.745-3.261-27.644-6.911-40.592c-1.198-4.253-5.62-6.728-9.87-5.529
		c-4.253,1.199-6.729,5.618-5.529,9.87C136.755,58.051,138.774,69.936,139.758,83.574z"/>
	<path d="M156.503,109.162c0.014-4.418-3.556-8.011-7.974-8.026c-0.009,0-0.018,0-0.026,0c-4.406,0-7.985,3.564-8,7.974
		c-0.024,7.426-0.192,15.067-0.369,23.163c-0.228,10.37-0.462,21.094-0.462,33.233c0,32.599,15.18,53.336,27.915,64.992
		c1.535,1.405,3.47,2.099,5.399,2.099c2.166,0,4.325-0.875,5.903-2.599c2.983-3.259,2.759-8.319-0.5-11.303
		c-10.363-9.486-22.717-26.414-22.717-53.189c0-11.964,0.233-22.599,0.458-32.889C156.31,124.451,156.479,116.737,156.503,109.162z"
		/>
	<path d="M392.944,0H73.056c-4.418,0-8,3.582-8,8s3.582,8,8,8h8.283c24.4,42.481,23.827,68.81,22.804,115.483
		c-0.221,10.081-0.471,21.505-0.471,34.022c0,35.655,14.066,68.167,39.607,91.547c17.487,16.007,39.019,26.803,62.365,31.544
		c-0.144,9.56-0.343,18.105-0.564,24.298c-12.23,8.894-19.666,23.276-19.666,38.524c0,11.526,4.251,22.711,11.795,31.342
		c-9.043,39.33-22.882,43.139-38.824,47.528c-11.713,3.225-24.989,6.879-34.914,23.633c-1.465,2.473-1.491,5.542-0.068,8.039
		c1.423,2.497,4.077,4.039,6.951,4.039h205.294c2.874,0,5.527-1.542,6.951-4.039c1.423-2.497,1.397-5.565-0.068-8.039
		c-9.925-16.753-23.201-20.408-34.914-23.633c-15.942-4.389-29.781-8.198-38.824-47.528c7.544-8.63,11.795-19.815,11.795-31.342
		c0-15.249-7.436-29.63-19.666-38.524c-0.222-6.193-0.421-14.738-0.564-24.298c23.345-4.742,44.877-15.537,62.365-31.544
		c25.541-23.38,39.607-55.892,39.607-91.547c0-12.517-0.25-23.942-0.471-34.022C360.834,84.81,360.262,58.481,384.661,16h8.283
		c4.418,0,8-3.582,8-8S397.363,0,392.944,0z M245.103,317.687c0.125,2.695,1.601,5.146,3.924,6.517
		c9.598,5.667,15.56,16.096,15.56,27.216c0,8.816-3.55,17-9.996,23.042c-0.027,0.025-0.048,0.054-0.075,0.08
		c-5.862,5.458-13.497,8.465-21.516,8.465c-4.418,0-8,3.582-8,8s3.582,8,8,8c7.775,0,15.307-1.884,22.047-5.413
		c11.685,42.034,31.857,47.589,48.322,52.122c4.625,1.273,8.822,2.429,12.638,4.284H149.993c3.815-1.855,8.012-3.011,12.638-4.284
		c17.879-4.922,40.13-11.048,51.138-63.782c0.57-2.731-0.324-5.563-2.359-7.471c-6.446-6.043-9.996-14.227-9.996-23.042
		c0-11.12,5.962-21.548,15.56-27.216c2.323-1.372,3.799-3.822,3.924-6.517c0.352-7.56,0.579-18.488,0.712-26.826
		c3.768,0.31,7.567,0.475,11.391,0.475s7.623-0.165,11.391-0.475C244.524,299.199,244.751,310.127,245.103,317.687z
		 M345.861,131.834c0.219,9.998,0.468,21.33,0.468,33.671c0,68.749-57.621,109.83-113.329,109.83s-113.329-41.082-113.329-109.83
		c0-12.342,0.249-23.673,0.468-33.671c0.99-45.154,1.605-73.947-20.536-115.834h266.795
		C344.256,57.888,344.871,86.681,345.861,131.834z"/>
</g>
<g>
</g>
<g>
</g>
<g>
</g>
<g>
</g>
<g>
</g>
<g>
</g>
<g>
</g>
<g>
</g>
<g>
</g>
<g>
</g>
<g>
</g>
<g>
</g>
<g>
</g>
<g>
</g>
<g>
</g>
</svg>
