<?xml version="1.0" encoding="iso-8859-1"?>
<!-- Generator: Adobe Illustrator 17.1.0, SVG Export Plug-In . SVG Version: 6.00 Build 0)  -->
<!DOCTYPE svg PUBLIC "-//W3C//DTD SVG 1.1//EN" "http://www.w3.org/Graphics/SVG/1.1/DTD/svg11.dtd">
<svg version="1.1" id="Capa_1" xmlns="http://www.w3.org/2000/svg" xmlns:xlink="http://www.w3.org/1999/xlink" x="0px" y="0px"
	 viewBox="0 0 466 466" style="enable-background:new 0 0 466 466;" xml:space="preserve">
<g>
	<path d="M350.565,263.463c-10.547-18.423-25.388-34.214-43.097-45.904v-49.758c0-38.549-29.445-70.348-67.025-74.095V72.859
		c13.094,7.115,27.949,10.956,42.971,10.957c0.001,0,0.002,0,0.004,0c8.1,0,16.209-1.096,24.103-3.257
		c27.458-7.519,49.27-26.8,59.843-52.899c1.354-3.343,0.304-7.179-2.564-9.365C349.328,6.497,330.029,0,310.461,0
		c-8.102,0-16.212,1.096-24.105,3.257c-18.404,5.04-34.265,15.369-45.912,29.489V18.098c0-4.418-3.582-8-8-8s-8,3.582-8,8V93.84
		c-37.045,4.259-65.913,35.794-65.913,73.961v49.758c-17.709,11.69-32.549,27.481-43.097,45.904
		c-11.652,20.354-17.812,43.577-17.812,67.16C97.623,405.271,158.353,466,233,466s135.377-60.729,135.377-135.377
		C368.377,307.04,362.218,283.816,350.565,263.463z M290.581,18.688c6.517-1.784,13.206-2.688,19.88-2.688
		c13.961,0,27.748,4.019,39.451,11.413c-9.396,18.507-26.084,32.093-46.616,37.715c-6.518,1.784-13.205,2.688-19.878,2.688
		c0,0-0.002,0-0.003,0c-13.961,0-27.749-4.02-39.451-11.412C253.361,37.896,270.049,24.311,290.581,18.688z M233,450
		c-65.825,0-119.377-53.552-119.377-119.377c0-41.866,21.342-79.942,57.089-101.854c2.373-1.454,3.819-4.037,3.819-6.82v-54.148
		c0-32.239,26.229-58.468,58.469-58.468s58.469,26.229,58.469,58.468v54.148c0,2.783,1.446,5.366,3.819,6.82
		c35.747,21.911,57.089,59.987,57.089,101.854C352.377,396.448,298.825,450,233,450z"/>
	<path d="M233,414c-45.974,0-83.377-37.402-83.377-83.377c0-4.418-3.582-8-8-8s-8,3.582-8,8C133.623,385.42,178.203,430,233,430
		c4.418,0,8-3.582,8-8S237.418,414,233,414z"/>
	<path d="M233,129.332c-21.212,0-38.469,17.257-38.469,38.469c0,4.418,3.582,8,8,8s8-3.582,8-8c0-12.39,10.08-22.469,22.469-22.469
		c4.418,0,8-3.582,8-8S237.418,129.332,233,129.332z"/>
</g>
<g>
</g>
<g>
</g>
<g>
</g>
<g>
</g>
<g>
</g>
<g>
</g>
<g>
</g>
<g>
</g>
<g>
</g>
<g>
</g>
<g>
</g>
<g>
</g>
<g>
</g>
<g>
</g>
<g>
</g>
</svg>
