<?xml version="1.0" encoding="iso-8859-1"?>
<!-- Generator: Adobe Illustrator 17.1.0, SVG Export Plug-In . SVG Version: 6.00 Build 0)  -->
<!DOCTYPE svg PUBLIC "-//W3C//DTD SVG 1.1//EN" "http://www.w3.org/Graphics/SVG/1.1/DTD/svg11.dtd">
<svg version="1.1" id="Capa_1" xmlns="http://www.w3.org/2000/svg" xmlns:xlink="http://www.w3.org/1999/xlink" x="0px" y="0px"
	 viewBox="0 0 466 466" style="enable-background:new 0 0 466 466;" xml:space="preserve">
<path d="M378.548,97.417h-34.976h-50.945V8c0-4.418-3.582-8-8-8h-34.976h-68.278c-4.418,0-8,3.582-8,8v89.417H87.452
	c-4.418,0-8,3.582-8,8v68.278c0,4.418,3.582,8,8,8h85.921V458c0,4.418,3.582,8,8,8h68.278h34.976c4.418,0,8-3.582,8-8V181.695
	h50.945h34.976c4.418,0,8-3.582,8-8v-68.278C386.548,100.999,382.966,97.417,378.548,97.417z M276.627,97.417h-18.976V16h18.976
	V97.417z M276.627,450h-18.976V181.695h18.976V450z M284.627,165.695h-34.976c-4.418,0-8,3.582-8,8V450h-52.278V173.695
	c0-4.418-3.582-8-8-8H95.452v-52.278h85.921c4.418,0,8-3.582,8-8V16h52.278v89.417c0,4.418,3.582,8,8,8h34.976h50.945v52.278
	H284.627z M370.548,165.695h-18.976v-52.278h18.976V165.695z"/>
<g>
</g>
<g>
</g>
<g>
</g>
<g>
</g>
<g>
</g>
<g>
</g>
<g>
</g>
<g>
</g>
<g>
</g>
<g>
</g>
<g>
</g>
<g>
</g>
<g>
</g>
<g>
</g>
<g>
</g>
</svg>
