<?xml version="1.0" encoding="iso-8859-1"?>
<!-- Generator: Adobe Illustrator 17.1.0, SVG Export Plug-In . SVG Version: 6.00 Build 0)  -->
<!DOCTYPE svg PUBLIC "-//W3C//DTD SVG 1.1//EN" "http://www.w3.org/Graphics/SVG/1.1/DTD/svg11.dtd">
<svg version="1.1" id="Capa_1" xmlns="http://www.w3.org/2000/svg" xmlns:xlink="http://www.w3.org/1999/xlink" x="0px" y="0px"
	 viewBox="0 0 466 466" style="enable-background:new 0 0 466 466;" xml:space="preserve">
<g>
	<path d="M233,85.702c33.336,0,59.448-16.267,59.448-37.033S266.336,11.635,233,11.635s-59.448,16.267-59.448,37.033
		S199.664,85.702,233,85.702z M233,27.635c25.604,0,43.448,11.085,43.448,21.033S258.604,69.702,233,69.702
		s-43.448-11.085-43.448-21.033S207.396,27.635,233,27.635z"/>
	<path d="M458,28.162h-21.208c-55.813,0-101.221,45.407-101.221,101.221v199.449c-15.709-13.727-34.185-24.357-54.469-30.944
		c-0.368-0.154-0.745-0.271-1.125-0.366c-14.833-4.692-30.613-7.229-46.977-7.229c-16.366,0-32.148,2.538-46.982,7.231
		c-0.377,0.095-0.752,0.211-1.118,0.364c-20.285,6.587-38.761,17.218-54.471,30.945V129.382
		c0-55.813-45.407-101.221-101.221-101.221H8c-4.418,0-8,3.582-8,8v273.592c0,4.418,3.582,8,8,8h40.879
		c1.734,33.38,14.325,62.502,35.3,81.568c-4.705,14.852-7.251,30.656-7.251,47.044c0,4.418,3.582,8,8,8s8-3.582,8-8
		c0-60.295,38.294-111.813,91.839-131.513l41.592,61.937c1.486,2.212,3.977,3.54,6.642,3.54s5.155-1.328,6.642-3.54l41.592-61.937
		c53.544,19.7,91.839,71.218,91.839,131.513c0,4.418,3.582,8,8,8s8-3.582,8-8c0-16.388-2.546-32.192-7.251-47.043
		c20.974-19.066,33.566-48.189,35.3-81.568H458c4.418,0,8-3.582,8-8V36.162C466,31.743,462.418,28.162,458,28.162z M64.673,309.753
		c0-4.418-3.582-8-8-8H16v-38.607h40.673c4.418,0,8-3.582,8-8s-3.582-8-8-8H16v-38.607h40.673c4.418,0,8-3.582,8-8s-3.582-8-8-8H16
		v-38.607h40.673c4.418,0,8-3.582,8-8s-3.582-8-8-8H16V99.324h40.673c4.418,0,8-3.582,8-8s-3.582-8-8-8H16V44.162h13.208
		c46.991,0,85.221,38.23,85.221,85.221v215.615c-9.733,11.368-17.863,24.146-24.037,37.983
		C73.936,365.345,64.673,339.301,64.673,309.753z M233,357.979l-32.197-47.946c10.342-2.442,21.12-3.74,32.197-3.74
		s21.855,1.298,32.197,3.74L233,357.979z M409.327,301.753c-4.418,0-8,3.582-8,8c0,29.547-9.262,55.591-25.719,73.227
		c-6.174-13.837-14.303-26.615-24.037-37.983V129.382c0-46.991,38.229-85.221,85.221-85.221H450v39.162h-40.673
		c-4.418,0-8,3.582-8,8s3.582,8,8,8H450v38.607h-40.673c-4.418,0-8,3.582-8,8s3.582,8,8,8H450v38.607h-40.673c-4.418,0-8,3.582-8,8
		s3.582,8,8,8H450v38.607h-40.673c-4.418,0-8,3.582-8,8s3.582,8,8,8H450v38.607H409.327z"/>
	<path d="M233,270.281c45.235,0,82.036-36.801,82.036-82.037c0-45.235-36.801-82.036-82.036-82.036s-82.036,36.801-82.036,82.036
		C150.964,233.479,187.765,270.281,233,270.281z M233,122.208c36.412,0,66.036,29.624,66.036,66.036S269.412,254.281,233,254.281
		s-66.036-29.624-66.036-66.037S196.588,122.208,233,122.208z"/>
</g>
<g>
</g>
<g>
</g>
<g>
</g>
<g>
</g>
<g>
</g>
<g>
</g>
<g>
</g>
<g>
</g>
<g>
</g>
<g>
</g>
<g>
</g>
<g>
</g>
<g>
</g>
<g>
</g>
<g>
</g>
</svg>
