<?xml version="1.0" encoding="iso-8859-1"?>
<!-- Generator: Adobe Illustrator 17.1.0, SVG Export Plug-In . SVG Version: 6.00 Build 0)  -->
<!DOCTYPE svg PUBLIC "-//W3C//DTD SVG 1.1//EN" "http://www.w3.org/Graphics/SVG/1.1/DTD/svg11.dtd">
<svg version="1.1" id="Capa_1" xmlns="http://www.w3.org/2000/svg" xmlns:xlink="http://www.w3.org/1999/xlink" x="0px" y="0px"
	 viewBox="0 0 466.001 466.001" style="enable-background:new 0 0 466.001 466.001;" xml:space="preserve">
<g>
	<path d="M261.206,42.21c-4.687,0-8.5,3.813-8.5,8.5s3.813,8.5,8.5,8.5s8.5-3.813,8.5-8.5S265.893,42.21,261.206,42.21z"/>
	<path d="M458.001,45.966H297.41c-2.398-17.923-17.777-31.794-36.345-31.794c-20.226,0-36.68,16.454-36.68,36.68v164.505
		L4.061,340.04c-3.845,2.177-5.199,7.058-3.022,10.903c1.472,2.601,4.181,4.062,6.97,4.061c1.335,0,2.688-0.334,3.933-1.038
		l33.51-18.964c18.227,28.307,45.84,48.681,78.547,57.749c12.17,3.373,24.541,5.043,36.835,5.043c2.361,0,4.719-0.078,7.072-0.201
		l-7.211,38.235h-3.779c-4.418,0-8,3.582-8,8s3.582,8,8,8h10.399c0.007,0,0.014,0.001,0.021,0.001c0.007,0,0.015-0.001,0.022-0.001
		h98.441c4.418,0,8-3.582,8-8s-3.582-8-8-8h-88.823l7.571-40.144c15.12-2.69,29.838-7.946,43.599-15.733
		c20.83-11.788,38.257-28.839,50.397-49.311c11.641-19.631,18.249-42.027,19.133-64.824c0.045-0.345,0.069-0.697,0.069-1.055
		V154.447c16.914,12.453,37.561,19.369,58.818,19.369c54.604,0,99.027-44.424,99.027-99.027c0-4.418-3.582-8-8-8H297.745v-4.822
		h160.256c4.418,0,8-3.582,8-8S462.42,45.966,458.001,45.966z M439.208,82.788c-4.039,42.041-39.563,75.027-82.645,75.027
		c-22.039,0-43.296-8.864-58.818-24.412v-14.407c0-4.418-3.582-8-8-8s-8,3.582-8,8v16.942c-0.037,0.445-0.038,0.891,0,1.336V264
		c-0.016,0.164-0.026,0.331-0.032,0.498c-1.403,42.594-24.374,80.549-61.447,101.528c-13.511,7.646-28.065,12.54-42.992,14.614
		c-0.439,0.025-0.872,0.08-1.294,0.175c-15.766,2.016-31.928,0.89-47.707-3.484c-28.587-7.924-52.769-25.629-68.871-50.225
		l176.923-100.123c2.509-1.42,4.06-4.08,4.06-6.963V50.852c0-11.402,9.277-20.68,20.68-20.68c11.403,0,20.68,9.277,20.68,20.68
		v23.937c0,4.418,3.582,8,8,8H439.208z"/>
</g>
<g>
</g>
<g>
</g>
<g>
</g>
<g>
</g>
<g>
</g>
<g>
</g>
<g>
</g>
<g>
</g>
<g>
</g>
<g>
</g>
<g>
</g>
<g>
</g>
<g>
</g>
<g>
</g>
<g>
</g>
</svg>
