<?xml version="1.0" encoding="iso-8859-1"?>
<!-- Generator: Adobe Illustrator 17.1.0, SVG Export Plug-In . SVG Version: 6.00 Build 0)  -->
<!DOCTYPE svg PUBLIC "-//W3C//DTD SVG 1.1//EN" "http://www.w3.org/Graphics/SVG/1.1/DTD/svg11.dtd">
<svg version="1.1" id="Capa_1" xmlns="http://www.w3.org/2000/svg" xmlns:xlink="http://www.w3.org/1999/xlink" x="0px" y="0px"
	 viewBox="0 0 466 466" style="enable-background:new 0 0 466 466;" xml:space="preserve">
<g>
	<path d="M422.263,281.185l-106.525-32.454v-85.729c0-2.496-1.165-4.849-3.15-6.362L241,102.074V46.192h14.787c4.418,0,8-3.582,8-8
		s-3.582-8-8-8H241V8c0-4.418-3.582-8-8-8c-4.418,0-8,3.582-8,8v22.192h-14.787c-4.418,0-8,3.582-8,8s3.582,8,8,8H225v55.882
		l-71.587,54.567c-1.985,1.513-3.15,3.866-3.15,6.362v85.729L43.737,281.185c-3.367,1.026-5.668,4.133-5.668,7.653V458
		c0,4.418,3.582,8,8,8h373.863c4.418,0,8-3.582,8-8V288.838C427.932,285.318,425.631,282.211,422.263,281.185z M263.559,354.972
		h-61.117v-4.787c0-16.85,13.708-30.559,30.559-30.559c16.85,0,30.559,13.708,30.559,30.559V354.972z M202.441,370.972h61.117V450
		h-61.117V370.972z M411.932,450H279.559v-99.814c0-25.672-20.886-46.559-46.559-46.559c-25.672,0-46.559,20.886-46.559,46.559V450
		H54.068V294.764l106.525-32.454c3.367-1.026,5.668-4.132,5.668-7.653v-87.693L233,116.094l66.737,50.87v87.693
		c0,3.521,2.301,6.627,5.669,7.653l106.525,32.454V450z"/>
	<path d="M233,171.372c-4.418,0-8,3.582-8,8v58.917c0,4.418,3.582,8,8,8c4.418,0,8-3.582,8-8v-58.917
		C241,174.953,237.418,171.372,233,171.372z"/>
</g>
<g>
</g>
<g>
</g>
<g>
</g>
<g>
</g>
<g>
</g>
<g>
</g>
<g>
</g>
<g>
</g>
<g>
</g>
<g>
</g>
<g>
</g>
<g>
</g>
<g>
</g>
<g>
</g>
<g>
</g>
</svg>
