<?xml version="1.0" encoding="iso-8859-1"?>
<!-- Generator: Adobe Illustrator 19.0.0, SVG Export Plug-In . SVG Version: 6.00 Build 0)  -->
<svg version="1.1" id="Capa_1" xmlns="http://www.w3.org/2000/svg" xmlns:xlink="http://www.w3.org/1999/xlink" x="0px" y="0px"
	 viewBox="0 0 60.01 60.01" style="enable-background:new 0 0 60.01 60.01;" xml:space="preserve">
<g>
	<path d="M24,23.775c-6.01,0-11.407,1.688-16.499,5.159C7.188,29.147,7,29.503,7,29.885s0.188,0.738,0.501,0.952
		C12.594,34.308,17.99,35.996,24,35.996c6.278,0,12.247-1.828,17.262-5.287l1.193-0.823l-1.193-0.823
		C36.247,25.603,30.278,23.775,24,23.775z M24,33.996c-5.175,0-9.865-1.346-14.298-4.11c4.433-2.764,9.124-4.11,14.298-4.11
		c5.349,0,10.455,1.417,14.86,4.11C34.455,32.579,29.349,33.996,24,33.996z"/>
	<path d="M51.485,29.996l7.775-7.775c0.484-0.483,0.75-1.126,0.75-1.811s-0.266-1.327-0.75-1.811l-2.432-2.432
		c-0.756-0.756-2.072-0.756-2.828,0l-9.251,9.251c-5.936-4.288-13.272-6.64-20.76-6.64c-8.957,0-16.603,3.161-23.374,9.663
		C0.225,28.816,0,29.343,0,29.885s0.225,1.069,0.615,1.443c6.773,6.503,14.42,9.665,23.376,9.665c7.43,0,14.72-2.319,20.631-6.547
		L54,43.824c0.378,0.378,0.88,0.586,1.414,0.586s1.036-0.208,1.414-0.586l2.432-2.432c0.484-0.483,0.75-1.126,0.75-1.811
		s-0.266-1.327-0.75-1.811L51.485,29.996z M55.415,42.41l-9.985-9.985c-0.194-0.194-0.45-0.293-0.708-0.293
		c-0.211,0-0.423,0.066-0.602,0.202c-5.686,4.294-12.833,6.659-20.128,6.659c-8.415,0-15.609-2.979-21.991-9.108
		c6.381-6.127,13.574-9.106,21.989-9.106c7.346,0,14.533,2.395,20.24,6.744c0.403,0.307,0.966,0.279,1.324-0.08l9.861-9.861
		l2.828,2.828l-8.878,8.879c-0.39,0.391-0.39,1.024,0,1.414l8.878,8.879L55.415,42.41z"/>
</g>
<g>
</g>
<g>
</g>
<g>
</g>
<g>
</g>
<g>
</g>
<g>
</g>
<g>
</g>
<g>
</g>
<g>
</g>
<g>
</g>
<g>
</g>
<g>
</g>
<g>
</g>
<g>
</g>
<g>
</g>
</svg>
