<?xml version="1.0" encoding="iso-8859-1"?>
<!-- Generator: Adobe Illustrator 17.1.0, SVG Export Plug-In . SVG Version: 6.00 Build 0)  -->
<!DOCTYPE svg PUBLIC "-//W3C//DTD SVG 1.1//EN" "http://www.w3.org/Graphics/SVG/1.1/DTD/svg11.dtd">
<svg version="1.1" id="Capa_1" xmlns="http://www.w3.org/2000/svg" xmlns:xlink="http://www.w3.org/1999/xlink" x="0px" y="0px"
	 viewBox="0 0 466 466" style="enable-background:new 0 0 466 466;" xml:space="preserve">
<path d="M399.156,191.681c-0.241-4.042-3.466-7.267-7.508-7.508c-2.216-0.133-4.476-0.2-6.718-0.2
	c-33.799,0-68.124,14.94-94.175,40.991c-27.131,27.132-41.924,62.381-40.948,97.242L241,331.015V224.313
	c15.891-1.403,30.882-6.985,43.496-16.147c0.098-0.066,0.194-0.136,0.289-0.207c2.463-1.805,4.845-3.731,7.113-5.807
	c16.816-15.394,26.078-36.786,26.078-60.238c0-7.974-0.159-15.239-0.3-21.65c-0.657-29.966-1.019-46.474,15.504-74.181
	c1.475-2.473,1.507-5.546,0.085-8.049c-1.421-2.503-4.078-4.049-6.956-4.049h-38.981c-3.407-8.635-10.755-24.813-20.462-32.314
	c-1.4-1.083-3.121-1.67-4.892-1.67h-57.949c-1.771,0-3.491,0.587-4.892,1.67c-9.708,7.501-17.055,23.68-20.462,32.314H153.73
	c-3.029-0.189-6.08-0.297-9.156-0.297c-0.74,0-1.454,0.109-2.135,0.297h-2.749c-2.878,0-5.535,1.546-6.956,4.049
	c-1.422,2.503-1.39,5.576,0.085,8.049c16.522,27.707,16.161,44.215,15.504,74.181c-0.141,6.411-0.3,13.677-0.3,21.65
	c0,23.452,9.262,44.845,26.078,60.238c13.937,12.757,31.774,20.474,50.898,22.162v106.701l-8.808-8.808
	c0.977-34.862-13.817-70.111-40.948-97.242c-26.051-26.051-60.376-40.991-94.175-40.991c-2.242,0-4.502,0.067-6.718,0.2
	c-4.042,0.241-7.267,3.466-7.508,7.508c-2.156,36.039,12.712,72.813,40.791,100.893c26.05,26.05,60.376,40.99,94.177,40.991
	c0.001,0,0.002,0,0.002,0c1.019,0,2.041-0.018,3.062-0.046L225,353.644v60.466h-6.487c-4.418,0-8,3.582-8,8s3.582,8,8,8H225V458
	c0,4.418,3.582,8,8,8s8-3.582,8-8v-63.78h6.487c4.418,0,8-3.582,8-8s-3.582-8-8-8H241v-24.576l20.125-20.125
	c1.021,0.028,2.044,0.046,3.063,0.046c33.801,0,68.127-14.941,94.178-40.991C386.444,264.493,401.313,227.72,399.156,191.681z
	 M301.681,120.613c0.139,6.329,0.296,13.501,0.296,21.3c0,15.16-4.631,28.093-12.133,38.437c0.004-0.459,0.014-0.919,0.014-1.378
	c0-56.039-31.895-104.762-78.482-128.987h70.357c0.008,0,0.017,0.002,0.025,0.002c0.008,0,0.016-0.002,0.024-0.002h31.097
	C300.683,75.142,301.096,93.956,301.681,120.613z M207.072,16h51.855c3.955,4.077,7.935,11.231,11.015,17.984h-73.886
	C199.137,27.232,203.117,20.077,207.072,16z M164.023,141.913c0-7.799,0.157-14.971,0.296-21.3
	c0.585-26.657,0.998-45.472-11.198-70.629h0.114c67.263,4.472,120.622,60.611,120.622,128.987c0,5.952-0.431,11.912-1.236,17.777
	c-11.761,7.76-25.787,11.921-39.622,11.921C199.094,208.67,164.023,183.699,164.023,141.913z M82.66,199.985
	c29.075,0.466,58.611,13.634,81.27,36.293c22.556,22.556,35.797,52.452,36.289,81.273c-29.077-0.466-58.612-13.635-81.27-36.293
	C96.393,258.703,83.151,228.806,82.66,199.985z M347.051,281.259c-22.658,22.659-52.192,35.827-81.27,36.293
	c0.492-28.821,13.733-58.718,36.289-81.273c22.658-22.659,52.194-35.827,81.27-36.293
	C382.849,228.806,369.607,258.703,347.051,281.259z"/>
<g>
</g>
<g>
</g>
<g>
</g>
<g>
</g>
<g>
</g>
<g>
</g>
<g>
</g>
<g>
</g>
<g>
</g>
<g>
</g>
<g>
</g>
<g>
</g>
<g>
</g>
<g>
</g>
<g>
</g>
</svg>
