<?xml version="1.0" encoding="iso-8859-1"?>
<!-- Generator: Adobe Illustrator 17.1.0, SVG Export Plug-In . SVG Version: 6.00 Build 0)  -->
<!DOCTYPE svg PUBLIC "-//W3C//DTD SVG 1.1//EN" "http://www.w3.org/Graphics/SVG/1.1/DTD/svg11.dtd">
<svg version="1.1" id="Capa_1" xmlns="http://www.w3.org/2000/svg" xmlns:xlink="http://www.w3.org/1999/xlink" x="0px" y="0px"
	 viewBox="0 0 466.002 466.002" style="enable-background:new 0 0 466.002 466.002;" xml:space="preserve">
<g>
	<path d="M465.518,211.075c-21.848-59.958-98.393-94.938-113.76-101.441c-3.127-4.95-11.064-16.001-25.408-26.931
		c-17.116-13.041-47.205-28.586-93.348-28.586s-76.232,15.545-93.348,28.586c-14.344,10.929-22.281,21.981-25.408,26.931
		c-15.367,6.503-91.913,41.484-113.76,101.441c-1.344,3.689,0.188,7.81,3.617,9.724c8.941,4.993,21.15,7.856,33.496,7.856
		c15.595,0,30.646-4.555,43.525-13.173c8.411-5.628,15.892-12.922,22.387-21.81c3.109,90.059,20.334,108.601,34.435,123.777
		c5.053,5.438,9.043,9.734,12.075,17.063c13.18,31.865,24.208,50.348,36.874,61.802c15.173,13.721,31.823,15.571,46.108,15.571
		s30.936-1.85,46.108-15.571c12.666-11.454,23.694-29.937,36.874-61.802c3.032-7.329,7.022-11.625,12.075-17.063
		c14.101-15.177,31.325-33.719,34.435-123.778c6.495,8.887,13.975,16.18,22.387,21.809c12.879,8.618,27.93,13.174,43.525,13.175
		c0.002,0,0.004,0,0.006,0c12.342,0,24.549-2.863,33.49-7.856C465.33,218.884,466.862,214.764,465.518,211.075z M428.411,212.654
		c-0.001,0-0.003,0-0.004,0c-16.759-0.001-47.62-6.803-66.002-52.343c-1.434-3.551-5.182-5.588-8.944-4.858
		c-3.76,0.73-6.475,4.023-6.475,7.853c0,110.264-16.994,128.555-30.649,143.252c-5.411,5.824-11.005,11.846-15.139,21.839
		c-25.161,60.831-40.815,67.488-68.197,67.488s-43.036-6.658-68.197-67.488c-4.133-9.993-9.728-16.015-15.139-21.839
		c-13.655-14.697-30.649-32.988-30.649-143.252c0-3.83-2.715-7.123-6.475-7.853c-0.512-0.1-1.023-0.148-1.529-0.148
		c-3.208,0-6.176,1.938-7.415,5.006c-18.383,45.543-49.243,52.343-66.001,52.343c-8.214,0-14.721-1.5-19.215-3.027
		c25.147-54.303,103.493-85.847,104.312-86.17c1.786-0.705,3.258-2.028,4.149-3.729c0.26-0.496,26.909-49.611,106.158-49.611
		c33.091,0,61.002,8.34,82.957,24.788c16.366,12.261,23.151,24.729,23.201,24.823c0.89,1.698,2.363,3.022,4.146,3.728
		c0.822,0.325,79.186,31.874,104.324,86.189C441.93,211.568,435.158,212.654,428.411,212.654z"/>
	<path d="M177.963,204.183l-38.173-11.314c-4.236-1.259-8.688,1.16-9.944,5.396s1.161,8.688,5.397,9.943l32.446,9.617v29.433
		c0,4.418,3.582,8,8,8s8-3.582,8-8v-35.405C183.69,208.311,181.359,205.19,177.963,204.183z"/>
	<path d="M326.212,192.869l-38.173,11.314c-3.396,1.006-5.727,4.127-5.727,7.67v35.405c0,4.418,3.582,8,8,8s8-3.582,8-8v-29.433
		l32.446-9.617c4.236-1.255,6.652-5.707,5.397-9.943C334.9,194.029,330.448,191.611,326.212,192.869z"/>
	<path d="M252.872,301.661l-19.871,12.928l-19.871-12.928c-3.704-2.409-8.659-1.361-11.068,2.343
		c-2.41,3.704-1.36,8.659,2.343,11.068l20.597,13.4v19.479h-11.855c-4.418,0-8,3.582-8,8s3.582,8,8,8h39.71c4.418,0,8-3.582,8-8
		s-3.582-8-8-8h-11.855v-19.479l20.597-13.4c3.703-2.409,4.752-7.365,2.343-11.068C261.531,300.3,256.576,299.252,252.872,301.661z"
		/>
	<path d="M293.381,141.008c7.792,3.719,16.327,5.66,25.047,5.66c4.418,0,8-3.582,8-8s-3.582-8-8-8
		c-8.091,0-15.962-2.304-22.763-6.664c-3.567-2.287-8.298-1.396-10.79,2.032c-12.045,16.574-31.438,26.468-51.875,26.468
		s-39.83-9.895-51.875-26.468c-2.492-3.428-7.223-4.318-10.79-2.032c-6.8,4.36-14.671,6.664-22.763,6.664c-4.418,0-8,3.582-8,8
		s3.582,8,8,8c8.72,0,17.255-1.941,25.047-5.66c15.134,17.333,37.218,27.496,60.38,27.496S278.247,158.341,293.381,141.008z"/>
</g>
<g>
</g>
<g>
</g>
<g>
</g>
<g>
</g>
<g>
</g>
<g>
</g>
<g>
</g>
<g>
</g>
<g>
</g>
<g>
</g>
<g>
</g>
<g>
</g>
<g>
</g>
<g>
</g>
<g>
</g>
</svg>
