<?xml version="1.0" encoding="iso-8859-1"?>
<!-- Generator: Adobe Illustrator 17.1.0, SVG Export Plug-In . SVG Version: 6.00 Build 0)  -->
<!DOCTYPE svg PUBLIC "-//W3C//DTD SVG 1.1//EN" "http://www.w3.org/Graphics/SVG/1.1/DTD/svg11.dtd">
<svg version="1.1" id="Capa_1" xmlns="http://www.w3.org/2000/svg" xmlns:xlink="http://www.w3.org/1999/xlink" x="0px" y="0px"
	 viewBox="0 0 466 466" style="enable-background:new 0 0 466 466;" xml:space="preserve">
<path d="M433.048,292.414c-20.875-35.124-50.677-64.523-86.184-85.018c-3.829-2.21-8.72-0.896-10.928,2.93
	c-2.209,3.826-0.897,8.719,2.93,10.928c66.169,38.193,108.145,107.761,110.98,183.007c-99.805-3.644-184.841-73.942-207.109-171.045
	c43.647-3.252,84.213-22.066,115.086-53.588c33.169-33.866,51.436-78.627,51.436-126.037c0-4.418-3.582-8-8-8
	c-40.426,0-80.274,13.738-112.206,38.684c-19.909,15.554-36.273,35.062-48.054,56.92V93.591c0-4.418-3.582-8-8-8s-8,3.582-8,8
	v47.604c-11.781-21.858-28.145-41.366-48.054-56.92c-31.932-24.945-71.78-38.684-112.206-38.684c-4.418,0-8,3.582-8,8
	c0,47.41,18.267,92.171,51.436,126.037c30.874,31.522,71.439,50.336,115.086,53.588c-22.268,97.103-107.304,167.4-207.109,171.045
	c2.836-75.246,44.812-144.813,110.98-183.007c3.827-2.209,5.139-7.102,2.93-10.928c-2.208-3.826-7.099-5.138-10.928-2.93
	c-35.507,20.494-65.309,49.894-86.184,85.018C11.395,328.686,0,370.179,0,412.409c0,4.418,3.582,8,8,8
	c95.677,0,179.985-57.174,217-141.677v36.954c0,4.418,3.582,8,8,8s8-3.582,8-8v-36.954c37.015,84.503,121.323,141.677,217,141.677
	c4.418,0,8-3.582,8-8C466,370.179,454.605,328.686,433.048,292.414z M393.054,61.789C388.909,143.902,322.966,211.349,241,217.3
	v-32.679C259.009,114.765,320.74,65.287,393.054,61.789z M72.946,61.789C145.26,65.287,206.991,114.765,225,184.621V217.3
	C143.034,211.349,77.091,143.902,72.946,61.789z"/>
<g>
</g>
<g>
</g>
<g>
</g>
<g>
</g>
<g>
</g>
<g>
</g>
<g>
</g>
<g>
</g>
<g>
</g>
<g>
</g>
<g>
</g>
<g>
</g>
<g>
</g>
<g>
</g>
<g>
</g>
</svg>
