<?xml version="1.0" encoding="iso-8859-1"?>
<!-- Generator: Adobe Illustrator 17.1.0, SVG Export Plug-In . SVG Version: 6.00 Build 0)  -->
<!DOCTYPE svg PUBLIC "-//W3C//DTD SVG 1.1//EN" "http://www.w3.org/Graphics/SVG/1.1/DTD/svg11.dtd">
<svg version="1.1" id="Capa_1" xmlns="http://www.w3.org/2000/svg" xmlns:xlink="http://www.w3.org/1999/xlink" x="0px" y="0px"
	 viewBox="0 0 466 466" style="enable-background:new 0 0 466 466;" xml:space="preserve">
<g>
	<path d="M423.814,259.755c-0.003-0.202-0.016-0.405-0.035-0.608c-0.008-0.092-0.013-0.183-0.024-0.274
		c-0.024-0.195-0.062-0.389-0.101-0.584c-0.019-0.093-0.031-0.186-0.053-0.278c-0.004-0.016-0.005-0.032-0.009-0.048
		c-0.062-0.251-0.136-0.496-0.219-0.735c-0.004-0.013-0.007-0.026-0.011-0.039c-0.098-0.277-0.211-0.544-0.336-0.803
		c-0.023-0.048-0.052-0.094-0.076-0.142c-0.105-0.207-0.216-0.41-0.338-0.606c-0.044-0.071-0.093-0.138-0.139-0.208
		c-0.111-0.166-0.225-0.329-0.347-0.485c-0.062-0.079-0.127-0.156-0.191-0.232c-0.117-0.139-0.239-0.274-0.365-0.404
		c-0.077-0.079-0.154-0.157-0.234-0.234c-0.128-0.121-0.26-0.236-0.395-0.349c-0.061-0.051-0.115-0.108-0.178-0.157
		c-0.027-0.021-0.056-0.037-0.083-0.058c-0.15-0.115-0.306-0.22-0.464-0.323c-0.08-0.053-0.157-0.111-0.239-0.161
		c-0.23-0.14-0.467-0.266-0.709-0.383c-0.1-0.048-0.203-0.086-0.305-0.13c-0.158-0.068-0.317-0.135-0.48-0.193
		c-0.107-0.038-0.216-0.069-0.324-0.102c-0.165-0.051-0.331-0.098-0.5-0.138c-0.105-0.025-0.21-0.047-0.316-0.067
		c-0.179-0.035-0.359-0.063-0.54-0.085c-0.099-0.012-0.198-0.025-0.298-0.033c-0.193-0.017-0.387-0.023-0.582-0.026
		c-0.092-0.001-0.183-0.005-0.275-0.003c-0.209,0.005-0.42,0.022-0.631,0.043c-0.078,0.008-0.156,0.01-0.234,0.021
		c-0.286,0.038-0.573,0.089-0.86,0.159l-84.919,20.743c-4.292,1.048-6.922,5.378-5.873,9.67c0.893,3.654,4.164,6.104,7.765,6.104
		c0.629,0,1.268-0.075,1.905-0.23l27.516-6.721c-12.857,36.13-57.03,76.132-94.874,93.116l-5.775-168.373h26.751
		c13.19,0,23.922-10.731,23.922-23.922c0-13.19-10.731-23.922-23.922-23.922h-28.546l-1.16-30.384
		c25.505-9.625,42.818-34.245,42.818-61.951C299.529,29.705,269.824,0,233.312,0c-36.512,0-66.217,29.705-66.217,66.217
		c0,27.386,17.065,51.913,42.204,61.707l-1.17,30.627h-28.546c-13.19,0-23.922,10.731-23.922,23.922
		c0,13.191,10.731,23.922,23.922,23.922h26.751l-5.776,168.373c-37.844-16.984-82.016-56.986-94.873-93.116l27.516,6.721
		c0.638,0.156,1.276,0.23,1.905,0.23c3.601,0,6.872-2.449,7.765-6.104c1.049-4.292-1.581-8.622-5.873-9.67l-84.919-20.743
		c-0.288-0.07-0.575-0.121-0.862-0.159c-0.073-0.01-0.146-0.012-0.219-0.019c-0.217-0.023-0.434-0.04-0.65-0.045
		c-0.084-0.002-0.168,0.002-0.252,0.003c-0.205,0.002-0.408,0.01-0.611,0.027c-0.089,0.008-0.177,0.019-0.266,0.03
		c-0.196,0.024-0.389,0.054-0.582,0.092c-0.092,0.018-0.183,0.037-0.274,0.058c-0.188,0.044-0.373,0.096-0.556,0.153
		c-0.09,0.028-0.18,0.054-0.27,0.085c-0.192,0.067-0.379,0.145-0.565,0.227c-0.074,0.032-0.15,0.06-0.223,0.095
		c-0.252,0.12-0.498,0.251-0.736,0.397c-0.055,0.033-0.106,0.073-0.16,0.108c-0.185,0.119-0.366,0.242-0.54,0.376
		c-0.023,0.018-0.049,0.032-0.073,0.051c-0.056,0.044-0.104,0.095-0.159,0.14c-0.145,0.12-0.287,0.243-0.424,0.374
		c-0.074,0.07-0.145,0.142-0.216,0.215c-0.132,0.136-0.26,0.278-0.382,0.424c-0.061,0.072-0.121,0.143-0.179,0.217
		c-0.126,0.161-0.244,0.329-0.358,0.501c-0.043,0.065-0.089,0.129-0.131,0.195c-0.124,0.2-0.238,0.407-0.345,0.619
		c-0.022,0.044-0.048,0.086-0.07,0.13c-0.125,0.26-0.239,0.528-0.337,0.805c-0.004,0.012-0.007,0.024-0.011,0.036
		c-0.083,0.24-0.159,0.485-0.22,0.738c-0.004,0.016-0.005,0.032-0.009,0.048c-0.022,0.092-0.035,0.186-0.053,0.278
		c-0.039,0.195-0.077,0.39-0.101,0.584c-0.011,0.091-0.016,0.183-0.024,0.274c-0.019,0.204-0.032,0.406-0.035,0.608
		c0,0.035-0.006,0.07-0.006,0.105c0,58.088,38.776,106.06,71.306,136.074c40.791,37.637,88.398,62.179,117.485,69.805
		c0.665,0.174,1.348,0.262,2.029,0.262s1.364-0.087,2.029-0.262c29.087-7.625,76.694-32.167,117.485-69.805
		c32.529-30.014,71.306-77.986,71.306-136.074C423.82,259.825,423.815,259.79,423.814,259.755z M341.665,384.175
		c-37.814,34.89-81.337,57.819-108.665,65.534c-27.328-7.715-70.851-30.644-108.665-65.534c-28.177-26-61.407-66.226-65.692-114.012
		l29.117,7.114c4.944,21.677,20.262,45.769,43.654,68.473c22.663,21.997,50.38,40.021,74.142,48.213
		c2.399,0.828,5.049,0.467,7.14-0.971s3.376-3.782,3.463-6.318l6.185-180.278h0.384c4.418,0,8-3.582,8-8s-3.582-8-8-8h-8.114h-35.03
		c-4.368,0-7.922-3.554-7.922-7.922s3.554-7.922,7.922-7.922h36.246c4.3,0,7.83-3.398,7.994-7.695l1.692-44.303
		c0.142-3.695-2.269-7.005-5.828-8.006c-21.545-6.061-36.593-25.935-36.593-48.331c0-27.69,22.527-50.217,50.217-50.217
		c27.69,0,50.218,22.527,50.218,50.217c0,22.659-15.267,42.595-37.124,48.482c-3.603,0.97-6.057,4.302-5.914,8.03l1.686,44.127
		c0.164,4.296,3.694,7.695,7.994,7.695h36.246c4.368,0,7.922,3.554,7.922,7.922s-3.554,7.922-7.922,7.922h-35.03
		c-2.169,0-4.246,0.881-5.753,2.441c-1.508,1.56-2.316,3.666-2.242,5.833l6.449,188.003c0.087,2.536,1.372,4.88,3.463,6.318
		s4.739,1.798,7.14,0.971c23.762-8.193,51.479-26.216,74.143-48.213c23.393-22.704,38.71-46.795,43.654-68.473l29.117-7.114
		C403.072,317.949,369.842,358.175,341.665,384.175z"/>
	<path d="M268.534,66.217c0-19.421-15.801-35.222-35.223-35.222c-19.421,0-35.222,15.801-35.222,35.222s15.801,35.222,35.222,35.222
		C252.733,101.439,268.534,85.639,268.534,66.217z M233.312,85.439c-10.599,0-19.222-8.623-19.222-19.222
		c0-10.599,8.623-19.222,19.222-19.222c10.6,0,19.223,8.623,19.223,19.222C252.534,76.816,243.911,85.439,233.312,85.439z"/>
</g>
<g>
</g>
<g>
</g>
<g>
</g>
<g>
</g>
<g>
</g>
<g>
</g>
<g>
</g>
<g>
</g>
<g>
</g>
<g>
</g>
<g>
</g>
<g>
</g>
<g>
</g>
<g>
</g>
<g>
</g>
</svg>
