<?xml version="1.0" encoding="iso-8859-1"?>
<!-- Generator: Adobe Illustrator 17.1.0, SVG Export Plug-In . SVG Version: 6.00 Build 0)  -->
<!DOCTYPE svg PUBLIC "-//W3C//DTD SVG 1.1//EN" "http://www.w3.org/Graphics/SVG/1.1/DTD/svg11.dtd">
<svg version="1.1" id="Capa_1" xmlns="http://www.w3.org/2000/svg" xmlns:xlink="http://www.w3.org/1999/xlink" x="0px" y="0px"
	 viewBox="0 0 466 466" style="enable-background:new 0 0 466 466;" xml:space="preserve">
<path d="M463.479,201.41c-1.609-1.512-3.772-2.29-5.974-2.155l-120.098,7.447c-1.795-7.123-4.297-13.968-7.436-20.451l53.259-30.749
	c3.826-2.21,5.137-7.103,2.928-10.929c-2.209-3.825-7.103-5.135-10.928-2.929l-53.285,30.764
	c-7.601-11.124-17.232-20.753-28.355-28.355l30.764-53.285c2.209-3.826,0.898-8.719-2.928-10.928
	c-3.826-2.211-8.719-0.898-10.928,2.928l-30.749,53.259c-6.483-3.138-13.328-5.641-20.451-7.436l7.448-120.098
	c0.136-2.203-0.644-4.365-2.156-5.974C263.079,0.912,260.969,0,258.761,0h-51.522c-2.208,0-4.317,0.912-5.829,2.521
	c-1.512,1.608-2.292,3.771-2.156,5.974l7.448,120.098c-7.123,1.795-13.968,4.297-20.451,7.436L155.502,82.77
	c-2.209-3.825-7.102-5.136-10.928-2.928c-3.826,2.209-5.137,7.102-2.928,10.928l30.764,53.285
	c-11.123,7.602-20.754,17.231-28.355,28.355L90.77,141.646c-3.827-2.207-8.72-0.897-10.928,2.929
	c-2.209,3.826-0.898,8.719,2.928,10.929l53.259,30.749c-3.138,6.483-5.641,13.328-7.436,20.451L8.495,199.255
	c-2.198-0.135-4.365,0.644-5.974,2.155S0,205.031,0,207.239v51.521c0,2.208,0.912,4.317,2.521,5.829
	c1.488,1.398,3.449,2.171,5.479,2.171c0.165,0,0.33-0.005,0.496-0.016l120.098-7.447c1.795,7.123,4.297,13.968,7.436,20.451
	L82.77,310.497c-3.826,2.21-5.137,7.103-2.928,10.929c1.482,2.566,4.171,4.001,6.936,4.001c1.357,0,2.733-0.346,3.993-1.072
	l53.285-30.764c7.601,11.124,17.232,20.753,28.355,28.355l-30.764,53.285c-2.209,3.826-0.898,8.719,2.928,10.928
	c1.26,0.728,2.635,1.073,3.993,1.073c2.765,0,5.454-1.435,6.936-4.001l30.749-53.259c6.483,3.138,13.328,5.641,20.451,7.436
	l-7.448,120.098c-0.136,2.203,0.644,4.365,2.156,5.974c1.512,1.609,3.622,2.521,5.829,2.521h51.522c2.208,0,4.317-0.912,5.829-2.521
	c1.512-1.608,2.292-3.771,2.156-5.974l-7.448-120.098c7.123-1.795,13.968-4.297,20.451-7.436l30.749,53.259
	c1.482,2.566,4.171,4.001,6.936,4.001c1.357,0,2.733-0.346,3.993-1.073c3.826-2.209,5.137-7.102,2.928-10.928l-30.764-53.285
	c11.123-7.602,20.754-17.231,28.355-28.355l53.285,30.764c1.26,0.727,2.635,1.072,3.993,1.072c2.765,0,5.454-1.435,6.936-4.001
	c2.209-3.826,0.898-8.719-2.928-10.929l-53.259-30.749c3.138-6.483,5.641-13.328,7.436-20.451l120.098,7.447
	c0.166,0.011,0.331,0.016,0.496,0.016c2.029,0,3.991-0.772,5.479-2.171c1.609-1.512,2.521-3.621,2.521-5.829v-51.521
	C466,205.031,465.088,202.922,463.479,201.41z M215.75,16h34.499l-6.813,109.846c-3.435-0.332-6.916-0.507-10.437-0.507
	s-7.002,0.175-10.437,0.507L215.75,16z M16,250.249v-34.498l109.846,6.811c-0.332,3.436-0.508,6.917-0.508,10.438
	s0.175,7.002,0.508,10.438L16,250.249z M250.25,450H215.75l6.813-109.846c3.435,0.332,6.916,0.507,10.437,0.507
	s7.002-0.175,10.437-0.507L250.25,450z M233,324.661c-50.542,0-91.661-41.119-91.661-91.661s41.119-91.661,91.661-91.661
	s91.661,41.119,91.661,91.661S283.542,324.661,233,324.661z M450,250.249l-109.846-6.811c0.332-3.436,0.508-6.917,0.508-10.438
	s-0.175-7.002-0.508-10.438L450,215.751V250.249z"/>
<g>
</g>
<g>
</g>
<g>
</g>
<g>
</g>
<g>
</g>
<g>
</g>
<g>
</g>
<g>
</g>
<g>
</g>
<g>
</g>
<g>
</g>
<g>
</g>
<g>
</g>
<g>
</g>
<g>
</g>
</svg>
