<?xml version="1.0" encoding="iso-8859-1"?>
<!-- Generator: Adobe Illustrator 17.1.0, SVG Export Plug-In . SVG Version: 6.00 Build 0)  -->
<!DOCTYPE svg PUBLIC "-//W3C//DTD SVG 1.1//EN" "http://www.w3.org/Graphics/SVG/1.1/DTD/svg11.dtd">
<svg version="1.1" id="Capa_1" xmlns="http://www.w3.org/2000/svg" xmlns:xlink="http://www.w3.org/1999/xlink" x="0px" y="0px"
	 viewBox="0 0 466 466" style="enable-background:new 0 0 466 466;" xml:space="preserve">
<g>
	<path d="M413.59,141.516c0.012-0.103,0.018-0.207,0.026-0.311c0.012-0.156,0.021-0.312,0.023-0.469
		c0.001-0.048,0.007-0.095,0.007-0.143c0-0.055-0.007-0.108-0.008-0.162c-0.003-0.155-0.011-0.309-0.023-0.463
		c-0.008-0.107-0.017-0.214-0.029-0.319c-0.017-0.139-0.04-0.276-0.063-0.414c-0.02-0.115-0.037-0.231-0.062-0.344
		c-0.026-0.119-0.06-0.236-0.091-0.354c-0.033-0.125-0.063-0.251-0.102-0.374c-0.019-0.059-0.044-0.117-0.064-0.175
		c-0.106-0.309-0.232-0.608-0.374-0.899c-0.037-0.076-0.069-0.155-0.109-0.23l-0.023-0.044c-0.01-0.018-0.019-0.036-0.029-0.054
		L342.721,4.265C341.336,1.642,338.614,0,335.647,0h-70H130.353c-2.967,0-5.689,1.642-7.074,4.265l-70,132.594
		c-0.885,1.675-1.146,3.608-0.738,5.458l70,317.406c0.809,3.666,4.059,6.277,7.813,6.277h135.294h70
		c3.754,0,7.004-2.611,7.813-6.277l70-317.406c0.003-0.014,0.004-0.029,0.007-0.043c0.023-0.108,0.039-0.219,0.057-0.329
		C413.549,141.803,413.573,141.66,413.59,141.516z M392.377,132.594h-51.907L278.916,16h51.907L392.377,132.594z M68.797,141.735
		L135.176,16h125.647l66.379,125.735L259.219,450H136.781L68.797,141.735z M329.219,450h-53.615l66.471-301.406h53.615L329.219,450z
		"/>
	<path d="M238.811,134.594H206V88.522c0-4.418-3.582-8-8-8s-8,3.582-8,8v46.072H157.19c-4.418,0-8,3.582-8,8s3.582,8,8,8H190
		v113.503c0,4.418,3.582,8,8,8s8-3.582,8-8V150.594h32.811c4.418,0,8-3.582,8-8S243.229,134.594,238.811,134.594z"/>
</g>
<g>
</g>
<g>
</g>
<g>
</g>
<g>
</g>
<g>
</g>
<g>
</g>
<g>
</g>
<g>
</g>
<g>
</g>
<g>
</g>
<g>
</g>
<g>
</g>
<g>
</g>
<g>
</g>
<g>
</g>
</svg>
