<?xml version="1.0" encoding="iso-8859-1"?>
<!-- Generator: Adobe Illustrator 19.0.0, SVG Export Plug-In . SVG Version: 6.00 Build 0)  -->
<svg version="1.1" id="Capa_1" xmlns="http://www.w3.org/2000/svg" xmlns:xlink="http://www.w3.org/1999/xlink" x="0px" y="0px"
	 viewBox="0 0 60 60" style="enable-background:new 0 0 60 60;" xml:space="preserve">
<g>
	<path d="M15.021,20.5H9v6H4v6.021l5-0.018v14.985l6.018,0.068V32.515L20,32.497V26.5h-4.997L15.021,20.5z M18,28.5v2.003
		l-4.982,0.018v15.013L11,45.511V30.497l-5,0.018V28.5h5v-6h2.015l-0.018,6H18z"/>
	<path d="M59.292,29.544L24,18.76V2.5c0-0.386-0.223-0.738-0.572-0.904c-0.35-0.166-0.763-0.115-1.062,0.13l-22,18
		C0.135,19.916,0,20.2,0,20.5v37c0,0.552,0.448,1,1,1h22h4h7h4h7h4h6h4c0.552,0,1-0.448,1-1v-27
		C60,30.06,59.713,29.672,59.292,29.544z M2,20.974L22,4.61V19.5v37H2V20.974z M29,56.5v-16h3v16H29z M40,56.5v-22h3v22H40z
		 M51,56.5v-16h2v16H51z M58,56.5h-3v-18h-6v18h-4v-24h-7v24h-4v-18h-7v18h-3V20.851L58,31.24V56.5z"/>
</g>
<g>
</g>
<g>
</g>
<g>
</g>
<g>
</g>
<g>
</g>
<g>
</g>
<g>
</g>
<g>
</g>
<g>
</g>
<g>
</g>
<g>
</g>
<g>
</g>
<g>
</g>
<g>
</g>
<g>
</g>
</svg>
