<?xml version="1.0" encoding="iso-8859-1"?>
<!-- Generator: Adobe Illustrator 19.0.0, SVG Export Plug-In . SVG Version: 6.00 Build 0)  -->
<svg version="1.1" id="Capa_1" xmlns="http://www.w3.org/2000/svg" xmlns:xlink="http://www.w3.org/1999/xlink" x="0px" y="0px"
	 viewBox="0 0 59.969 59.969" style="enable-background:new 0 0 59.969 59.969;" xml:space="preserve">
<g>
	<path d="M18.018,32.485v-8.985L23,23.481v-5.997h-4.996l0.018-4H12v4H7v6.021l5-0.018v8.997H18.018z M9,21.499v-2.015h5v-4h2.014
		l-0.018,4H21v2.003l-4.982,0.018v8.979H14v-9.003L9,21.499z"/>
	<path d="M57.479,23.59c-4.68-4.68-14.402-2.568-21.672,4.702c-7.271,7.271-9.381,16.994-4.702,21.672
		c1.666,1.667,3.972,2.525,6.677,2.525c1.079,0,2.221-0.137,3.411-0.413c4.006-0.93,8.12-3.35,11.583-6.813
		C60.049,37.991,62.158,28.269,57.479,23.59z M51.363,43.848c-3.203,3.203-6.975,5.433-10.622,6.279
		c-3.477,0.807-6.397,0.248-8.222-1.578c-2.769-2.769-2.495-7.835,0.215-12.865c0.002,0,0.004,0.001,0.006,0
		c0.235-0.038,5.836-0.804,7.883,6.29c0.126,0.438,0.526,0.723,0.96,0.723c0.092,0,0.185-0.013,0.278-0.04
		c0.531-0.153,0.836-0.708,0.684-1.238c-1.842-6.382-6.265-7.572-8.607-7.737c0.693-1.03,1.492-2.042,2.383-3.022
		c0.123,0.034,0.254,0.046,0.389,0.029c0.263-0.035,6.475-0.732,8.93,6.336c0.144,0.413,0.531,0.672,0.945,0.672
		c0.109,0,0.22-0.018,0.328-0.056c0.521-0.182,0.798-0.751,0.616-1.273c-2.103-6.054-6.695-7.381-9.254-7.637
		c1.328-1.197,2.712-2.234,4.117-3.065c0.101,0.02,0.204,0.037,0.312,0.023c0.264-0.03,6.431-0.653,7.897,7.191
		c0.09,0.481,0.511,0.816,0.982,0.816c0.061,0,0.123-0.005,0.185-0.017c0.543-0.102,0.9-0.624,0.8-1.167
		c-1.064-5.691-4.312-7.74-6.842-8.46c1.757-0.661,3.471-1.008,5.037-1.008c2.123,0,3.977,0.631,5.303,1.957
		C59.964,28.903,57.854,37.357,51.363,43.848z"/>
	<path d="M18,44.652v-8.448c1.95-0.404,4.552-1.37,7.009-3.643C28.181,29.626,30,25.294,30,20.675V7.509
		c0-0.096-0.01-0.199-0.026-0.327C29.979,7.115,30,7.052,30,6.985c0-3.611-7.546-5.5-15-5.5S0,3.374,0,6.985
		c0,0.069,0.021,0.133,0.026,0.201C0.012,7.292,0,7.398,0,7.509v13.167c0,4.618,1.819,8.95,4.991,11.886
		c2.456,2.273,5.059,3.24,7.009,3.644v8.447C5.479,45.33,1,48.073,1,51.485c0,3.925,6.149,7,14,7s14-3.075,14-7
		C29,48.073,24.521,45.33,18,44.652z M15,3.485c7.815,0,13,2.106,13,3.5l0,0c-0.005,0.023-0.019,0.042-0.022,0.066
		c-0.038,0.268-0.245,0.556-0.606,0.847c-0.007,0.006-0.016,0.011-0.024,0.017c-0.101,0.08-0.218,0.161-0.342,0.241
		C25.148,9.324,20.801,10.485,15,10.485S4.852,9.324,2.995,8.155C2.87,8.075,2.754,7.995,2.652,7.914
		C2.645,7.909,2.636,7.903,2.629,7.897C2.267,7.606,2.06,7.319,2.022,7.05C2.019,7.028,2.006,7.012,2.001,6.99
		C2.001,6.989,2,6.986,2,6.985C2,5.591,7.185,3.485,15,3.485z M6.35,31.093C3.585,28.535,2,24.738,2,20.675L2.008,9.889
		C4,11.15,7.261,11.93,10.746,12.275c0.07,0.007,0.141,0.014,0.211,0.021c0.823,0.077,1.656,0.13,2.488,0.16
		c0.106,0.004,0.212,0.007,0.318,0.01c0.413,0.012,0.826,0.02,1.236,0.02c0.409,0,0.821-0.008,1.234-0.02
		c0.107-0.003,0.214-0.006,0.32-0.01c0.831-0.029,1.663-0.082,2.485-0.159c0.073-0.007,0.145-0.014,0.218-0.021
		c3.489-0.346,6.753-1.127,8.743-2.391v10.792c0,4.063-1.585,7.86-4.35,10.418c-3.995,3.697-8.523,3.386-8.564,3.382
		c-0.028-0.002-0.057-0.004-0.085-0.004s-0.056,0.001-0.083,0.003C14.872,34.478,10.344,34.791,6.35,31.093z M16,36.485v8.004v5.996
		h-2v-5.996v-8.004h0.478c0.06,0.001,0.112,0,0.164,0h0.72c0.024,0,0.041,0.001,0.066,0.001c0.019,0,0.044-0.001,0.064-0.001H16z
		 M15,56.485c-7.072,0-12-2.635-12-5c0-1.947,3.342-4.196,9-4.827v5.827h6v-5.827c5.658,0.631,9,2.88,9,4.827
		C27,53.849,22.072,56.485,15,56.485z"/>
</g>
<g>
</g>
<g>
</g>
<g>
</g>
<g>
</g>
<g>
</g>
<g>
</g>
<g>
</g>
<g>
</g>
<g>
</g>
<g>
</g>
<g>
</g>
<g>
</g>
<g>
</g>
<g>
</g>
<g>
</g>
</svg>
