<?xml version="1.0" encoding="iso-8859-1"?>
<!-- Generator: Adobe Illustrator 17.1.0, SVG Export Plug-In . SVG Version: 6.00 Build 0)  -->
<!DOCTYPE svg PUBLIC "-//W3C//DTD SVG 1.1//EN" "http://www.w3.org/Graphics/SVG/1.1/DTD/svg11.dtd">
<svg version="1.1" id="Capa_1" xmlns="http://www.w3.org/2000/svg" xmlns:xlink="http://www.w3.org/1999/xlink" x="0px" y="0px"
	 viewBox="0 0 466 466" style="enable-background:new 0 0 466 466;" xml:space="preserve">
<g>
	<path d="M361.06,181.695c4.418,0,8-3.582,8-8v-68.278c0-4.418-3.582-8-8-8h-85.921V8c0-4.418-3.582-8-8-8h-68.278
		c-4.418,0-8,3.582-8,8v89.417H104.94c-4.418,0-8,3.582-8,8v68.278c0,4.418,3.582,8,8,8h85.921v82.556l-18.456,23.286
		l-52.488-19.571c-2.455-0.915-5.204-0.57-7.358,0.925c-2.153,1.495-3.437,3.95-3.437,6.571v84.272h-2.729c-4.418,0-8,3.582-8,8
		s3.582,8,8,8h253.214c4.418,0,8-3.582,8-8s-3.582-8-8-8h-2.729v-84.272c0-2.621-1.284-5.076-3.437-6.571
		c-2.152-1.494-4.902-1.84-7.358-0.925l-52.488,19.571l-18.456-23.286v-82.556H361.06z M293.733,304.562l47.144-17.579v72.752
		H125.123v-72.752l47.144,17.579c3.249,1.21,6.911,0.191,9.064-2.527l23.674-29.871c0.031-0.038,0.061-0.077,0.091-0.115
		L233,236.841l27.904,35.208c0.031,0.038,0.06,0.078,0.091,0.115l23.674,29.871C286.823,304.752,290.482,305.771,293.733,304.562z
		 M239.27,218.992c-1.517-1.915-3.827-3.031-6.27-3.031s-4.752,1.116-6.27,3.031l-19.87,25.07v-70.367c0-4.418-3.582-8-8-8H112.94
		v-52.278h85.921c4.418,0,8-3.582,8-8V16h52.278v89.417c0,4.418,3.582,8,8,8h85.921v52.278h-85.921c-4.418,0-8,3.582-8,8v70.367
		L239.27,218.992z"/>
	<path d="M267.139,389.726c-4.418,0-8,3.582-8,8V450h-52.278v-52.274c0-4.418-3.582-8-8-8s-8,3.582-8,8V458c0,4.418,3.582,8,8,8
		h68.278c4.418,0,8-3.582,8-8v-60.274C275.139,393.308,271.558,389.726,267.139,389.726z"/>
</g>
<g>
</g>
<g>
</g>
<g>
</g>
<g>
</g>
<g>
</g>
<g>
</g>
<g>
</g>
<g>
</g>
<g>
</g>
<g>
</g>
<g>
</g>
<g>
</g>
<g>
</g>
<g>
</g>
<g>
</g>
</svg>
