<?xml version="1.0" encoding="iso-8859-1"?>
<!-- Generator: Adobe Illustrator 17.1.0, SVG Export Plug-In . SVG Version: 6.00 Build 0)  -->
<!DOCTYPE svg PUBLIC "-//W3C//DTD SVG 1.1//EN" "http://www.w3.org/Graphics/SVG/1.1/DTD/svg11.dtd">
<svg version="1.1" id="Capa_1" xmlns="http://www.w3.org/2000/svg" xmlns:xlink="http://www.w3.org/1999/xlink" x="0px" y="0px"
	 viewBox="0 0 466 466" style="enable-background:new 0 0 466 466;" xml:space="preserve">
<path d="M435.754,361.337l-42.666-62.713c-0.514-0.756-1.153-1.417-1.892-1.957L289.62,222.366l123.723-90.5l9.34,12.769
	c1.567,2.143,3.998,3.278,6.464,3.278c1.639,0,3.292-0.503,4.716-1.544c3.566-2.608,4.343-7.614,1.734-11.18l-14.062-19.224
	c-0.001-0.001-0.001-0.002-0.002-0.003s-0.001-0.002-0.002-0.003l-44.085-60.27c-2.609-3.566-7.612-4.342-11.18-1.734
	c-3.566,2.608-4.343,7.614-1.734,11.18l9.341,12.77l-107.444,78.593V16h15.82c4.418,0,8-3.582,8-8s-3.582-8-8-8h-98.496
	c-4.418,0-8,3.582-8,8s3.582,8,8,8h15.82v140.499L92.128,77.906l9.341-12.77c2.608-3.565,1.832-8.571-1.734-11.18
	c-3.565-2.609-8.571-1.831-11.18,1.734l-44.085,60.27c-0.001,0.001-0.002,0.002-0.002,0.003s-0.001,0.002-0.002,0.003
	l-14.062,19.224c-2.608,3.565-1.832,8.571,1.734,11.18c1.424,1.042,3.077,1.544,4.716,1.544c2.465,0,4.897-1.136,6.464-3.278
	l9.34-12.769l123.723,90.501L74.804,296.667c-0.343,0.251-0.651,0.529-0.942,0.821c-0.045,0.045-0.091,0.088-0.134,0.134
	c-0.283,0.297-0.538,0.613-0.767,0.943c-0.014,0.021-0.034,0.038-0.048,0.059l-42.666,62.713c-1.903,2.798-1.841,6.491,0.157,9.223
	c1.533,2.097,3.95,3.277,6.458,3.277c0.76,0,1.529-0.108,2.284-0.333l72.69-21.667c0.876-0.262,1.7-0.671,2.438-1.21l85.299-62.394
	v98.305c0,0.251,0.014,0.502,0.038,0.751c0.009,0.096,0.024,0.19,0.037,0.285c0.02,0.149,0.04,0.297,0.068,0.445
	c0.021,0.115,0.048,0.228,0.074,0.341c0.029,0.123,0.06,0.245,0.094,0.367c0.034,0.121,0.071,0.241,0.111,0.36
	c0.015,0.044,0.025,0.089,0.041,0.133l25.428,71.462C226.598,463.87,229.615,466,233,466s6.402-2.13,7.537-5.318l25.428-71.462
	c0.307-0.86,0.463-1.768,0.463-2.682v-98.305l85.299,62.394c0.737,0.539,1.562,0.948,2.438,1.21l72.69,21.667
	c0.755,0.225,1.523,0.334,2.284,0.334c2.508,0,4.925-1.183,6.458-3.278C437.595,367.828,437.658,364.135,435.754,361.337z
	 M383.318,90.819l20.578,28.133L276.07,212.454l-9.642-7.053v-29.08L383.318,90.819z M82.682,90.819l116.89,85.503v43.186
	l-4.854-3.55c-0.021-0.015-0.042-0.031-0.063-0.046l-132.552-96.96L82.682,90.819z M105.942,336.897l-49.82,14.851l23.641-34.75
	l7.2,9.844c1.567,2.143,3.998,3.278,6.464,3.278c1.639,0,3.292-0.503,4.716-1.544c3.566-2.608,4.343-7.614,1.734-11.18
	l-9.172-12.539l99.224-72.58l9.642,7.053v29.079L105.942,336.897z M233,434.136l-14.09-39.598h12.197c4.418,0,8-3.582,8-8
	s-3.582-8-8-8h-15.535V16h34.855v369.157L233,434.136z M369.716,339.776l7.729-10.566c2.608-3.565,1.832-8.571-1.734-11.18
	c-3.566-2.609-8.572-1.831-11.18,1.734l-9.723,13.293l-88.38-64.647v-43.186l114.208,83.541l29.242,42.982L369.716,339.776z"/>
<g>
</g>
<g>
</g>
<g>
</g>
<g>
</g>
<g>
</g>
<g>
</g>
<g>
</g>
<g>
</g>
<g>
</g>
<g>
</g>
<g>
</g>
<g>
</g>
<g>
</g>
<g>
</g>
<g>
</g>
</svg>
