<?xml version="1.0" encoding="iso-8859-1"?>
<!-- Generator: Adobe Illustrator 17.1.0, SVG Export Plug-In . SVG Version: 6.00 Build 0)  -->
<!DOCTYPE svg PUBLIC "-//W3C//DTD SVG 1.1//EN" "http://www.w3.org/Graphics/SVG/1.1/DTD/svg11.dtd">
<svg version="1.1" id="Capa_1" xmlns="http://www.w3.org/2000/svg" xmlns:xlink="http://www.w3.org/1999/xlink" x="0px" y="0px"
	 viewBox="0 0 466 466" style="enable-background:new 0 0 466 466;" xml:space="preserve">
<path d="M458,225h-14.27c-2.351-25.503-15.739-46.854-32.516-65.819c-1.547-25.273-7.178-49.837-23.549-69.533l10.09-10.091
	c3.124-3.124,3.124-8.189,0-11.313c-3.125-3.125-8.189-3.124-11.314,0l-10.092,10.093c-20.3-16.893-45.393-22.173-69.58-23.596
	C287.817,37.985,266.481,24.619,241,22.27V8c0-4.418-3.582-8-8-8s-8,3.582-8,8v14.27c-25.481,2.349-46.817,15.716-65.769,32.471
	c-24.187,1.422-49.281,6.703-69.58,23.596L79.559,68.245c-3.125-3.124-8.189-3.124-11.314,0c-3.124,3.124-3.124,8.189,0,11.313
	l10.09,10.09c-16.371,19.696-22.002,44.26-23.549,69.533C38.009,178.146,24.621,199.497,22.27,225H8c-4.418,0-8,3.582-8,8
	s3.582,8,8,8h14.27c2.351,25.503,15.739,46.854,32.516,65.819c1.547,25.273,7.178,49.837,23.549,69.533l-10.09,10.091
	c-3.124,3.124-3.124,8.189,0,11.313c1.563,1.563,3.609,2.343,5.657,2.343s4.095-0.781,5.657-2.343l10.092-10.093
	c20.3,16.893,45.393,22.173,69.58,23.596c18.952,16.756,40.288,30.122,65.769,32.471V458c0,4.418,3.582,8,8,8s8-3.582,8-8v-14.27
	c25.481-2.349,46.817-15.715,65.769-32.471c24.187-1.422,49.28-6.703,69.58-23.596l10.092,10.092
	c1.563,1.562,3.609,2.343,5.657,2.343s4.095-0.781,5.657-2.343c3.124-3.124,3.124-8.189,0-11.313l-10.09-10.09
	c16.371-19.696,22.002-44.26,23.549-69.533c16.777-18.965,30.165-40.316,32.516-65.819H458c4.418,0,8-3.582,8-8S462.418,225,458,225
	z M394.976,205.744c-0.26,6.636-0.502,13.005-0.628,19.256h-13.988c-4.418,0-8,3.582-8,8s3.582,8,8,8h13.988
	c0.126,6.251,0.368,12.62,0.628,19.256c0.524,13.402,1.046,26.95,0.57,40.073c-8.943,9.616-18.893,18.826-28.739,27.932
	c-4.875,4.509-9.551,8.841-14.06,13.172l-9.89-9.891c-3.124-3.124-8.188-3.124-11.314,0c-3.124,3.124-3.124,8.189,0,11.313
	l9.891,9.891c-4.331,4.509-8.663,9.184-13.172,14.06c-9.104,9.845-18.313,19.793-27.927,28.735c-3.765,0.135-7.5,0.187-11.174,0.187
	c-9.622,0-19.424-0.383-28.902-0.753c-6.636-0.259-13.006-0.501-19.257-0.628V380.36c0-4.418-3.582-8-8-8s-8,3.582-8,8v13.988
	c-6.251,0.126-12.621,0.368-19.257,0.628c-9.479,0.371-19.282,0.753-28.902,0.753c-3.674,0-7.409-0.052-11.174-0.187
	c-9.614-8.942-18.823-18.89-27.927-28.735c-4.509-4.875-8.841-9.551-13.172-14.06l9.891-9.891c3.124-3.125,3.124-8.189-0.001-11.314
	c-3.123-3.124-8.188-3.124-11.313,0l-9.89,9.891c-4.51-4.331-9.185-8.663-14.06-13.172c-9.847-9.106-19.796-18.316-28.739-27.932
	c-0.476-13.123,0.047-26.671,0.57-40.073c0.26-6.636,0.502-13.005,0.628-19.256h13.988c4.418,0,8-3.582,8-8s-3.582-8-8-8H71.652
	c-0.126-6.251-0.368-12.62-0.628-19.256c-0.524-13.402-1.046-26.95-0.57-40.073c8.943-9.616,18.893-18.826,28.739-27.932
	c4.875-4.509,9.551-8.841,14.06-13.172l9.891,9.891c1.563,1.562,3.609,2.343,5.657,2.343s4.095-0.781,5.657-2.343
	c3.124-3.124,3.124-8.189,0-11.313l-9.891-9.891c4.331-4.509,8.663-9.184,13.172-14.06c9.104-9.845,18.313-19.793,27.927-28.735
	c3.765-0.135,7.5-0.187,11.174-0.187c9.622,0,19.424,0.383,28.902,0.753c6.635,0.259,13.006,0.501,19.257,0.628v13.988
	c0,4.418,3.582,8,8,8s8-3.582,8-8V71.653c6.251-0.126,12.621-0.369,19.257-0.628c9.479-0.371,19.282-0.753,28.902-0.753
	c3.674,0,7.409,0.052,11.174,0.187c9.614,8.942,18.823,18.89,27.927,28.735c4.509,4.875,8.841,9.551,13.172,14.06l-9.891,9.891
	c-3.124,3.125-3.124,8.189,0.001,11.314c1.562,1.562,3.608,2.343,5.656,2.343s4.095-0.781,5.657-2.343l9.89-9.891
	c4.51,4.331,9.185,8.663,14.06,13.172c9.847,9.106,19.796,18.316,28.739,27.932C396.022,178.794,395.499,192.342,394.976,205.744z
	 M370.96,370.96c-12.638,12.638-28.613,18.938-45.297,22.008c4.907-5.097,9.678-10.252,14.345-15.298
	c6.335-6.851,12.319-13.321,18.33-19.332c6.01-6.01,12.48-11.994,19.332-18.33c5.052-4.672,10.212-9.447,15.314-14.36
	C389.838,342.86,383.426,358.494,370.96,370.96z M233,428.105c-17.631,0-33.22-6.522-47.616-16.469
	c7.074-0.135,14.114-0.405,20.985-0.673c9.324-0.364,18.133-0.708,26.632-0.708c8.501,0,17.308,0.344,26.632,0.708
	c6.87,0.269,13.909,0.538,20.985,0.673C266.22,421.583,250.631,428.105,233,428.105z M73.016,325.648
	c5.102,4.913,10.262,9.688,15.314,14.36c6.852,6.335,13.322,12.319,19.332,18.33c6.011,6.011,11.995,12.481,18.33,19.332
	c4.667,5.047,9.438,10.201,14.345,15.298c-16.684-3.07-32.659-9.37-45.297-22.008C82.574,358.494,76.162,342.86,73.016,325.648z
	 M95.04,95.04c12.638-12.638,28.613-18.938,45.297-22.008c-4.907,5.097-9.678,10.252-14.345,15.298
	c-6.335,6.851-12.319,13.321-18.33,19.332c-6.01,6.01-12.48,11.994-19.332,18.33c-5.052,4.672-10.212,9.447-15.314,14.36
	C76.162,123.14,82.574,107.506,95.04,95.04z M233,37.895c17.631,0,33.22,6.522,47.616,16.469
	c-7.074,0.135-14.114,0.405-20.985,0.673c-9.324,0.364-18.133,0.708-26.632,0.708c-8.501,0-17.308-0.344-26.632-0.708
	c-6.87-0.269-13.909-0.538-20.985-0.673C199.78,44.417,215.369,37.895,233,37.895z M392.984,140.352
	c-5.102-4.913-10.262-9.688-15.314-14.36c-6.852-6.335-13.322-12.319-19.332-18.33c-6.011-6.011-11.995-12.481-18.33-19.332
	c-4.667-5.047-9.438-10.201-14.345-15.298c16.684,3.07,32.659,9.37,45.297,22.008C383.426,107.506,389.838,123.14,392.984,140.352z
	 M54.363,185.385c0.134,7.082,0.406,14.108,0.675,20.984c0.364,9.324,0.708,18.13,0.708,26.631s-0.344,17.307-0.708,26.631
	c-0.269,6.876-0.541,13.902-0.675,20.984C44.416,266.219,37.895,250.631,37.895,233S44.416,199.781,54.363,185.385z
	 M411.637,280.615c-0.134-7.082-0.406-14.108-0.675-20.984c-0.364-9.324-0.708-18.13-0.708-26.631s0.344-17.307,0.708-26.631
	c0.269-6.876,0.541-13.902,0.675-20.984c9.947,14.395,16.468,29.984,16.468,47.615S421.584,266.219,411.637,280.615z"/>
<g>
</g>
<g>
</g>
<g>
</g>
<g>
</g>
<g>
</g>
<g>
</g>
<g>
</g>
<g>
</g>
<g>
</g>
<g>
</g>
<g>
</g>
<g>
</g>
<g>
</g>
<g>
</g>
<g>
</g>
</svg>
