<?xml version="1.0" encoding="iso-8859-1"?>
<!-- Generator: Adobe Illustrator 19.0.0, SVG Export Plug-In . SVG Version: 6.00 Build 0)  -->
<svg version="1.1" id="Capa_1" xmlns="http://www.w3.org/2000/svg" xmlns:xlink="http://www.w3.org/1999/xlink" x="0px" y="0px"
	 viewBox="0 0 58.634 58.634" style="enable-background:new 0 0 58.634 58.634;" xml:space="preserve">
<g>
	<path d="M27.368,13.02l-4.227,4.226l2.816,2.842l-3.539,3.539l4.242,4.242L30.2,24.33l7.104,7.038l4.207-4.207l-7.071-7.071
		l3.536-3.536l-4.243-4.243l-3.536,3.536L27.368,13.02z M35.147,16.555l-3.536,3.536l7.071,7.071l-1.385,1.384l-7.104-7.038
		l-3.532,3.533l-1.414-1.414l3.533-3.533l-2.816-2.841l1.405-1.405l2.828,2.828l3.536-3.536L35.147,16.555z"/>
	<path d="M50.703,22.212L32.318,3.828c-0.009-0.009-0.021-0.011-0.03-0.02c-0.078-0.072-0.167-0.131-0.265-0.176
		c-0.02-0.009-0.039-0.021-0.059-0.029c-0.013-0.005-0.024-0.014-0.037-0.018c-1.115-0.372-2.018-1.155-2.543-2.206L28.97,0.552
		c-0.144-0.288-0.417-0.488-0.734-0.54c-0.314-0.048-0.639,0.053-0.867,0.28L12.165,15.495c-1.365,1.365-1.365,3.585,0,4.95
		c0.081,0.081,0.174,0.141,0.261,0.213c0.033,0.046,0.052,0.099,0.093,0.14l0.583,0.584c-0.445,0.325-0.821,0.741-1.072,1.243
		L8.092,30.5c-0.676,1.353-0.592,2.986,0.22,4.262l5.467,8.59c0.238,0.375,0.364,0.808,0.364,1.251v13.03c0,0.552,0.448,1,1,1h12
		c0.552,0,1-0.448,1-1v-9.604c0-0.601,0.227-1.169,0.638-1.6c0.292-0.306,0.669-0.627,1.068-0.968
		c1.391-1.186,3.243-2.795,4.075-5.854c0.805-0.119,1.346-0.55,1.873-1.077l14.905-14.905c0.188-0.188,0.293-0.442,0.293-0.707
		S50.89,22.4,50.703,22.212z M13.579,16.909L27.813,2.675c0.521,0.882,1.236,1.615,2.091,2.152L15.701,19.03
		c-0.136,0.136-0.296,0.234-0.463,0.307c-0.063,0.027-0.13,0.035-0.196,0.054c-0.109,0.03-0.217,0.058-0.329,0.064
		c-0.075,0.004-0.15-0.008-0.225-0.015c-0.104-0.011-0.208-0.027-0.308-0.06c-0.074-0.024-0.144-0.057-0.215-0.093
		c-0.136-0.07-0.272-0.142-0.386-0.256c-0.281-0.281-0.436-0.658-0.436-1.061C13.143,17.567,13.298,17.19,13.579,16.909z
		 M28.552,43.941c-0.44,0.375-0.855,0.729-1.218,1.109c-0.768,0.805-1.19,1.863-1.19,2.98v8.604h-10v-12.03
		c0-0.824-0.234-1.628-0.677-2.325l-5.467-8.59c-0.437-0.687-0.482-1.565-0.118-2.293l3.938-7.876
		c0.188-0.377,0.516-0.647,0.921-0.762c0.073-0.021,0.147-0.03,0.221-0.039c0.005-0.001,0.009,0.002,0.014,0.002
		c0.179-0.02,0.423-0.018,0.683,0.077c0.091,0.035,0.18,0.077,0.265,0.13l3.933,2.458c0.994,0.621,2.964,1.865,3.234,2.999
		c0.026,0.146,0.048,0.292,0.044,0.441c-0.001,0.041-0.004,0.08-0.006,0.119c-0.029,0.457-0.12,0.83-0.282,1.091
		c-0.008,0.012-0.009,0.027-0.016,0.039c-0.311,0.449-0.859,0.56-1.686,0.56c-0.04,0-0.097,0.004-0.137,0.009
		c-0.072,0.008-1.828,0.195-4.228-1.781c-0.019-0.016-0.042-0.021-0.062-0.035c-0.042-0.03-0.087-0.052-0.133-0.075
		c-0.065-0.032-0.129-0.059-0.198-0.076c-0.049-0.013-0.097-0.02-0.148-0.025c-0.071-0.007-0.14-0.005-0.211,0.004
		c-0.05,0.006-0.098,0.011-0.147,0.025c-0.076,0.021-0.146,0.056-0.217,0.095c-0.031,0.017-0.065,0.021-0.094,0.041
		c-0.01,0.007-0.015,0.018-0.024,0.025c-0.012,0.009-0.026,0.012-0.037,0.021c-0.064,0.053-0.11,0.119-0.158,0.184
		c-0.018,0.024-0.044,0.043-0.059,0.069c-0.064,0.105-0.108,0.219-0.13,0.338c-0.005,0.027,0.001,0.055-0.002,0.082
		c-0.009,0.093-0.012,0.185,0.005,0.278c0.008,0.044,0.028,0.083,0.042,0.126c0.018,0.057,0.027,0.116,0.056,0.17
		c0.338,0.628,0.931,2.251,0.494,2.982c-0.269,0.45-1.025,0.544-1.613,0.544c-0.552,0-1,0.448-1,1s0.448,1,1,1
		c1.607,0,2.727-0.511,3.33-1.518c0.097-0.162,0.173-0.331,0.235-0.503l4.651,6.642c0.856,1.081-0.342,3.726-1.057,4.838
		c-0.298,0.464-0.165,1.083,0.3,1.382c0.167,0.108,0.355,0.16,0.541,0.16c0.328,0,0.649-0.162,0.84-0.458
		c0.304-0.471,2.916-4.673,0.979-7.116l-4.629-6.613c0.945,0.239,1.619,0.213,1.873,0.186c1.037-0.008,1.862-0.234,2.491-0.658
		l3.573,3.572c0.725,0.726,1.501,0.901,2.022,0.969c1.028,0.136,1.894,0.625,2.438,1.377c0.253,0.351,0.36,0.55,0.406,0.65
		C31.549,41.376,29.96,42.741,28.552,43.941z M34.384,37.117c-0.221,0.221-0.371,0.36-0.502,0.442
		c-0.145-0.281-0.333-0.562-0.531-0.836c-0.87-1.203-2.218-1.98-3.798-2.188c-0.394-0.051-0.629-0.16-0.869-0.4L24.9,30.35
		c0.034-0.104,0.05-0.225,0.077-0.335c0.031-0.124,0.065-0.246,0.087-0.378c0.016-0.1,0.023-0.209,0.033-0.314
		c0.013-0.121,0.033-0.236,0.039-0.364c0.002-0.052-0.004-0.104-0.004-0.156c0.001-0.058,0.011-0.108,0.011-0.168
		c0-0.284-0.041-0.558-0.114-0.822c-0.265-1.145-0.997-2.177-2.06-2.841l-5.986-3.741c-0.169-0.106-0.345-0.196-0.527-0.27
		c0.015-0.009,0.027-0.023,0.041-0.033c0.218-0.137,0.427-0.294,0.617-0.484L31.611,5.949l16.971,16.971L34.384,37.117z"/>
</g>
<g>
</g>
<g>
</g>
<g>
</g>
<g>
</g>
<g>
</g>
<g>
</g>
<g>
</g>
<g>
</g>
<g>
</g>
<g>
</g>
<g>
</g>
<g>
</g>
<g>
</g>
<g>
</g>
<g>
</g>
</svg>
