<?xml version="1.0" encoding="iso-8859-1"?>
<!-- Generator: Adobe Illustrator 17.1.0, SVG Export Plug-In . SVG Version: 6.00 Build 0)  -->
<!DOCTYPE svg PUBLIC "-//W3C//DTD SVG 1.1//EN" "http://www.w3.org/Graphics/SVG/1.1/DTD/svg11.dtd">
<svg version="1.1" id="Capa_1" xmlns="http://www.w3.org/2000/svg" xmlns:xlink="http://www.w3.org/1999/xlink" x="0px" y="0px"
	 viewBox="0 0 465.975 465.975" style="enable-background:new 0 0 465.975 465.975;" xml:space="preserve">
<path d="M465.755,257.584c0.041-0.326,0.068-0.655,0.068-0.992c0-0.078-0.01-0.154-0.012-0.231
	c0.922-19.367-1.926-36.503-11.659-48.93c-10.484-13.385-27.247-19.892-51.246-19.892c-26.156,0-48.102,1.294-66.747,3.935V146.16
	c0-56.833-46.236-103.069-103.069-103.069S130.02,89.327,130.02,146.16v90.422c-11.766,0.386-24.396,0.585-37.696,0.585
	c-26.541,0-49.389,7.911-66.072,22.878c-16.17,14.507-25.474,35.124-26.198,58.056c-0.737,23.377,6.142,44.018,19.895,59.688
	c14.413,16.425,35.856,26.557,62.011,29.301c53.207,5.585,193.967,12.652,292.052,15.749c0.96,0.03,1.907,0.045,2.848,0.045
	c23.819,0,41.401-9.744,53.682-29.725c1.567-2.55,3.012-5.233,4.373-8.011c1.054-1.167,1.767-2.643,1.988-4.279
	c5.099-11.563,8.829-24.731,12.286-38.665c0.475-0.981,0.755-2.071,0.792-3.225c0.885-3.632,1.76-7.305,2.641-11.015
	c1.076-4.529,2.163-9.106,3.296-13.698c1.117-4.526,2.189-9.054,3.196-13.563c0.338-0.82,0.536-1.71,0.583-2.64
	C462.733,284.095,465.046,270.368,465.755,257.584z M146.02,146.16c0-48.01,39.06-87.069,87.069-87.069s87.069,39.06,87.069,87.069
	v153.807c0,6.073-4.94,11.014-11.014,11.014s-11.014-4.94-11.014-11.014v-81.58c0-4.418-3.582-8-8-8s-8,3.582-8,8v81.58v26.843
	c0,6.073-4.941,11.015-11.015,11.015s-11.014-4.941-11.014-11.015V218.387c0-4.418-3.582-8-8-8s-8,3.582-8,8V326.81v26.844
	c0,6.073-4.94,11.014-11.014,11.014s-11.014-4.94-11.014-11.014V326.81V218.162c0-4.418-3.582-8-8-8s-8,3.582-8,8V326.81
	c0,6.073-4.94,11.015-11.014,11.015s-11.014-4.941-11.014-11.015v-87.231v-78.297c0-4.418-3.582-8-8-8s-8,3.582-8,8v78.297
	c0,6.073-4.941,11.015-11.015,11.015s-11.014-4.941-11.014-11.015V146.16z M374.517,406.847
	c-97.804-3.088-238.028-10.121-290.888-15.669c-43.608-4.576-68.873-31.706-67.583-72.572c1.236-39.141,31.89-65.438,76.278-65.438
	c14.513,0,28.268-0.23,40.983-0.685c4.586,8.399,13.501,14.111,23.727,14.111c3.92,0,7.649-0.84,11.015-2.349v62.565
	c0,14.896,12.118,27.015,27.014,27.015c3.92,0,7.648-0.84,11.014-2.348v2.177c0,14.896,12.118,27.014,27.014,27.014
	s27.014-12.118,27.014-27.014v-2.177c3.365,1.508,7.094,2.348,11.014,2.348c14.896,0,27.015-12.119,27.015-27.015v-2.177
	c3.365,1.508,7.094,2.348,11.014,2.348c14.896,0,27.014-12.118,27.014-27.014v-92.325c18.344-2.755,40.263-4.103,66.747-4.103
	c18.757,0,31.398,4.5,38.649,13.757c5.954,7.602,8.317,18.565,8.435,31.296h-22.485v-11.808c0-4.418-3.582-8-8-8s-8,3.582-8,8
	v11.808h-25.731c-4.418,0-8,3.582-8,8s3.582,8,8,8h63.364c-0.851,8.079-2.278,16.537-4.022,25.067h-63.839c-4.418,0-8,3.582-8,8
	s3.582,8,8,8h60.264c-0.383,1.597-0.769,3.19-1.16,4.776c-1.144,4.637-2.241,9.26-3.327,13.834c-0.521,2.193-1.036,4.336-1.55,6.457
	h-58.725c-4.418,0-8,3.582-8,8s3.582,8,8,8h54.661c-2.523,9.328-5.154,17.712-8.171,25.067H372.28c-4.418,0-8,3.582-8,8s3.582,8,8,8
	h42.576C405.949,400.638,393.692,407.45,374.517,406.847z"/>
<g>
</g>
<g>
</g>
<g>
</g>
<g>
</g>
<g>
</g>
<g>
</g>
<g>
</g>
<g>
</g>
<g>
</g>
<g>
</g>
<g>
</g>
<g>
</g>
<g>
</g>
<g>
</g>
<g>
</g>
</svg>
