<?xml version="1.0" encoding="iso-8859-1"?>
<!-- Generator: Adobe Illustrator 17.1.0, SVG Export Plug-In . SVG Version: 6.00 Build 0)  -->
<!DOCTYPE svg PUBLIC "-//W3C//DTD SVG 1.1//EN" "http://www.w3.org/Graphics/SVG/1.1/DTD/svg11.dtd">
<svg version="1.1" id="Capa_1" xmlns="http://www.w3.org/2000/svg" xmlns:xlink="http://www.w3.org/1999/xlink" x="0px" y="0px"
	 viewBox="0 0 466 466" style="enable-background:new 0 0 466 466;" xml:space="preserve">
<path d="M431.394,403.079h-42.165v-38.92c0-4.418-3.582-8-8-8h-42.164v-38.921c0-4.418-3.582-8-8-8H290.94h-26.418V129.865h26.418
	h30.124c4.418,0,8-3.582,8-8V74.944c0-4.418-3.582-8-8-8H290.94h-26.418V8c0-4.418-3.582-8-8-8h-30.124h-46.921
	c-4.418,0-8,3.582-8,8v58.944h-56.542c-4.418,0-8,3.582-8,8v46.921c0,4.418,3.582,8,8,8h56.542v179.373h-56.542
	c-4.418,0-8,3.582-8,8v38.921H74.771c-4.418,0-8,3.582-8,8v38.92H34.606c-4.418,0-8,3.582-8,8V458c0,4.418,3.582,8,8,8H371.27
	h60.124c4.418,0,8-3.582,8-8v-46.921C439.394,406.661,435.812,403.079,431.394,403.079z M373.229,403.079h-1.959h-32.164v-30.92
	h34.123V403.079z M323.064,356.159H298.94v-30.921h24.124V356.159z M248.522,309.238h-14.124V129.865h14.124V309.238z
	 M313.064,113.865H298.94V82.944h14.124V113.865z M248.522,66.944h-14.124V16h14.124V66.944z M179.478,113.865h-56.542V82.944
	h56.542c4.418,0,8-3.582,8-8V16h30.921v58.944c0,4.418,3.582,8,8,8h30.124h26.418v30.921h-26.418h-30.124c-4.418,0-8,3.582-8,8
	v187.373h-30.921V121.865C187.478,117.447,183.896,113.865,179.478,113.865z M122.936,325.238h56.542h46.921h30.124h26.418v30.921
	H122.936V325.238z M42.606,419.079H123c4.418,0,8-3.582,8-8s-3.582-8-8-8H82.771v-30.92H290.94h32.165v30.92H153
	c-4.418,0-8,3.582-8,8s3.582,8,8,8h178.105h32.164V450H42.606V419.079z M423.394,450H379.27v-30.921h1.959h42.165V450z"/>
<g>
</g>
<g>
</g>
<g>
</g>
<g>
</g>
<g>
</g>
<g>
</g>
<g>
</g>
<g>
</g>
<g>
</g>
<g>
</g>
<g>
</g>
<g>
</g>
<g>
</g>
<g>
</g>
<g>
</g>
</svg>
