<?xml version="1.0" encoding="iso-8859-1"?>
<!-- Generator: Adobe Illustrator 17.1.0, SVG Export Plug-In . SVG Version: 6.00 Build 0)  -->
<!DOCTYPE svg PUBLIC "-//W3C//DTD SVG 1.1//EN" "http://www.w3.org/Graphics/SVG/1.1/DTD/svg11.dtd">
<svg version="1.1" id="Capa_1" xmlns="http://www.w3.org/2000/svg" xmlns:xlink="http://www.w3.org/1999/xlink" x="0px" y="0px"
	 viewBox="0 0 466 466" style="enable-background:new 0 0 466 466;" xml:space="preserve">
<path d="M333.271,76.044c-5.747-20.513-17.825-39.015-34.453-52.599C280.313,8.326,256.938,0,233,0
	c-23.938,0-47.313,8.326-65.818,23.445c-16.627,13.584-28.705,32.086-34.452,52.599c-41.972,3.519-75.144,38.94-75.144,81.721
	c0,4.418,3.582,8,8,8h118.128v39.175c-27.396,12.457-37.288,40.641-37.288,61.98c0,19.492-7.591,37.818-21.374,51.602
	c-9.176,9.177-9.176,24.109,0,33.286c4.588,4.588,10.616,6.883,16.643,6.883c6.027,0,12.055-2.295,16.643-6.883
	c3.605-3.604,6.938-7.408,10.022-11.371v80.093c0,12.978,10.559,23.536,23.537,23.536c2.635,0,5.172-0.436,7.54-1.238
	C199.632,455.638,210.114,466,222.97,466s23.338-10.362,23.534-23.173c2.368,0.803,4.904,1.238,7.54,1.238
	c12.856,0,23.339-10.361,23.534-23.172c2.368,0.803,4.903,1.238,7.539,1.238c12.979,0,23.537-10.559,23.537-23.537V267.897
	c0-20.942-9.495-40.891-25.59-54.161v-47.972h117.35c4.418,0,8-3.582,8-8C408.414,114.984,375.242,79.563,333.271,76.044z
	 M250,149.765c-4.418,0-8,3.582-8,8s3.582,8,8,8h17.064v51.887c0,2.557,1.222,4.959,3.288,6.465
	c13.965,10.179,22.302,26.545,22.302,43.781v130.697c0,4.156-3.381,7.537-7.537,7.537c-4.155,0-7.536-3.381-7.536-7.537v-58.49
	c0-4.418-3.582-8-8-8s-8,3.582-8,8v58.49v21.935c0,4.155-3.381,7.536-7.537,7.536s-7.537-3.381-7.537-7.536v-80.425
	c0-4.418-3.582-8-8-8s-8,3.582-8,8v80.425v21.934c0,4.156-3.381,7.537-7.537,7.537s-7.537-3.381-7.537-7.537v-21.934V339.92
	c0-4.418-3.582-8-8-8s-8,3.582-8,8v80.609c0,4.155-3.381,7.536-7.537,7.536s-7.537-3.381-7.537-7.536V313.038
	c2.689-6.474,4.809-13.198,6.328-20.119c31.736-3.347,56.55-30.271,56.55-62.881c0-4.418-3.582-8-8-8s-8,3.582-8,8
	c0,26.044-21.187,47.231-47.228,47.231c-3.919,0-7.261,2.839-7.895,6.707c-3.514,21.456-13.573,40.999-29.091,56.517
	c-2.938,2.939-7.72,2.939-10.659,0c-2.938-2.938-2.938-7.72,0-10.658c16.805-16.806,26.06-39.148,26.06-62.915
	c0-18.281,8.39-40.763,31.938-49.032c3.205-1.125,5.35-4.151,5.35-7.548v-44.575H216c4.418,0,8-3.582,8-8s-3.582-8-8-8H74.071
	c3.956-32.404,31.617-57.762,65.044-58.006c3.746-0.027,6.972-2.651,7.762-6.313C155.554,45.206,191.773,16,233,16
	s77.447,29.206,86.123,69.445c0.79,3.662,4.016,6.286,7.762,6.313c33.427,0.244,61.088,25.602,65.044,58.006H250z"/>
<g>
</g>
<g>
</g>
<g>
</g>
<g>
</g>
<g>
</g>
<g>
</g>
<g>
</g>
<g>
</g>
<g>
</g>
<g>
</g>
<g>
</g>
<g>
</g>
<g>
</g>
<g>
</g>
<g>
</g>
</svg>
