<?xml version="1.0" encoding="iso-8859-1"?>
<!-- Generator: Adobe Illustrator 17.1.0, SVG Export Plug-In . SVG Version: 6.00 Build 0)  -->
<!DOCTYPE svg PUBLIC "-//W3C//DTD SVG 1.1//EN" "http://www.w3.org/Graphics/SVG/1.1/DTD/svg11.dtd">
<svg version="1.1" id="Capa_1" xmlns="http://www.w3.org/2000/svg" xmlns:xlink="http://www.w3.org/1999/xlink" x="0px" y="0px"
	 viewBox="0 0 466 466" style="enable-background:new 0 0 466 466;" xml:space="preserve">
<g>
	<path d="M397.289,392.683c10.291,0,18.663-8.373,18.663-18.664V18.664C415.952,8.373,407.58,0,397.289,0H79.374
		C63.203,0,50.048,13.156,50.048,29.327v407.346c0,16.171,13.155,29.327,29.326,29.327h328.578c4.418,0,8-3.582,8-8s-3.582-8-8-8
		h-13.326v-57.317H397.289z M66.048,29.327C66.048,21.979,72.026,16,79.374,16h6.991v77c0,4.418,3.582,8,8,8s8-3.582,8-8V16h294.924
		c1.443,0,2.663,1.22,2.663,2.664v355.355c0,1.444-1.22,2.664-2.663,2.664H102.365V123c0-4.418-3.582-8-8-8s-8,3.582-8,8v253.682
		h-6.991c-4.796,0-9.325,1.157-13.326,3.207V29.327z M378.626,450H79.374c-7.348,0-13.326-5.979-13.326-13.327v-30.664
		c0-7.348,5.979-13.327,13.326-13.327h299.252V450z"/>
	<path d="M175.529,172.317h49.436v145.524c0,4.418,3.582,8,8,8h36.87c4.418,0,8-3.582,8-8V172.317h49.435c4.418,0,8-3.582,8-8
		v-36.87c0-4.418-3.582-8-8-8h-49.435V74.841c0-4.418-3.582-8-8-8h-36.87c-4.418,0-8,3.582-8,8v44.605h-49.436c-4.418,0-8,3.582-8,8
		v36.87C167.529,168.735,171.111,172.317,175.529,172.317z M183.529,135.447h49.436c4.418,0,8-3.582,8-8V82.841h20.87v44.605
		c0,4.418,3.582,8,8,8h49.435v20.87h-49.435c-4.418,0-8,3.582-8,8v145.524h-20.87V164.317c0-4.418-3.582-8-8-8h-49.436V135.447z"/>
</g>
<g>
</g>
<g>
</g>
<g>
</g>
<g>
</g>
<g>
</g>
<g>
</g>
<g>
</g>
<g>
</g>
<g>
</g>
<g>
</g>
<g>
</g>
<g>
</g>
<g>
</g>
<g>
</g>
<g>
</g>
</svg>
