<?xml version="1.0" encoding="iso-8859-1"?>
<!-- Generator: Adobe Illustrator 17.1.0, SVG Export Plug-In . SVG Version: 6.00 Build 0)  -->
<!DOCTYPE svg PUBLIC "-//W3C//DTD SVG 1.1//EN" "http://www.w3.org/Graphics/SVG/1.1/DTD/svg11.dtd">
<svg version="1.1" id="Capa_1" xmlns="http://www.w3.org/2000/svg" xmlns:xlink="http://www.w3.org/1999/xlink" x="0px" y="0px"
	 viewBox="0 0 466 466" style="enable-background:new 0 0 466 466;" xml:space="preserve">
<path d="M339.12,159.167c-6.813,0-13.173,1.984-18.53,5.404V71.984c0-19.041-15.49-34.531-34.53-34.531
	c-6.813,0-13.172,1.983-18.529,5.404v-8.328C267.53,15.49,252.04,0,233,0c-19.039,0-34.529,15.49-34.529,34.529v37.435
	c0,0.007-0.001,0.013-0.001,0.02v42.333c-5.357-3.419-11.716-5.404-18.529-5.404c-19.04,0-34.53,15.49-34.53,34.531v8.328
	c-5.357-3.421-11.716-5.404-18.529-5.404c-19.04,0-34.53,15.49-34.53,34.53v144.453C92.351,402.905,155.445,466,233,466
	c37.569,0,72.89-14.63,99.455-41.195c26.564-26.564,41.195-61.885,41.194-99.454V193.697
	C373.649,174.657,358.159,159.167,339.12,159.167z M161.41,143.443c0-10.218,8.313-18.531,18.53-18.531
	c10.211,0,18.519,8.303,18.529,18.512v106.222c0,10.217-8.313,18.529-18.529,18.529c-10.218,0-18.53-8.313-18.53-18.529v-68.748
	v-0.001V143.443z M108.351,180.897c0-10.218,8.313-18.53,18.53-18.53c10.217,0,18.529,8.313,18.529,18.53v68.748
	c0,10.217-8.313,18.529-18.53,18.529c-10.217,0-18.529-8.313-18.529-18.529V180.897z M357.649,325.351
	c0,33.295-12.965,64.598-36.509,88.141C297.598,437.034,266.296,450,233,450c-68.731,0-124.649-55.917-124.649-124.649v-46.592
	c5.358,3.423,11.714,5.416,18.529,5.416c10.652,0,20.191-4.851,26.53-12.457c6.339,7.606,15.878,12.457,26.53,12.457
	c19.039,0,34.529-15.49,34.529-34.529V143.463c0-0.007,0.001-0.013,0.001-0.02V34.529C214.471,24.313,222.783,16,233,16
	c10.218,0,18.53,8.313,18.53,18.529v37.454v0.001v137.643c0,4.418,3.582,8,8,8s8-3.582,8-8V71.984
	c0-10.218,8.313-18.531,18.529-18.531c10.218,0,18.53,8.313,18.53,18.531v121.713v101.558
	c-52.686,4.096-94.305,48.28-94.305,102.002c0,4.418,3.582,8,8,8s8-3.582,8-8c0-47.593,38.716-86.312,86.305-86.312
	c4.418,0,8-3.582,8-8V193.697c0-10.218,8.313-18.53,18.53-18.53c10.217,0,18.529,8.313,18.529,18.53V325.351z"/>
<g>
</g>
<g>
</g>
<g>
</g>
<g>
</g>
<g>
</g>
<g>
</g>
<g>
</g>
<g>
</g>
<g>
</g>
<g>
</g>
<g>
</g>
<g>
</g>
<g>
</g>
<g>
</g>
<g>
</g>
</svg>
