<?xml version="1.0" encoding="iso-8859-1"?>
<!-- Generator: Adobe Illustrator 17.1.0, SVG Export Plug-In . SVG Version: 6.00 Build 0)  -->
<!DOCTYPE svg PUBLIC "-//W3C//DTD SVG 1.1//EN" "http://www.w3.org/Graphics/SVG/1.1/DTD/svg11.dtd">
<svg version="1.1" id="Capa_1" xmlns="http://www.w3.org/2000/svg" xmlns:xlink="http://www.w3.org/1999/xlink" x="0px" y="0px"
	 viewBox="0 0 466 466" style="enable-background:new 0 0 466 466;" xml:space="preserve">
<g>
	<path d="M359.108,265.485c-4.687,0-8.5,3.813-8.5,8.5s3.813,8.5,8.5,8.5c4.688,0,8.501-3.813,8.501-8.5
		S363.796,265.485,359.108,265.485z"/>
	<path d="M389.108,245.485c-4.687,0-8.5,3.813-8.5,8.5s3.813,8.5,8.5,8.5c4.688,0,8.501-3.813,8.501-8.5
		S393.796,245.485,389.108,245.485z"/>
	<path d="M447.079,246.5c-12.044-19.038-29.364-37.564-50.089-53.578c-47.008-36.321-105.248-56.324-163.99-56.324
		s-116.982,20.003-163.99,56.324c-20.725,16.013-38.045,34.54-50.089,53.578C6.543,266.066,0,285.778,0,303.504
		c0,3.454,2.217,6.518,5.498,7.599c2.269,0.747,57.521,18.3,227.502,18.3s225.233-17.553,227.502-18.3
		c3.281-1.081,5.498-4.145,5.498-7.599C466,285.778,459.457,266.066,447.079,246.5z M233,313.402
		c-136.918,0-198.743-11.713-216.693-15.973c2.907-29.282,26.29-63.88,62.485-91.847c22.458-17.353,47.639-30.736,74.215-39.716
		V231.5c0,4.418,3.582,8,8,8s8-3.582,8-8v-70.458c18.283-4.866,37.081-7.679,55.993-8.3V231.5c0,4.418,3.582,8,8,8s8-3.582,8-8
		v-78.758c18.912,0.621,37.71,3.433,55.993,8.3V231.5c0,4.418,3.582,8,8,8s8-3.582,8-8v-65.634
		c26.576,8.98,51.757,22.364,74.215,39.716c36.195,27.966,59.578,62.564,62.485,91.846C431.722,301.694,369.898,313.402,233,313.402
		z"/>
	<path d="M99.108,235.485c-4.687,0-8.5,3.813-8.5,8.5s3.813,8.5,8.5,8.5c4.688,0,8.501-3.813,8.501-8.5
		S103.796,235.485,99.108,235.485z"/>
</g>
<g>
</g>
<g>
</g>
<g>
</g>
<g>
</g>
<g>
</g>
<g>
</g>
<g>
</g>
<g>
</g>
<g>
</g>
<g>
</g>
<g>
</g>
<g>
</g>
<g>
</g>
<g>
</g>
<g>
</g>
</svg>
