<?xml version="1.0" encoding="iso-8859-1"?>
<!-- Generator: Adobe Illustrator 17.1.0, SVG Export Plug-In . SVG Version: 6.00 Build 0)  -->
<!DOCTYPE svg PUBLIC "-//W3C//DTD SVG 1.1//EN" "http://www.w3.org/Graphics/SVG/1.1/DTD/svg11.dtd">
<svg version="1.1" id="Capa_1" xmlns="http://www.w3.org/2000/svg" xmlns:xlink="http://www.w3.org/1999/xlink" x="0px" y="0px"
	 viewBox="0 0 466 466" style="enable-background:new 0 0 466 466;" xml:space="preserve">
<g>
	<path d="M458,169.601c-4.418,0-8,3.582-8,8v7.39h-52.135V93.511h2.771c3.125,0,5.964-1.819,7.27-4.659
		c1.305-2.84,0.837-6.18-1.199-8.551l-46.223-53.855c-1.52-1.771-3.736-2.79-6.07-2.79H111.586c-2.333,0-4.551,1.019-6.071,2.79
		L59.293,80.301c-2.035,2.371-2.503,5.711-1.198,8.551c1.305,2.84,4.144,4.659,7.269,4.659h2.771v91.479H16v-7.39
		c0-4.418-3.582-8-8-8s-8,3.582-8,8v15.39c0,27.91,3.413,51.041,10.145,68.751c1.214,3.194,4.253,5.159,7.479,5.159
		c0.945,0,1.906-0.168,2.841-0.524c4.13-1.569,6.206-6.19,4.636-10.32c-5.406-14.223-8.427-32.719-9-55.065h433.799
		c-0.573,22.347-3.594,40.843-8.999,55.064c-1.57,4.13,0.505,8.751,4.635,10.321c4.133,1.569,8.752-0.506,10.32-4.636
		C462.587,244.031,466,220.9,466,192.99v-15.39C466,173.183,462.418,169.601,458,169.601z M115.263,39.655h235.474l32.49,37.855
		H82.772L115.263,39.655z M84.135,93.511h297.73v91.479H84.135V93.511z"/>
	<path d="M154.567,119.936c-4.418,0-8,3.582-8,8v20.812c0,4.418,3.582,8,8,8s8-3.582,8-8v-20.812
		C162.567,123.518,158.986,119.936,154.567,119.936z"/>
	<path d="M233,119.936c-4.418,0-8,3.582-8,8v20.812c0,4.418,3.582,8,8,8c4.418,0,8-3.582,8-8v-20.812
		C241,123.518,237.418,119.936,233,119.936z"/>
	<path d="M311.433,119.936c-4.418,0-8,3.582-8,8v20.812c0,4.418,3.582,8,8,8s8-3.582,8-8v-20.812
		C319.433,123.518,315.851,119.936,311.433,119.936z"/>
	<path d="M458,281.9c-12.349,0-23.676-5.744-31.077-15.76c-1.508-2.041-3.896-3.245-6.434-3.245c-0.002,0-0.005,0-0.008,0
		c-2.54,0.002-4.929,1.211-6.435,3.258c-7.259,9.86-18.86,15.747-31.035,15.747c-12.35,0-23.677-5.744-31.076-15.759
		c-1.509-2.042-3.896-3.246-6.435-3.246s-4.926,1.204-6.434,3.245c-7.401,10.016-18.729,15.76-31.077,15.76
		c-12.325,0-23.641-5.744-31.045-15.761c-1.508-2.04-3.896-3.244-6.434-3.244c-2.537,0-4.925,1.204-6.433,3.245
		c-7.401,10.016-18.729,15.76-31.077,15.76c-12.175,0-23.777-5.887-31.037-15.748c-1.504-2.043-3.889-3.252-6.427-3.257
		c-0.005,0-0.01,0-0.015,0c-2.532,0-4.915,1.199-6.424,3.232c-7.438,10.023-18.769,15.772-31.086,15.772
		c-12.175,0-23.776-5.887-31.036-15.748c-1.506-2.046-3.895-3.255-6.435-3.257c-0.002,0-0.005,0-0.007,0
		c-2.538,0-4.926,1.204-6.434,3.246c-7.292,9.867-18.922,15.759-31.113,15.759c-12.143,0-23.749-5.892-31.044-15.761
		c-1.509-2.041-3.896-3.244-6.434-3.244c-2.538,0-4.925,1.205-6.433,3.246C31.676,276.156,20.349,281.9,8,281.9
		c-4.418,0-8,3.582-8,8s3.582,8,8,8c13.978,0,27.434-5.48,37.511-14.994C55.587,292.421,69.03,297.9,82.988,297.9
		c13.993,0,27.458-5.477,37.538-14.986c10.056,9.509,23.501,14.986,37.487,14.986c14.182,0,27.425-5.364,37.517-14.973
		c10.055,9.502,23.493,14.973,37.473,14.973c13.977,0,27.432-5.48,37.51-14.994c10.076,9.515,23.52,14.994,37.478,14.994
		c13.978,0,27.433-5.48,37.511-14.994c10.077,9.514,23.532,14.994,37.511,14.994c13.985,0,27.431-5.477,37.486-14.986
		c10.077,9.51,23.528,14.986,37.502,14.986c4.418,0,8-3.582,8-8S462.418,281.9,458,281.9z"/>
	<path d="M458,354.123c-12.349,0-23.676-5.744-31.077-15.76c-1.508-2.042-3.896-3.246-6.434-3.246c-0.002,0-0.005,0-0.008,0
		c-2.54,0.002-4.929,1.212-6.436,3.258c-7.258,9.861-18.859,15.748-31.034,15.748c-12.35,0-23.677-5.744-31.076-15.76
		c-1.509-2.041-3.896-3.246-6.435-3.246s-4.926,1.204-6.434,3.246c-7.401,10.016-18.729,15.76-31.077,15.76
		c-12.325,0-23.641-5.745-31.044-15.762c-1.509-2.04-3.896-3.244-6.435-3.244c-2.537,0-4.925,1.205-6.433,3.246
		c-7.401,10.016-18.729,15.76-31.077,15.76c-12.175,0-23.778-5.888-31.036-15.748c-1.504-2.044-3.89-3.253-6.428-3.258
		c-0.005,0-0.01,0-0.015,0c-2.532,0-4.916,1.199-6.425,3.233c-7.438,10.023-18.768,15.772-31.085,15.772
		c-12.175,0-23.777-5.888-31.035-15.748c-1.506-2.047-3.895-3.256-6.436-3.258c-0.002,0-0.005,0-0.007,0
		c-2.538,0-4.926,1.204-6.434,3.246c-7.292,9.868-18.922,15.76-31.113,15.76c-12.144,0-23.749-5.892-31.044-15.762
		c-1.509-2.04-3.896-3.244-6.434-3.244c-2.538,0-4.925,1.205-6.433,3.246c-7.4,10.016-18.728,15.76-31.077,15.76
		c-4.418,0-8,3.582-8,8s3.582,8,8,8c13.978,0,27.434-5.48,37.511-14.995c10.076,9.516,23.519,14.995,37.477,14.995
		c13.994,0,27.458-5.477,37.538-14.987c10.056,9.51,23.501,14.987,37.487,14.987c14.183,0,27.425-5.364,37.517-14.973
		c10.054,9.501,23.494,14.973,37.473,14.973c13.977,0,27.433-5.48,37.51-14.995c10.076,9.516,23.519,14.995,37.478,14.995
		c13.978,0,27.433-5.48,37.511-14.994c10.077,9.514,23.532,14.994,37.511,14.994c13.986,0,27.431-5.477,37.486-14.986
		c10.077,9.51,23.527,14.986,37.502,14.986c4.418,0,8-3.582,8-8S462.418,354.123,458,354.123z"/>
	<path d="M458,426.345c-12.349,0-23.676-5.744-31.077-15.76c-1.508-2.041-3.896-3.245-6.434-3.245c-0.002,0-0.005,0-0.008,0
		c-2.54,0.002-4.929,1.211-6.435,3.258c-7.259,9.86-18.86,15.747-31.035,15.747c-12.35,0-23.677-5.744-31.076-15.759
		c-1.509-2.042-3.896-3.246-6.435-3.246s-4.926,1.204-6.434,3.245c-7.401,10.016-18.729,15.76-31.077,15.76
		c-12.325,0-23.641-5.744-31.045-15.761c-1.508-2.04-3.896-3.244-6.434-3.244c-2.537,0-4.925,1.204-6.433,3.245
		c-7.401,10.016-18.729,15.76-31.077,15.76c-12.175,0-23.777-5.887-31.037-15.747c-1.504-2.044-3.889-3.253-6.427-3.258
		c-0.005,0-0.01,0-0.015,0c-2.532,0-4.915,1.199-6.424,3.232c-7.438,10.023-18.769,15.772-31.086,15.772
		c-12.175,0-23.776-5.887-31.036-15.747c-1.506-2.047-3.895-3.256-6.435-3.258c-0.002,0-0.005,0-0.007,0
		c-2.538,0-4.926,1.204-6.434,3.246c-7.292,9.867-18.922,15.759-31.113,15.759c-12.143,0-23.749-5.892-31.044-15.761
		c-1.509-2.041-3.896-3.244-6.434-3.244c-2.538,0-4.925,1.205-6.433,3.246C31.676,420.601,20.349,426.345,8,426.345
		c-4.418,0-8,3.582-8,8s3.582,8,8,8c13.978,0,27.434-5.48,37.511-14.994c10.076,9.515,23.519,14.994,37.477,14.994
		c13.993,0,27.458-5.477,37.538-14.986c10.056,9.509,23.501,14.986,37.487,14.986c14.182,0,27.425-5.364,37.517-14.973
		c10.055,9.502,23.493,14.973,37.473,14.973c13.977,0,27.432-5.48,37.51-14.994c10.076,9.515,23.52,14.994,37.478,14.994
		c13.978,0,27.433-5.48,37.511-14.994c10.077,9.514,23.532,14.994,37.511,14.994c13.985,0,27.431-5.477,37.486-14.986
		c10.077,9.51,23.528,14.986,37.502,14.986c4.418,0,8-3.582,8-8S462.418,426.345,458,426.345z"/>
</g>
<g>
</g>
<g>
</g>
<g>
</g>
<g>
</g>
<g>
</g>
<g>
</g>
<g>
</g>
<g>
</g>
<g>
</g>
<g>
</g>
<g>
</g>
<g>
</g>
<g>
</g>
<g>
</g>
<g>
</g>
</svg>
