<?xml version="1.0" encoding="iso-8859-1"?>
<!-- Generator: Adobe Illustrator 17.1.0, SVG Export Plug-In . SVG Version: 6.00 Build 0)  -->
<!DOCTYPE svg PUBLIC "-//W3C//DTD SVG 1.1//EN" "http://www.w3.org/Graphics/SVG/1.1/DTD/svg11.dtd">
<svg version="1.1" id="Capa_1" xmlns="http://www.w3.org/2000/svg" xmlns:xlink="http://www.w3.org/1999/xlink" x="0px" y="0px"
	 viewBox="0 0 466 466" style="enable-background:new 0 0 466 466;" xml:space="preserve">
<path d="M465.661,84.516c-0.751-2.497-2.672-4.472-5.147-5.291c-17.413-5.765-40.748-5.121-64.168,1.743l48.986-48.985
	c3.125-3.125,3.125-8.189,0-11.314c-3.123-3.122-8.188-3.122-11.313,0l-48.987,48.986c6.866-23.422,7.508-46.756,1.744-64.168
	c-0.819-2.476-2.793-4.396-5.291-5.147c-2.497-0.751-5.203-0.237-7.252,1.375c-14.622,11.508-27.106,31.735-34.253,55.497
	c-6.573,21.855-7.731,43.71-3.324,60.82l-20.428,20.429c2.543-8.025,4.587-16.49,6.062-25.245
	c5.28-31.346,2.454-61.602-7.754-83.009c-1.123-2.354-3.321-4.013-5.893-4.445c-2.568-0.436-5.191,0.413-7.023,2.27
	c-16.657,16.883-29.239,44.542-34.519,75.888c-4.887,29.009-2.83,57.083,5.594,78.074l-30.538,30.538
	c4.9-14.945,8.266-31.434,9.812-48.681c3.485-38.9-2.827-75.645-17.32-100.812c-1.301-2.26-3.622-3.743-6.219-3.976
	c-2.595-0.229-5.145,0.815-6.827,2.807c-18.735,22.19-31.479,57.228-34.965,96.127c-3.25,36.274,2.019,70.671,14.496,95.557
	l-41.565,41.565c7.107-21.191,11.404-45.368,12.351-70.76c1.73-46.443-8.023-89.679-26.761-118.62
	c-1.417-2.188-3.812-3.55-6.417-3.646c-2.605-0.093-5.095,1.082-6.671,3.158c-20.84,27.465-33.785,69.854-35.517,116.3
	c-1.625,43.606,6.874,84.382,23.427,113.156l-48.881,48.882c9.242-27.084,14.261-58.787,14.261-92.111
	c0-53.984-13.169-103.715-36.131-136.439c-1.498-2.135-3.941-3.405-6.549-3.405s-5.051,1.271-6.549,3.405
	C13.169,187.762,0,237.492,0,291.477c0,50.979,11.745,98.166,32.39,130.82L2.468,452.218c-3.125,3.125-3.125,8.189,0,11.314
	c3.124,3.123,8.189,3.123,11.313,0l29.922-29.922C76.357,454.255,123.545,466,174.524,466c53.984,0,103.715-13.169,136.439-36.131
	c2.134-1.498,3.405-3.941,3.405-6.549s-1.271-5.051-3.405-6.549c-32.725-22.962-82.455-36.131-136.439-36.131
	c-33.325,0-65.029,5.019-92.112,14.261l48.882-48.882c28.774,16.554,69.547,25.063,113.156,23.427
	c46.445-1.731,88.835-14.676,116.3-35.516c2.077-1.576,3.256-4.065,3.159-6.671s-1.458-5-3.646-6.417
	c-28.941-18.738-72.182-28.495-118.621-26.762c-25.391,0.946-49.569,5.244-70.76,12.351l41.565-41.564
	c24.884,12.476,59.284,17.747,95.558,14.495c38.901-3.486,73.938-16.23,96.126-34.966c1.992-1.682,3.04-4.229,2.807-6.826
	c-0.233-2.597-1.716-4.918-3.976-6.219c-25.166-14.492-61.91-20.808-100.811-17.319c-17.247,1.545-33.736,4.911-48.681,9.812
	l30.538-30.537c20.992,8.424,49.067,10.48,78.074,5.594c31.346-5.279,59.005-17.861,75.888-34.52
	c1.856-1.831,2.703-4.452,2.27-7.023c-0.433-2.571-2.092-4.77-4.445-5.892c-21.406-10.209-51.66-13.034-83.008-7.755
	c-8.752,1.475-17.22,3.519-25.244,6.062l20.427-20.428c17.11,4.407,38.964,3.249,60.82-3.324
	c23.762-7.147,43.99-19.633,55.498-34.254C465.899,89.718,466.412,87.012,465.661,84.516z M42.68,408.323
	C25.842,378.589,16,336.006,16,291.477c0-44.53,9.842-87.114,26.68-116.848c16.837,29.733,26.68,72.317,26.68,116.848
	C69.359,336.006,59.517,378.589,42.68,408.323z M174.524,396.641c44.53,0,87.114,9.843,116.848,26.68
	C261.638,440.157,219.054,450,174.524,450c-44.53,0-87.114-9.842-116.847-26.68C87.41,406.483,129.994,396.641,174.524,396.641z
	 M130.596,320.625c-12.771-25.695-19.435-61.435-18.054-98.479c1.381-37.046,10.685-72.189,25.334-96.862
	c12.771,25.695,19.435,61.435,18.054,98.479C154.549,260.809,145.245,295.952,130.596,320.625z M242.237,310.069
	c37.05-1.37,72.785,5.283,98.48,18.055c-24.673,14.648-59.817,23.953-96.863,25.334c-37.046,1.374-72.784-5.282-98.479-18.055
	C170.048,320.755,205.192,311.45,242.237,310.069z M212.274,239.359c-8.749-21.544-12.349-50.384-9.701-79.936
	c2.648-29.551,11.317-57.292,23.757-76.938c8.749,21.544,12.349,50.384,9.701,79.936
	C233.384,191.973,224.714,219.714,212.274,239.359z M303.578,229.968c29.552-2.645,58.392,0.952,79.936,9.701
	c-19.645,12.439-47.385,21.109-76.938,23.758c-29.552,2.647-58.392-0.953-79.936-9.701
	C246.286,241.286,274.026,232.616,303.578,229.968z M282.877,106.576c3.715-22.052,11.585-42.463,21.776-57.134
	c4.823,17.2,5.572,39.062,1.858,61.114c-3.715,22.052-11.585,42.463-21.776,57.133C279.913,150.49,279.163,128.628,282.877,106.576z
	 M355.443,159.488c22.053-3.713,43.915-2.966,61.115,1.858c-14.671,10.191-35.082,18.062-57.133,21.776
	c-22.053,3.713-43.915,2.963-61.114-1.858C312.981,171.073,333.392,163.203,355.443,159.488z M355.302,61.819
	c4.385-14.58,11.146-27.821,19.005-37.614c1.151,12.502-0.513,27.278-4.898,41.856c-4.385,14.579-11.147,27.821-19.004,37.613
	C349.252,91.174,350.917,76.398,355.302,61.819z M404.181,110.698c-14.58,4.385-29.354,6.052-41.856,4.898
	c9.792-7.857,23.034-14.62,37.613-19.005c14.58-4.386,29.355-6.05,41.856-4.898C432.002,99.551,418.76,106.314,404.181,110.698z"/>
<g>
</g>
<g>
</g>
<g>
</g>
<g>
</g>
<g>
</g>
<g>
</g>
<g>
</g>
<g>
</g>
<g>
</g>
<g>
</g>
<g>
</g>
<g>
</g>
<g>
</g>
<g>
</g>
<g>
</g>
</svg>
