<?xml version="1.0" encoding="iso-8859-1"?>
<!-- Generator: Adobe Illustrator 17.1.0, SVG Export Plug-In . SVG Version: 6.00 Build 0)  -->
<!DOCTYPE svg PUBLIC "-//W3C//DTD SVG 1.1//EN" "http://www.w3.org/Graphics/SVG/1.1/DTD/svg11.dtd">
<svg version="1.1" id="Capa_1" xmlns="http://www.w3.org/2000/svg" xmlns:xlink="http://www.w3.org/1999/xlink" x="0px" y="0px"
	 viewBox="0 0 466.001 466.001" style="enable-background:new 0 0 466.001 466.001;" xml:space="preserve">
<g>
	<path d="M233.001,164.073c45.235,0,82.036-36.801,82.036-82.037C315.037,36.801,278.236,0,233.001,0
		c-45.235,0-82.036,36.801-82.036,82.036C150.965,127.271,187.766,164.073,233.001,164.073z M233.001,16
		c36.412,0,66.036,29.624,66.036,66.036s-29.624,66.037-66.036,66.037c-36.413,0-66.036-29.624-66.036-66.037S196.588,16,233.001,16
		z"/>
	<path d="M458.001,332.157h-69.13c-3.672-72.376-56.883-131.89-126.315-145.253c-0.169-0.039-0.34-0.07-0.512-0.098
		c-9.414-1.779-19.12-2.721-29.043-2.721c-9.924,0-19.63,0.942-29.044,2.721c-0.172,0.028-0.342,0.059-0.509,0.098
		C134.015,200.266,80.803,259.78,77.131,332.157H8.001c-4.418,0-8,3.582-8,8s3.582,8,8,8h13.243l18.869,111.182
		c0.663,3.903,4.047,6.663,7.877,6.663c0.444,0,0.896-0.038,1.348-0.114c4.356-0.739,7.288-4.87,6.549-9.226L37.473,348.157h391.055
		l-18.415,108.505c-0.739,4.356,2.193,8.486,6.549,9.226c0.453,0.077,0.904,0.114,1.349,0.114c3.83,0,7.215-2.76,7.878-6.663
		l18.869-111.182h13.243c4.418,0,8-3.582,8-8S462.419,332.157,458.001,332.157z M252.75,201.483v32.131h-39.498v-32.131
		c6.454-0.915,13.046-1.399,19.749-1.399C239.704,200.084,246.295,200.568,252.75,201.483z M197.252,204.714v36.9
		c0,4.418,3.582,8,8,8h55.498c4.418,0,8-3.582,8-8v-36.9c57.493,15.187,100.618,66.097,104.09,127.443H93.162
		C96.633,270.811,139.759,219.901,197.252,204.714z"/>
</g>
<g>
</g>
<g>
</g>
<g>
</g>
<g>
</g>
<g>
</g>
<g>
</g>
<g>
</g>
<g>
</g>
<g>
</g>
<g>
</g>
<g>
</g>
<g>
</g>
<g>
</g>
<g>
</g>
<g>
</g>
</svg>
