<?xml version="1.0" encoding="iso-8859-1"?>
<!-- Generator: Adobe Illustrator 17.1.0, SVG Export Plug-In . SVG Version: 6.00 Build 0)  -->
<!DOCTYPE svg PUBLIC "-//W3C//DTD SVG 1.1//EN" "http://www.w3.org/Graphics/SVG/1.1/DTD/svg11.dtd">
<svg version="1.1" id="Capa_1" xmlns="http://www.w3.org/2000/svg" xmlns:xlink="http://www.w3.org/1999/xlink" x="0px" y="0px"
	 viewBox="0 0 466 466" style="enable-background:new 0 0 466 466;" xml:space="preserve">
<g>
	<path d="M433.077,147.725c-19.644-21.678-45.899-35.84-74.493-40.309c-4.469-28.594-18.631-54.85-40.309-74.493
		C294.847,11.692,264.562,0,233,0c-31.563,0-61.847,11.692-85.275,32.923c-21.678,19.644-35.84,45.899-40.309,74.493
		c-28.593,4.469-54.849,18.631-74.493,40.309C11.692,171.153,0,201.438,0,233s11.692,61.847,32.923,85.275
		c19.644,21.678,45.899,35.84,74.493,40.309c4.469,28.594,18.631,54.85,40.309,74.493C171.153,454.308,201.437,466,233,466
		c31.562,0,61.847-11.692,85.275-32.923c21.678-19.644,35.84-45.899,40.309-74.493c28.593-4.469,54.849-18.631,74.493-40.309
		C454.308,294.847,466,264.563,466,233S454.308,171.153,433.077,147.725z M350.614,343.495c-3.756,0.396-6.723,3.363-7.119,7.118
		C337.531,407.273,290.029,450,233,450c-57.028,0-104.531-42.727-110.495-99.387c-0.396-3.755-3.363-6.723-7.119-7.118
		C58.727,337.531,16,290.028,16,233s42.727-104.531,99.386-110.495c3.756-0.396,6.723-3.363,7.119-7.118
		C128.469,58.727,175.972,16,233,16c57.029,0,104.531,42.727,110.495,99.387c0.396,3.755,3.363,6.723,7.119,7.118
		C407.273,128.469,450,175.972,450,233S407.273,337.531,350.614,343.495z"/>
	<path d="M338.891,148.82c-8.82,0-17.472,1.359-25.714,4.003c2.643-8.242,4.003-16.896,4.003-25.715
		c0-46.417-37.763-84.18-84.18-84.18s-84.18,37.763-84.18,84.18c0,8.819,1.36,17.473,4.003,25.715
		c-8.242-2.644-16.894-4.003-25.714-4.003c-46.417,0-84.18,37.763-84.18,84.18s37.763,84.18,84.18,84.18
		c8.82,0,17.472-1.359,25.714-4.003c-2.643,8.242-4.003,16.896-4.003,25.715c0,46.417,37.763,84.18,84.18,84.18
		s84.18-37.763,84.18-84.18c0-8.819-1.36-17.473-4.003-25.715c8.242,2.644,16.894,4.003,25.714,4.003
		c46.417,0,84.18-37.763,84.18-84.18S385.308,148.82,338.891,148.82z M338.891,301.18c-13.825,0-27.142-4.123-38.512-11.923
		c-3.177-2.18-7.458-1.785-10.183,0.939c-2.725,2.726-3.12,7.006-0.94,10.183c7.8,11.37,11.923,24.688,11.923,38.513
		c0,37.595-30.585,68.18-68.18,68.18s-68.18-30.585-68.18-68.18c0-13.825,4.123-27.143,11.923-38.513
		c2.18-3.177,1.785-7.457-0.94-10.183c-1.547-1.547-3.596-2.343-5.659-2.343c-1.571,0-3.15,0.461-4.523,1.403
		c-11.37,7.8-24.687,11.923-38.512,11.923c-37.595,0-68.18-30.585-68.18-68.18s30.585-68.18,68.18-68.18
		c13.825,0,27.142,4.123,38.512,11.923c3.177,2.18,7.458,1.785,10.183-0.939c2.725-2.726,3.12-7.006,0.94-10.183
		c-7.8-11.37-11.923-24.688-11.923-38.513c0-37.595,30.585-68.18,68.18-68.18s68.18,30.585,68.18,68.18
		c0,13.825-4.123,27.143-11.923,38.513c-2.18,3.177-1.785,7.457,0.94,10.183c2.726,2.725,7.006,3.119,10.183,0.939
		c11.37-7.8,24.687-11.923,38.512-11.923c37.595,0,68.18,30.585,68.18,68.18S376.486,301.18,338.891,301.18z"/>
</g>
<g>
</g>
<g>
</g>
<g>
</g>
<g>
</g>
<g>
</g>
<g>
</g>
<g>
</g>
<g>
</g>
<g>
</g>
<g>
</g>
<g>
</g>
<g>
</g>
<g>
</g>
<g>
</g>
<g>
</g>
</svg>
