<?xml version="1.0" encoding="iso-8859-1"?>
<!-- Generator: Adobe Illustrator 17.1.0, SVG Export Plug-In . SVG Version: 6.00 Build 0)  -->
<!DOCTYPE svg PUBLIC "-//W3C//DTD SVG 1.1//EN" "http://www.w3.org/Graphics/SVG/1.1/DTD/svg11.dtd">
<svg version="1.1" id="Capa_1" xmlns="http://www.w3.org/2000/svg" xmlns:xlink="http://www.w3.org/1999/xlink" x="0px" y="0px"
	 viewBox="0 0 466 466" style="enable-background:new 0 0 466 466;" xml:space="preserve">
<g>
	<path d="M146.861,152.98c-6.058,0-10.986,4.929-10.986,11.014c0,6.058,4.929,10.986,10.986,10.986s10.986-4.928,10.986-11.013
		C157.848,157.909,152.919,152.98,146.861,152.98z"/>
	<path d="M126.703,136.39c-6.058,0-10.986,4.928-10.986,11.014c0,6.058,4.929,10.986,10.986,10.986s10.986-4.928,10.986-11.014
		C137.689,141.318,132.761,136.39,126.703,136.39z"/>
	<path d="M179.289,178.826c0-6.058-4.929-10.986-10.986-10.986s-10.986,4.928-10.986,11.014c0,6.058,4.929,10.986,10.986,10.986
		S179.289,184.911,179.289,178.826z"/>
	<path d="M102.726,108.812c0-6.058-4.929-10.986-10.986-10.986s-10.986,4.928-10.986,11.013c0,6.058,4.929,10.987,10.986,10.987
		S102.726,114.896,102.726,108.812z"/>
	<path d="M88.682,86.816c0-6.058-4.929-10.986-10.986-10.986s-10.986,4.928-10.986,11.014c0,6.058,4.929,10.986,10.986,10.986
		S88.682,92.901,88.682,86.816z"/>
	<path d="M77.601,63.216c0-6.058-4.929-10.986-10.986-10.986s-10.986,4.928-10.986,11.014c0,6.058,4.929,10.986,10.986,10.986
		S77.601,69.302,77.601,63.216z"/>
	<path d="M190.762,203.054c6.058,0,10.986-4.928,10.986-11.014c0-6.058-4.929-10.986-10.986-10.986
		c-6.059,0-10.987,4.928-10.987,11.014C179.774,198.125,184.703,203.054,190.762,203.054z"/>
	<path d="M119.185,129c0-6.058-4.929-10.987-10.987-10.987c-6.058,0-10.986,4.929-10.986,11.014c0,6.058,4.929,10.986,10.986,10.986
		C114.256,140.013,119.185,135.084,119.185,129z"/>
	<path d="M319.139,152.98c-6.058,0-10.986,4.929-10.986,11.014c0,6.058,4.929,10.986,10.986,10.986s10.986-4.928,10.986-11.013
		C330.125,157.909,325.196,152.98,319.139,152.98z"/>
	<path d="M339.297,136.39c-6.058,0-10.986,4.928-10.986,11.014c0,6.058,4.929,10.986,10.986,10.986s10.986-4.928,10.986-11.014
		C350.283,141.318,345.354,136.39,339.297,136.39z"/>
	<path d="M297.697,167.839c-6.058,0-10.986,4.928-10.986,11.014c0,6.058,4.929,10.986,10.986,10.986s10.986-4.928,10.986-11.014
		C308.684,172.768,303.755,167.839,297.697,167.839z"/>
	<path d="M374.261,97.825c-6.058,0-10.986,4.928-10.986,11.013c0,6.058,4.929,10.987,10.986,10.987s10.986-4.929,10.986-11.014
		C385.247,102.753,380.318,97.825,374.261,97.825z"/>
	<path d="M388.305,75.83c-6.058,0-10.986,4.928-10.986,11.014c0,6.058,4.929,10.986,10.986,10.986s10.986-4.928,10.986-11.014
		C399.291,80.758,394.362,75.83,388.305,75.83z"/>
	<path d="M399.386,52.23c-6.058,0-10.986,4.928-10.986,11.014c0,6.058,4.929,10.986,10.986,10.986s10.986-4.928,10.986-11.014
		C410.372,57.158,405.443,52.23,399.386,52.23z"/>
	<path d="M275.238,203.054c6.059,0,10.987-4.928,10.987-11.014c0-6.058-4.929-10.986-10.987-10.986
		c-6.058,0-10.986,4.928-10.986,11.014C264.252,198.125,269.181,203.054,275.238,203.054z"/>
	<path d="M357.803,118.013c-6.059,0-10.987,4.929-10.987,11.014c0,6.058,4.929,10.986,10.987,10.986
		c6.058,0,10.986-4.928,10.986-11.013C368.789,122.941,363.86,118.013,357.803,118.013z"/>
	<path d="M233,244.586c-6.058,0-10.986,4.928-10.986,11.014c0,6.058,4.929,10.986,10.986,10.986s10.986-4.928,10.986-11.014
		C243.986,249.515,239.058,244.586,233,244.586z"/>
	<path d="M233,270.173c-6.058,0-10.986,4.928-10.986,11.013c0,6.058,4.929,10.987,10.986,10.987s10.986-4.929,10.986-11.014
		C243.986,275.102,239.058,270.173,233,270.173z"/>
	<path d="M282.094,329.799h-29.165v-26.04c0-4.418-3.582-8-8-8h-23.857c-4.418,0-8,3.582-8,8v26.04h-29.165c-4.418,0-8,3.582-8,8
		v23.857c0,4.418,3.582,8,8,8h29.165V458c0,4.418,3.582,8,8,8h23.857c4.418,0,8-3.582,8-8v-88.343h29.165c4.418,0,8-3.582,8-8
		v-23.857C290.094,333.381,286.512,329.799,282.094,329.799z M274.094,353.657h-29.165c-4.418,0-8,3.582-8,8V450h-7.857v-88.343
		c0-4.418-3.582-8-8-8h-29.165v-7.857h29.165c4.418,0,8-3.582,8-8v-26.04h7.857v26.04c0,4.418,3.582,8,8,8h29.165V353.657z"/>
	<path d="M233,241c16.91,0,30.668-13.758,30.668-30.668S249.91,179.664,233,179.664s-30.668,13.758-30.668,30.668
		S216.09,241,233,241z M233,195.664c8.088,0,14.668,6.58,14.668,14.668S241.088,225,233,225s-14.668-6.58-14.668-14.668
		S224.912,195.664,233,195.664z"/>
	<path d="M83.903,24.737C83.903,11.097,72.807,0,59.167,0C45.526,0,34.43,11.097,34.43,24.737s11.097,24.737,24.737,24.737
		C72.807,49.474,83.903,38.377,83.903,24.737z M50.43,24.737c0-4.817,3.92-8.737,8.737-8.737s8.736,3.919,8.736,8.737
		s-3.919,8.737-8.736,8.737S50.43,29.554,50.43,24.737z"/>
	<path d="M406.833,0c-13.64,0-24.736,11.097-24.736,24.737s11.097,24.737,24.736,24.737c13.641,0,24.737-11.097,24.737-24.737
		S420.474,0,406.833,0z M406.833,33.474c-4.817,0-8.736-3.919-8.736-8.737S402.016,16,406.833,16s8.737,3.919,8.737,8.737
		S411.65,33.474,406.833,33.474z"/>
</g>
<g>
</g>
<g>
</g>
<g>
</g>
<g>
</g>
<g>
</g>
<g>
</g>
<g>
</g>
<g>
</g>
<g>
</g>
<g>
</g>
<g>
</g>
<g>
</g>
<g>
</g>
<g>
</g>
<g>
</g>
</svg>
