<?xml version="1.0" encoding="iso-8859-1"?>
<!-- Generator: Adobe Illustrator 17.1.0, SVG Export Plug-In . SVG Version: 6.00 Build 0)  -->
<!DOCTYPE svg PUBLIC "-//W3C//DTD SVG 1.1//EN" "http://www.w3.org/Graphics/SVG/1.1/DTD/svg11.dtd">
<svg version="1.1" id="Capa_1" xmlns="http://www.w3.org/2000/svg" xmlns:xlink="http://www.w3.org/1999/xlink" x="0px" y="0px"
	 viewBox="0 0 466 466" style="enable-background:new 0 0 466 466;" xml:space="preserve">
<g>
	<path d="M233,163c18.452,0,34.567-6.412,46.604-18.541c12.463-12.56,19.528-30.435,19.384-49.042
		c-0.268-34.592-24.816-65.537-25.861-66.837c-1.572-1.957-3.966-3.055-6.482-2.985c-2.509,0.077-4.837,1.328-6.286,3.378
		c0,0-1.015,1.436-2.427,3.433c-4.223-9.395-10.636-21.165-19.191-29.978C237.234,0.876,235.163,0,233,0s-4.234,0.876-5.74,2.428
		c-8.555,8.813-14.968,20.583-19.191,29.978c-1.412-1.997-2.427-3.433-2.427-3.433c-1.449-2.05-3.777-3.301-6.286-3.378
		c-2.516-0.071-4.91,1.028-6.482,2.985c-1.045,1.3-25.593,32.245-25.861,66.837c-0.144,18.607,6.921,36.482,19.384,49.042
		C198.433,156.588,214.548,163,233,163z M199.19,47.561l2.657,3.756c2.482,3.507,4.099,5.793,8.285,5.806
		c3.328-0.015,6.299-2.088,7.462-5.207c0.024-0.066,0.089-0.249,0.188-0.544c1.598-4.786,6.806-19.162,15.219-30.87
		c8.414,11.708,13.622,26.084,15.219,30.87c0.098,0.295,0.163,0.478,0.188,0.544c1.42,3.809,5.469,5.944,9.416,4.973
		c2.894-0.715,3.76-1.939,6.331-5.573l2.667-3.771c6.56,10.502,16.019,28.922,16.167,47.996
		c0.112,14.372-5.262,28.095-14.741,37.648C259.281,142.224,247.093,147,233,147s-26.281-4.776-35.246-13.811
		c-9.479-9.554-14.853-23.276-14.741-37.648C183.16,76.55,192.63,58.091,199.19,47.561z"/>
	<path d="M448.5,337.446c-19.327,0-30.522-6.038-41.049-14.03c10.526-7.991,21.722-14.028,41.049-14.028c4.418,0,8-3.582,8-8
		s-3.582-8-8-8c-26.185,0-41.317,9.782-53.874,19.737c-6.728-5.334-14.196-10.617-23.707-14.374
		c6.277-15.59,10.038-31.031,10.038-45.681c0-44.497-36.201-80.697-80.697-80.697c-27.501,0-52.51,13.759-67.26,36.071
		c-14.75-22.312-39.759-36.071-67.26-36.071c-44.497,0-80.697,36.201-80.697,80.697c0,14.651,3.761,30.092,10.039,45.683
		c-9.511,3.757-16.979,9.041-23.707,14.375c-12.557-9.956-27.688-19.74-53.875-19.74c-4.418,0-8,3.582-8,8s3.582,8,8,8
		c19.327,0,30.522,6.038,41.049,14.03c-10.526,7.991-21.722,14.028-41.049,14.028c-4.418,0-8,3.582-8,8s3.582,8,8,8
		c26.185,0,41.317-9.782,53.874-19.737c12.556,9.954,27.687,19.737,53.871,19.737c0.195,0,0.382-0.007,0.575-0.008
		c40.867,58.255,98.266,107.484,101.995,110.656c1.494,1.271,3.338,1.906,5.183,1.906s3.688-0.635,5.182-1.905
		c3.73-3.172,61.131-52.4,101.999-110.656c0.191,0.001,0.375,0.008,0.567,0.008c26.188,0,41.321-9.784,53.879-19.74
		c12.557,9.956,27.688,19.74,53.875,19.74c4.418,0,8-3.582,8-8S452.918,337.446,448.5,337.446z M101.043,253.071
		c0-35.674,29.023-64.697,64.697-64.697c26.347,0,49.844,15.755,59.86,40.138c1.233,3.001,4.156,4.96,7.4,4.96s6.167-1.959,7.4-4.96
		c10.016-24.383,33.513-40.138,59.86-40.138c35.674,0,64.697,29.023,64.697,64.697c0,13.114-3.551,27.147-9.492,41.463
		c-4.494-0.733-9.368-1.146-14.71-1.146c-26.189,0-41.321,9.786-53.879,19.743c-12.558-9.957-27.691-19.743-53.882-19.743
		c-26.182,0-41.313,9.781-53.869,19.734c-12.556-9.954-27.688-19.734-53.871-19.734c-5.344,0-10.222,0.413-14.718,1.146
		C104.594,280.218,101.043,266.185,101.043,253.071z M332.057,336.996c-14.202-1.536-23.517-6.865-32.356-13.575
		c10.528-7.994,21.724-14.033,41.053-14.033c2.684,0,5.204,0.123,7.595,0.344C343.619,318.85,338.097,327.99,332.057,336.996z
		 M274.049,323.422c-10.525,7.99-21.72,14.025-41.043,14.025c-19.331,0-30.528-6.039-41.056-14.033
		c10.525-7.99,21.72-14.025,41.043-14.025C252.324,309.389,263.521,315.428,274.049,323.422z M117.651,309.734
		c2.393-0.222,4.915-0.345,7.602-0.345c19.324,0,30.52,6.035,41.045,14.025c-8.84,6.712-18.154,12.044-32.356,13.582
		C127.903,327.989,122.381,318.85,117.651,309.734z M84.2,323.419c5.318-4.037,10.81-7.574,17.431-10.087
		c3.891,7.857,8.328,15.7,13.155,23.452C101.569,335.011,92.668,329.848,84.2,323.419z M232.999,447.348
		c-14.438-12.906-56.132-51.59-88.83-95.852c15.228-3.343,25.783-10.519,34.956-17.792c12.558,9.957,27.691,19.743,53.882,19.743
		c26.182,0,41.313-9.781,53.869-19.734c9.173,7.272,19.728,14.444,34.955,17.785C289.131,395.759,247.437,434.442,232.999,447.348z
		 M364.369,313.331c6.621,2.513,12.113,6.048,17.43,10.085c-8.467,6.429-17.368,11.593-30.586,13.367
		C356.042,329.031,360.478,321.188,364.369,313.331z"/>
</g>
<g>
</g>
<g>
</g>
<g>
</g>
<g>
</g>
<g>
</g>
<g>
</g>
<g>
</g>
<g>
</g>
<g>
</g>
<g>
</g>
<g>
</g>
<g>
</g>
<g>
</g>
<g>
</g>
<g>
</g>
</svg>
