<?xml version="1.0" encoding="iso-8859-1"?>
<!-- Generator: Adobe Illustrator 17.1.0, SVG Export Plug-In . SVG Version: 6.00 Build 0)  -->
<!DOCTYPE svg PUBLIC "-//W3C//DTD SVG 1.1//EN" "http://www.w3.org/Graphics/SVG/1.1/DTD/svg11.dtd">
<svg version="1.1" id="Capa_1" xmlns="http://www.w3.org/2000/svg" xmlns:xlink="http://www.w3.org/1999/xlink" x="0px" y="0px"
	 viewBox="0 0 466.001 466.001" style="enable-background:new 0 0 466.001 466.001;" xml:space="preserve">
<g>
	<path d="M421.466,224.879h-135.09c-4.418,0-8,3.582-8,8v189.588c0,4.418,3.582,8,8,8h135.09c4.418,0,8-3.582,8-8V232.879
		C429.466,228.461,425.884,224.879,421.466,224.879z M413.466,414.467h-119.09V240.879h119.09V414.467z"/>
	<path d="M464.787,300.358l-5.568-23.628l5.568-23.627c0.284-1.207,0.284-2.463,0-3.67l-5.604-23.779l5.026-25.624
		c0.519-2.643-0.327-5.368-2.25-7.253c-1.924-1.885-4.666-2.676-7.297-2.105l-20.361,4.417l-18.044-5.407
		c-1.498-0.449-3.096-0.449-4.594,0l-8.541,2.56L421.918,8.816c0.451-4.396-2.747-8.323-7.143-8.773
		c-4.4-0.443-8.323,2.748-8.773,7.143l-19.03,185.718l-10.748-3.222c-1.497-0.448-3.095-0.449-4.594,0l-17.719,5.312l-17.72-5.312
		c-1.496-0.448-3.094-0.449-4.594,0l-10.745,3.221L301.827,7.185c-0.45-4.395-4.373-7.59-8.773-7.143
		c-4.396,0.45-7.593,4.378-7.143,8.773l18.792,183.425l-8.536-2.559c-1.5-0.449-3.096-0.449-4.596,0l-18.034,5.407l-20.356-4.416
		c-2.63-0.568-5.373,0.221-7.296,2.105s-2.769,4.61-2.251,7.252l5.026,25.631l-5.604,23.791c-0.284,1.206-0.284,2.462,0,3.669
		l5.568,23.633l-5.568,23.631c-0.284,1.207-0.284,2.463,0,3.67l5.568,23.632l-5.568,23.631c-0.284,1.207-0.284,2.463,0,3.67
		l5.568,23.628l-5.568,23.627c-0.284,1.207-0.284,2.463,0,3.67l5.604,23.779l-5.026,25.624c-0.519,2.643,0.327,5.368,2.25,7.253
		s4.665,2.676,7.297,2.105l20.362-4.417l18.043,5.407c1.498,0.449,3.096,0.449,4.594,0l17.721-5.312l17.719,5.312
		c1.498,0.449,3.096,0.449,4.594,0l17.72-5.312l17.719,5.312c1.498,0.449,3.096,0.449,4.594,0l17.717-5.312l17.717,5.312
		c0.749,0.225,1.522,0.337,2.297,0.337s1.548-0.112,2.298-0.337l18.034-5.407l20.355,4.416c0.584,0.126,1.179,0.171,1.759,0.182
		c4.398-0.022,7.958-3.596,7.958-8c0-0.733-0.1-1.444-0.284-2.119l-4.909-24.926l5.604-23.926c0.282-1.203,0.281-2.456-0.002-3.659
		l-5.568-23.633l5.568-23.631c0.284-1.207,0.284-2.463,0-3.67l-5.568-23.631l5.568-23.632
		C465.072,302.821,465.072,301.565,464.787,300.358z M443.154,431.21l3.003,15.245l-10.475-2.272
		c-1.323-0.286-2.697-0.234-3.994,0.155l-17.713,5.312l-17.717-5.312c-1.498-0.449-3.096-0.449-4.594,0l-17.717,5.312l-17.719-5.312
		c-1.498-0.449-3.096-0.449-4.594,0l-17.72,5.312l-17.719-5.312c-1.496-0.448-3.094-0.449-4.594,0l-17.721,5.312l-17.723-5.312
		c-0.748-0.225-1.521-0.337-2.297-0.337c-0.568,0-1.137,0.061-1.696,0.182l-10.491,2.276l3.018-15.382
		c0.219-1.117,0.197-2.268-0.063-3.375l-5.568-23.625l5.568-23.627c0.284-1.207,0.284-2.463,0-3.67l-5.568-23.628l5.568-23.631
		c0.284-1.207,0.284-2.463,0-3.67l-5.568-23.632l5.568-23.631c0.284-1.207,0.284-2.463,0-3.67l-5.568-23.633l5.568-23.637
		c0.261-1.107,0.282-2.257,0.063-3.373l-3.018-15.389l10.485,2.275c1.323,0.286,2.696,0.233,3.994-0.155l17.714-5.312l17.715,5.312
		c0.004,0.001,0.009,0.001,0.013,0.003c0.34,0.102,0.69,0.176,1.047,0.232c0.058,0.009,0.115,0.017,0.173,0.025
		c0.347,0.046,0.698,0.078,1.055,0.078c0.272,0,0.548-0.015,0.825-0.043c0.073-0.007,0.142-0.023,0.214-0.033
		c0.094-0.012,0.188-0.028,0.281-0.043c0.303-0.05,0.6-0.115,0.89-0.197c0.032-0.009,0.065-0.012,0.096-0.021l0.088-0.026
		c0.01-0.003,0.019-0.006,0.029-0.009l17.6-5.277l17.72,5.312c1.497,0.449,3.095,0.45,4.594,0l17.719-5.312l17.603,5.277
		c0.01,0.003,0.019,0.006,0.029,0.009l0.088,0.026c0.032,0.01,0.065,0.012,0.097,0.021c0.288,0.082,0.584,0.146,0.886,0.197
		c0.097,0.016,0.192,0.032,0.29,0.044c0.07,0.009,0.138,0.025,0.209,0.032c0.277,0.028,0.553,0.043,0.825,0.043
		c0.357,0,0.707-0.032,1.052-0.078c0.06-0.008,0.119-0.016,0.179-0.025c0.356-0.056,0.706-0.13,1.046-0.232
		c0.003-0.001,0.007-0.001,0.01-0.002l17.72-5.312l17.724,5.312c1.298,0.389,2.671,0.441,3.993,0.155l10.49-2.275l-3.018,15.381
		c-0.219,1.117-0.197,2.268,0.063,3.375l5.568,23.625l-5.568,23.627c-0.284,1.207-0.284,2.463,0,3.67l5.568,23.628l-5.568,23.632
		c-0.284,1.207-0.284,2.463,0,3.67l5.568,23.631l-5.568,23.631c-0.284,1.207-0.284,2.463,0,3.67l5.569,23.639l-5.568,23.774
		C442.954,428.946,442.935,430.095,443.154,431.21z"/>
	<path d="M179.624,224.879H44.535c-4.418,0-8,3.582-8,8v189.588c0,4.418,3.582,8,8,8h135.089c4.418,0,8-3.582,8-8V232.879
		C187.624,228.461,184.042,224.879,179.624,224.879z M171.624,414.467H52.535V240.879h119.089V414.467z"/>
	<path d="M222.945,249.433l-5.604-23.779l5.026-25.624c0.518-2.643-0.328-5.368-2.25-7.253c-1.923-1.886-4.666-2.677-7.296-2.105
		l-20.362,4.417l-18.043-5.407c-1.499-0.449-3.096-0.449-4.594,0l-8.54,2.56L180.077,8.816c0.45-4.396-2.748-8.323-7.143-8.773
		c-4.396-0.453-8.323,2.747-8.774,7.143l-19.031,185.718l-10.747-3.222c-1.498-0.449-3.096-0.449-4.594,0l-17.72,5.312
		l-17.719-5.312c-1.498-0.449-3.095-0.449-4.594,0l-10.744,3.221L59.984,7.185c-0.45-4.395-4.377-7.59-8.774-7.143
		c-4.395,0.45-7.593,4.378-7.143,8.773l18.792,183.425l-8.536-2.559c-1.499-0.449-3.096-0.449-4.595,0l-18.034,5.407l-20.357-4.416
		c-2.63-0.569-5.373,0.221-7.296,2.105s-2.769,4.61-2.25,7.253l5.027,25.63l-5.604,23.791c-0.285,1.206-0.285,2.462,0,3.669
		l5.567,23.633l-5.567,23.631c-0.285,1.207-0.285,2.463,0,3.67l5.567,23.632l-5.567,23.631c-0.285,1.207-0.285,2.463,0,3.67
		l5.567,23.628l-5.567,23.627c-0.285,1.207-0.285,2.463,0,3.67l5.604,23.779l-5.026,25.624c-0.518,2.643,0.328,5.368,2.25,7.253
		s4.665,2.674,7.296,2.105l20.362-4.417l18.043,5.407c1.499,0.449,3.096,0.449,4.594,0l17.72-5.312l17.719,5.312
		c1.499,0.449,3.096,0.449,4.594,0l17.72-5.312l17.719,5.312c0.749,0.225,1.523,0.337,2.297,0.337s1.548-0.112,2.297-0.337
		l17.716-5.312l17.716,5.312c1.499,0.449,3.096,0.449,4.595,0l18.034-5.407l20.357,4.416c0.584,0.127,1.193,0.185,1.758,0.182
		c4.399-0.022,7.958-3.596,7.958-8c0-0.733-0.099-1.444-0.284-2.119l-4.91-24.926l5.604-23.926c0.282-1.203,0.281-2.456-0.002-3.659
		l-5.567-23.633l5.567-23.631c0.285-1.207,0.285-2.463,0-3.67l-5.567-23.631l5.567-23.632c0.285-1.207,0.285-2.463,0-3.67
		l-5.567-23.628l5.567-23.627C223.229,251.896,223.229,250.64,222.945,249.433z M201.312,431.21l3.003,15.245l-10.476-2.272
		c-1.322-0.287-2.697-0.234-3.994,0.155l-17.713,5.312l-17.716-5.312c-1.499-0.449-3.096-0.449-4.595,0l-17.716,5.312l-17.719-5.312
		c-1.498-0.449-3.096-0.449-4.594,0l-17.72,5.312l-17.719-5.312c-1.498-0.449-3.096-0.449-4.594,0l-17.72,5.312l-17.723-5.312
		c-0.748-0.225-1.522-0.337-2.297-0.337c-0.568,0-1.137,0.061-1.696,0.182l-10.491,2.276l3.017-15.382
		c0.219-1.117,0.197-2.268-0.064-3.375l-5.567-23.625l5.567-23.627c0.285-1.207,0.285-2.463,0-3.67l-5.567-23.628l5.567-23.631
		c0.285-1.207,0.285-2.463,0-3.67L17.22,302.22l5.567-23.631c0.285-1.207,0.285-2.463,0-3.67l-5.568-23.633l5.568-23.637
		c0.261-1.107,0.283-2.257,0.064-3.374l-3.018-15.388l10.486,2.275c1.322,0.287,2.696,0.234,3.994-0.155l17.713-5.312l17.716,5.312
		c0.004,0.001,0.008,0.001,0.011,0.002c0.341,0.102,0.691,0.177,1.048,0.232c0.058,0.009,0.116,0.017,0.174,0.025
		c0.347,0.046,0.698,0.078,1.055,0.078c0.272,0,0.548-0.015,0.825-0.043c0.073-0.007,0.142-0.023,0.214-0.033
		c0.094-0.012,0.188-0.028,0.282-0.043c0.302-0.05,0.598-0.114,0.886-0.197c0.033-0.01,0.067-0.012,0.1-0.022l0.092-0.027
		c0.007-0.002,0.015-0.004,0.022-0.007l17.603-5.278l17.719,5.312c1.498,0.449,3.096,0.449,4.594,0l17.72-5.312l17.604,5.277
		c0.008,0.002,0.016,0.005,0.024,0.007l0.091,0.027c0.032,0.01,0.066,0.013,0.099,0.022c0.289,0.082,0.585,0.147,0.888,0.197
		c0.094,0.016,0.187,0.031,0.281,0.043c0.072,0.01,0.141,0.026,0.214,0.033c0.277,0.028,0.552,0.043,0.825,0.043
		c0.357,0,0.708-0.032,1.055-0.078c0.058-0.008,0.116-0.016,0.174-0.025c0.356-0.056,0.707-0.131,1.048-0.232
		c0.004-0.001,0.007-0.001,0.011-0.002l17.72-5.312l17.723,5.312c1.296,0.389,2.67,0.441,3.993,0.155l10.491-2.276l-3.017,15.382
		c-0.219,1.117-0.197,2.268,0.064,3.375l5.567,23.625l-5.567,23.627c-0.285,1.207-0.285,2.463,0,3.67l5.567,23.628l-5.567,23.632
		c-0.284,1.207-0.284,2.463,0,3.67l5.567,23.631l-5.567,23.631c-0.284,1.207-0.284,2.463,0,3.67l5.569,23.639l-5.568,23.774
		C201.113,428.946,201.092,430.095,201.312,431.21z"/>
</g>
<g>
</g>
<g>
</g>
<g>
</g>
<g>
</g>
<g>
</g>
<g>
</g>
<g>
</g>
<g>
</g>
<g>
</g>
<g>
</g>
<g>
</g>
<g>
</g>
<g>
</g>
<g>
</g>
<g>
</g>
</svg>
