<?xml version="1.0" encoding="iso-8859-1"?>
<!-- Generator: Adobe Illustrator 17.1.0, SVG Export Plug-In . SVG Version: 6.00 Build 0)  -->
<!DOCTYPE svg PUBLIC "-//W3C//DTD SVG 1.1//EN" "http://www.w3.org/Graphics/SVG/1.1/DTD/svg11.dtd">
<svg version="1.1" id="Capa_1" xmlns="http://www.w3.org/2000/svg" xmlns:xlink="http://www.w3.org/1999/xlink" x="0px" y="0px"
	 viewBox="0 0 466 466" style="enable-background:new 0 0 466 466;" xml:space="preserve">
<g>
	<path d="M342.482,66.975c-5.716,0-11.084,1.52-15.72,4.176v-5.943c0-17.49-14.229-31.72-31.72-31.72
		c-5.715,0-11.083,1.52-15.72,4.176V31.72c0-17.49-14.229-31.72-31.72-31.72s-31.72,14.229-31.72,31.72v5.943
		c-4.636-2.656-10.004-4.176-15.72-4.176c-17.491,0-31.72,14.229-31.72,31.72V200.47c-6.517-9.741-14.031-18.903-22.493-27.365
		c-5.991-5.992-13.957-9.292-22.43-9.292c-8.473,0-16.439,3.3-22.429,9.291c-5.991,5.991-9.291,13.957-9.291,22.43
		c0,8.473,3.3,16.438,9.291,22.43c21.838,21.839,33.865,50.875,33.865,81.759c0,18.814,4.91,37.803,13.825,53.465
		c9.96,17.5,24.788,30.684,43.104,38.401V458c0,4.418,3.582,8,8,8s8-3.582,8-8v-71.896c0-3.396-2.145-6.423-5.349-7.548
		c-38.03-13.355-51.58-49.479-51.58-78.834c0-35.158-13.69-68.212-38.551-93.073c-2.969-2.969-4.604-6.917-4.604-11.115
		c0-4.199,1.635-8.146,4.605-11.116c2.969-2.969,6.916-4.604,11.115-4.604c4.199,0,8.146,1.636,11.116,4.605
		c14.709,14.708,26.283,31.73,34.357,50.325c0.065,0.167,0.136,0.33,0.212,0.491c5.164,12.002,8.877,24.654,11.024,37.765
		c0.634,3.868,3.976,6.707,7.895,6.707c42.081,0,76.317,34.238,76.317,76.322c0,4.418,3.582,8,8,8s8-3.582,8-8
		c0-48.647-37.822-88.628-85.603-92.081c-2.35-11.661-5.837-22.961-10.395-33.786V65.207c0-8.668,7.052-15.72,15.72-15.72
		s15.72,7.052,15.72,15.72v123.065c0,4.418,3.582,8,8,8s8-3.582,8-8V65.207V31.72c0-8.668,7.052-15.72,15.72-15.72
		s15.72,7.052,15.72,15.72v33.487v122.785c0,4.418,3.582,8,8,8s8-3.582,8-8V65.207c0-8.668,7.052-15.72,15.72-15.72
		s15.72,7.052,15.72,15.72v33.487v89.298c0,4.418,3.582,8,8,8s8-3.582,8-8V98.694c0-8.668,7.052-15.72,15.72-15.72
		s15.72,7.052,15.72,15.72V298.23c0,27.657-13.376,53.918-35.78,70.246c-2.066,1.506-3.288,3.908-3.288,6.465V458
		c0,4.418,3.582,8,8,8s8-3.582,8-8v-79.093c24.537-19.447,39.068-49.301,39.068-80.677V98.694
		C374.202,81.204,359.973,66.975,342.482,66.975z"/>
	<path d="M323.62,241.246c2.109-2.834,2.109-6.717,0-9.551c-10.48-14.085-30.519-22.835-52.298-22.835s-41.818,8.75-52.298,22.835
		c-2.109,2.834-2.109,6.717,0,9.551c10.48,14.085,30.52,22.835,52.298,22.835S313.14,255.331,323.62,241.246z M271.322,248.081
		c-13.738,0-26.735-4.423-34.997-11.61c8.261-7.188,21.259-11.61,34.997-11.61s26.735,4.423,34.996,11.61
		C298.057,243.658,285.06,248.081,271.322,248.081z"/>
</g>
<g>
</g>
<g>
</g>
<g>
</g>
<g>
</g>
<g>
</g>
<g>
</g>
<g>
</g>
<g>
</g>
<g>
</g>
<g>
</g>
<g>
</g>
<g>
</g>
<g>
</g>
<g>
</g>
<g>
</g>
</svg>
