<?xml version="1.0" encoding="iso-8859-1"?>
<!-- Generator: Adobe Illustrator 17.1.0, SVG Export Plug-In . SVG Version: 6.00 Build 0)  -->
<!DOCTYPE svg PUBLIC "-//W3C//DTD SVG 1.1//EN" "http://www.w3.org/Graphics/SVG/1.1/DTD/svg11.dtd">
<svg version="1.1" id="Capa_1" xmlns="http://www.w3.org/2000/svg" xmlns:xlink="http://www.w3.org/1999/xlink" x="0px" y="0px"
	 viewBox="0 0 466 466" style="enable-background:new 0 0 466 466;" xml:space="preserve">
<g>
	<path d="M301.475,106h62c4.418,0,8-3.582,8-8s-3.582-8-8-8h-62c-4.418,0-8,3.582-8,8S297.057,106,301.475,106z"/>
	<path d="M301.475,176h62c4.418,0,8-3.582,8-8s-3.582-8-8-8h-62c-4.418,0-8,3.582-8,8S297.057,176,301.475,176z"/>
	<path d="M301.475,246h62c4.418,0,8-3.582,8-8s-3.582-8-8-8h-62c-4.418,0-8,3.582-8,8S297.057,246,301.475,246z"/>
	<path d="M301.475,316h62c4.418,0,8-3.582,8-8s-3.582-8-8-8h-62c-4.418,0-8,3.582-8,8S297.057,316,301.475,316z"/>
	<path d="M301.475,386h62c4.418,0,8-3.582,8-8s-3.582-8-8-8h-62c-4.418,0-8,3.582-8,8S297.057,386,301.475,386z"/>
	<path d="M332.475,0c-31.743,0-62.505,11.331-86.621,31.906c-3.361,2.867-3.761,7.917-0.894,11.278
		c2.868,3.36,7.917,3.761,11.278,0.894C277.461,25.972,304.536,16,332.475,16C397.278,16,450,68.722,450,133.524V450H285.05
		c-4.418,0-8,3.582-8,8s3.582,8,8,8H458c4.418,0,8-3.582,8-8V133.524C466,59.898,406.101,0,332.475,0z"/>
	<path d="M164.525,90h-62c-4.418,0-8,3.582-8,8s3.582,8,8,8h62c4.418,0,8-3.582,8-8S168.943,90,164.525,90z"/>
	<path d="M164.525,160h-62c-4.418,0-8,3.582-8,8s3.582,8,8,8h62c4.418,0,8-3.582,8-8S168.943,160,164.525,160z"/>
	<path d="M164.525,230h-62c-4.418,0-8,3.582-8,8s3.582,8,8,8h62c4.418,0,8-3.582,8-8S168.943,230,164.525,230z"/>
	<path d="M164.525,300h-62c-4.418,0-8,3.582-8,8s3.582,8,8,8h62c4.418,0,8-3.582,8-8S168.943,300,164.525,300z"/>
	<path d="M164.525,370h-62c-4.418,0-8,3.582-8,8s3.582,8,8,8h62c4.418,0,8-3.582,8-8S168.943,370,164.525,370z"/>
	<path d="M133.525,0C59.899,0,0,59.898,0,133.524V458c0,4.418,3.582,8,8,8h251.05c4.418,0,8-3.582,8-8V133.524
		C267.05,59.898,207.151,0,133.525,0z M251.05,450H16V133.524C16,68.722,68.722,16,133.525,16S251.05,68.722,251.05,133.524V450z"/>
</g>
<g>
</g>
<g>
</g>
<g>
</g>
<g>
</g>
<g>
</g>
<g>
</g>
<g>
</g>
<g>
</g>
<g>
</g>
<g>
</g>
<g>
</g>
<g>
</g>
<g>
</g>
<g>
</g>
<g>
</g>
</svg>
