<?xml version="1.0" encoding="iso-8859-1"?>
<!-- Generator: Adobe Illustrator 17.1.0, SVG Export Plug-In . SVG Version: 6.00 Build 0)  -->
<!DOCTYPE svg PUBLIC "-//W3C//DTD SVG 1.1//EN" "http://www.w3.org/Graphics/SVG/1.1/DTD/svg11.dtd">
<svg version="1.1" id="Capa_1" xmlns="http://www.w3.org/2000/svg" xmlns:xlink="http://www.w3.org/1999/xlink" x="0px" y="0px"
	 viewBox="0 0 423.2 423.2" style="enable-background:new 0 0 423.2 423.2;" xml:space="preserve">
<g>
	<path d="M158.663,239.116c45.235,0,82.036-36.801,82.036-82.036s-36.801-82.037-82.036-82.037s-82.036,36.802-82.036,82.037
		S113.428,239.116,158.663,239.116z M158.663,91.043c36.412,0,66.036,29.624,66.036,66.037c0,36.412-29.624,66.036-66.036,66.036
		s-66.036-29.624-66.036-66.036C92.627,120.667,122.251,91.043,158.663,91.043z"/>
	<path d="M229.907,276.361c-0.475-0.308-0.984-0.563-1.521-0.765c-20.997-10.529-44.678-16.469-69.723-16.469
		s-48.726,5.939-69.723,16.469c-0.537,0.202-1.046,0.457-1.521,0.765C37.09,302.292,2.591,354.792,2.591,415.2c0,4.418,3.582,8,8,8
		s8-3.582,8-8c0-49.706,26.028-93.443,65.167-118.311V415.2c0,4.418,3.582,8,8,8s8-3.582,8-8V288.134
		c17.917-8.339,37.875-13.007,58.905-13.007s40.988,4.667,58.905,13.007V415.2c0,4.418,3.582,8,8,8s8-3.582,8-8V296.889
		c39.139,24.868,65.167,68.604,65.167,118.311c0,4.418,3.582,8,8,8s8-3.582,8-8C314.736,354.792,280.237,302.292,229.907,276.361z"
		/>
	<path d="M373.716,2.626c-41.033-10.978-83.345,13.476-94.322,54.507c-12.896,48.202,14.219,97.864,60.895,113.66l0.104,244.411
		c0.002,4.417,3.583,7.996,8,7.996c0.001,0,0.002,0,0.003,0c4.419-0.002,7.999-3.585,7.997-8.004l-0.107-250.342
		c-0.002-3.62-2.435-6.788-5.933-7.725c-41.757-11.171-66.655-54.175-55.502-95.862c8.697-32.509,42.222-51.884,74.73-43.185
		c25.155,6.729,40.146,32.67,33.416,57.825c-5.156,19.271-25.026,30.756-44.302,25.601c-14.565-3.896-23.245-18.917-19.348-33.482
		c2.889-10.799,14.021-17.236,24.826-14.346c3.772,1.009,6.926,3.427,8.88,6.809c1.954,3.381,2.475,7.321,1.465,11.094
		c-1.142,4.269,1.393,8.653,5.661,9.796c4.267,1.141,8.653-1.393,9.796-5.661c2.113-7.901,1.023-16.152-3.068-23.234
		c-4.093-7.082-10.697-12.146-18.599-14.26c-19.319-5.164-39.247,6.346-44.418,25.668c-6.177,23.088,7.582,46.896,30.67,53.074
		c4.501,1.204,9.021,1.778,13.473,1.778c23.044-0.002,44.188-15.407,50.421-38.701C427.463,46.365,407.394,11.636,373.716,2.626z"/>
</g>
<g>
</g>
<g>
</g>
<g>
</g>
<g>
</g>
<g>
</g>
<g>
</g>
<g>
</g>
<g>
</g>
<g>
</g>
<g>
</g>
<g>
</g>
<g>
</g>
<g>
</g>
<g>
</g>
<g>
</g>
</svg>
