<?xml version="1.0" encoding="iso-8859-1"?>
<!-- Generator: Adobe Illustrator 17.1.0, SVG Export Plug-In . SVG Version: 6.00 Build 0)  -->
<!DOCTYPE svg PUBLIC "-//W3C//DTD SVG 1.1//EN" "http://www.w3.org/Graphics/SVG/1.1/DTD/svg11.dtd">
<svg version="1.1" id="Capa_1" xmlns="http://www.w3.org/2000/svg" xmlns:xlink="http://www.w3.org/1999/xlink" x="0px" y="0px"
	 viewBox="0 0 467.963 467.963" style="enable-background:new 0 0 467.963 467.963;" xml:space="preserve">
<g>
	<path d="M443.963,213.104h-36.981v-69.391c0-4.418-3.582-8-8-8s-8,3.582-8,8v69.391H354c-13.233,0-24,10.767-24,24v221.878
		c0,4.418,3.582,8,8,8h121.963c4.418,0,8-3.582,8-8V237.104C467.963,223.87,457.196,213.104,443.963,213.104z M451.963,450.981H346
		V237.104c0-4.411,3.589-8,8-8h89.963c4.411,0,8,3.589,8,8V450.981z"/>
	<path d="M370.742,184.047c1.673,0,3.359-0.522,4.799-1.604c3.533-2.654,4.245-7.668,1.592-11.201
		c-8.19-10.902-12.52-23.883-12.52-37.539c0-23.703,13.377-45.266,34.368-55.882C419.973,88.438,433.35,110,433.35,133.703
		c0,13.657-4.329,26.637-12.519,37.538c-2.653,3.532-1.941,8.547,1.591,11.201c3.532,2.653,8.548,1.942,11.202-1.591
		c10.288-13.694,15.726-29.998,15.726-47.148c0-31.248-18.513-59.53-47.164-72.052c-2.043-0.893-4.365-0.893-6.408,0
		c-28.651,12.522-47.164,40.805-47.164,72.052c0,17.149,5.438,33.453,15.727,47.149
		C365.912,182.944,368.313,184.047,370.742,184.047z"/>
	<path d="M113.963,213.103H76.981v-69.391c0-4.418-3.582-8-8-8s-8,3.582-8,8v69.391H24c-13.233,0-24,10.767-24,24v221.878
		c0,4.418,3.582,8,8,8h121.963c4.418,0,8-3.582,8-8V237.103C137.963,223.87,127.196,213.103,113.963,213.103z M121.963,450.981H16
		V237.103c0-4.411,3.589-8,8-8h44.972c0.003,0,0.006,0,0.01,0s0.006,0,0.01,0h44.972c4.411,0,8,3.589,8,8V450.981z"/>
	<path d="M40.742,184.047c1.673,0,3.359-0.522,4.799-1.604c3.533-2.654,4.245-7.668,1.592-11.201
		c-8.19-10.902-12.52-23.883-12.52-37.539c0-23.703,13.377-45.266,34.368-55.882C89.973,88.438,103.35,110,103.35,133.703
		c0,13.657-4.329,26.637-12.519,37.538c-2.653,3.532-1.941,8.547,1.591,11.201c3.533,2.653,8.547,1.942,11.202-1.591
		c10.288-13.694,15.726-29.998,15.726-47.148c0-31.248-18.513-59.53-47.164-72.052c-2.043-0.893-4.365-0.893-6.408,0
		c-28.651,12.522-47.164,40.805-47.164,72.052c0,17.149,5.438,33.453,15.727,47.149C35.912,182.944,38.313,184.047,40.742,184.047z"
		/>
	<path d="M278.963,153.104h-36.981V83.712c0-4.418-3.582-8-8-8s-8,3.582-8,8v69.391H189c-13.233,0-24,10.766-24,24v281.878
		c0,4.418,3.582,8,8,8h121.963c4.418,0,8-3.582,8-8V177.104C302.963,163.87,292.196,153.104,278.963,153.104z M286.963,450.981H181
		V177.104c0-4.411,3.589-8,8-8h89.963c4.411,0,8,3.589,8,8V450.981z"/>
	<path d="M205.742,124.047c1.673,0,3.359-0.522,4.799-1.604c3.533-2.654,4.245-7.668,1.592-11.201
		c-8.19-10.902-12.52-23.883-12.52-37.539c0-23.703,13.377-45.266,34.368-55.882C254.973,28.438,268.35,50,268.35,73.703
		c0,13.657-4.329,26.637-12.519,37.538c-2.653,3.532-1.941,8.547,1.591,11.201s8.547,1.942,11.202-1.591
		c10.288-13.694,15.726-29.998,15.726-47.148c0-31.248-18.513-59.53-47.164-72.052c-2.043-0.893-4.365-0.893-6.408,0
		c-28.651,12.522-47.164,40.805-47.164,72.052c0,17.149,5.438,33.453,15.727,47.149
		C200.912,122.944,203.313,124.047,205.742,124.047z"/>
</g>
<g>
</g>
<g>
</g>
<g>
</g>
<g>
</g>
<g>
</g>
<g>
</g>
<g>
</g>
<g>
</g>
<g>
</g>
<g>
</g>
<g>
</g>
<g>
</g>
<g>
</g>
<g>
</g>
<g>
</g>
</svg>
